<?xml version="1.0" encoding="utf-8"?>
<!-- Generator: Adobe Illustrator 22.1.0, SVG Export Plug-In . SVG Version: 6.00 Build 0)  -->
<svg version="1.1" id="Layer_1" xmlns="http://www.w3.org/2000/svg" xmlns:xlink="http://www.w3.org/1999/xlink" x="0px" y="0px"
	 viewBox="0 0 600 520" style="enable-background:new 0 0 600 520;" xml:space="preserve">
<style type="text/css">
	.st0{fill-rule:evenodd;clip-rule:evenodd;fill:#FFC817;}
	.st1{fill-rule:evenodd;clip-rule:evenodd;fill:#FFF5F3;}
	.st2{fill-rule:evenodd;clip-rule:evenodd;fill:#FFFF33;}
	.st3{fill-rule:evenodd;clip-rule:evenodd;fill:url(#SVGID_1_);}
	.st4{fill-rule:evenodd;clip-rule:evenodd;fill:url(#SVGID_2_);}
	.st5{fill-rule:evenodd;clip-rule:evenodd;fill:url(#SVGID_3_);}
	.st6{fill-rule:evenodd;clip-rule:evenodd;fill:url(#SVGID_4_);}
	.st7{fill-rule:evenodd;clip-rule:evenodd;fill:url(#SVGID_5_);}
	.st8{fill-rule:evenodd;clip-rule:evenodd;fill:url(#SVGID_6_);}
	.st9{fill-rule:evenodd;clip-rule:evenodd;fill:url(#SVGID_7_);}
	.st10{fill-rule:evenodd;clip-rule:evenodd;fill:url(#SVGID_8_);}
	.st11{fill-rule:evenodd;clip-rule:evenodd;fill:url(#SVGID_9_);}
	.st12{fill-rule:evenodd;clip-rule:evenodd;fill:url(#SVGID_10_);}
	.st13{fill-rule:evenodd;clip-rule:evenodd;fill:url(#SVGID_11_);}
	.st14{fill-rule:evenodd;clip-rule:evenodd;fill:url(#SVGID_12_);}
	.st15{fill-rule:evenodd;clip-rule:evenodd;fill:url(#SVGID_13_);}
	.st16{fill-rule:evenodd;clip-rule:evenodd;fill:url(#SVGID_14_);}
	.st17{fill-rule:evenodd;clip-rule:evenodd;fill:url(#SVGID_15_);}
	.st18{fill-rule:evenodd;clip-rule:evenodd;fill:url(#SVGID_16_);}
	.st19{fill-rule:evenodd;clip-rule:evenodd;fill:url(#SVGID_17_);}
	.st20{fill-rule:evenodd;clip-rule:evenodd;fill:url(#SVGID_18_);}
	.st21{fill-rule:evenodd;clip-rule:evenodd;fill:url(#SVGID_19_);}
	.st22{fill-rule:evenodd;clip-rule:evenodd;fill:url(#SVGID_20_);}
	.st23{fill-rule:evenodd;clip-rule:evenodd;fill:url(#SVGID_21_);}
	.st24{fill-rule:evenodd;clip-rule:evenodd;fill:url(#SVGID_22_);}
	.st25{fill-rule:evenodd;clip-rule:evenodd;fill:url(#SVGID_23_);}
	.st26{fill-rule:evenodd;clip-rule:evenodd;fill:url(#SVGID_24_);}
	.st27{fill-rule:evenodd;clip-rule:evenodd;fill:url(#SVGID_25_);}
	.st28{fill-rule:evenodd;clip-rule:evenodd;fill:url(#SVGID_26_);}
	.st29{fill-rule:evenodd;clip-rule:evenodd;fill:url(#SVGID_27_);}
	.st30{fill-rule:evenodd;clip-rule:evenodd;fill:url(#SVGID_28_);}
	.st31{fill-rule:evenodd;clip-rule:evenodd;fill:url(#SVGID_29_);}
	.st32{fill-rule:evenodd;clip-rule:evenodd;fill:url(#SVGID_30_);}
	.st33{fill-rule:evenodd;clip-rule:evenodd;fill:url(#SVGID_31_);}
	.st34{fill-rule:evenodd;clip-rule:evenodd;fill:url(#SVGID_32_);}
	.st35{fill-rule:evenodd;clip-rule:evenodd;fill:url(#SVGID_33_);}
	.st36{fill-rule:evenodd;clip-rule:evenodd;fill:url(#SVGID_34_);}
	.st37{fill-rule:evenodd;clip-rule:evenodd;fill:url(#SVGID_35_);}
	.st38{fill-rule:evenodd;clip-rule:evenodd;fill:url(#SVGID_36_);}
	.st39{fill-rule:evenodd;clip-rule:evenodd;fill:url(#SVGID_37_);}
	.st40{fill-rule:evenodd;clip-rule:evenodd;fill:url(#SVGID_38_);}
	.st41{fill-rule:evenodd;clip-rule:evenodd;fill:url(#SVGID_39_);}
	.st42{fill-rule:evenodd;clip-rule:evenodd;fill:url(#SVGID_40_);}
	.st43{fill-rule:evenodd;clip-rule:evenodd;fill:url(#SVGID_41_);}
	.st44{fill-rule:evenodd;clip-rule:evenodd;fill:url(#SVGID_42_);}
	.st45{fill-rule:evenodd;clip-rule:evenodd;fill:url(#SVGID_43_);}
	.st46{fill-rule:evenodd;clip-rule:evenodd;fill:url(#SVGID_44_);}
	.st47{fill-rule:evenodd;clip-rule:evenodd;fill:url(#SVGID_45_);}
	.st48{fill-rule:evenodd;clip-rule:evenodd;fill:url(#SVGID_46_);}
	.st49{fill-rule:evenodd;clip-rule:evenodd;fill:url(#SVGID_47_);}
	.st50{fill-rule:evenodd;clip-rule:evenodd;fill:url(#SVGID_48_);}
	.st51{fill-rule:evenodd;clip-rule:evenodd;fill:url(#SVGID_49_);}
	.st52{fill-rule:evenodd;clip-rule:evenodd;fill:url(#SVGID_50_);}
	.st53{fill-rule:evenodd;clip-rule:evenodd;fill:url(#SVGID_51_);}
	.st54{fill-rule:evenodd;clip-rule:evenodd;fill:url(#SVGID_52_);}
	.st55{fill-rule:evenodd;clip-rule:evenodd;fill:url(#SVGID_53_);}
	.st56{fill-rule:evenodd;clip-rule:evenodd;fill:url(#SVGID_54_);}
	.st57{fill-rule:evenodd;clip-rule:evenodd;fill:url(#SVGID_55_);}
	.st58{fill-rule:evenodd;clip-rule:evenodd;fill:url(#SVGID_56_);}
	.st59{fill-rule:evenodd;clip-rule:evenodd;fill:url(#SVGID_57_);}
	.st60{fill-rule:evenodd;clip-rule:evenodd;fill:url(#SVGID_58_);}
	.st61{fill-rule:evenodd;clip-rule:evenodd;fill:url(#SVGID_59_);}
	.st62{fill-rule:evenodd;clip-rule:evenodd;fill:url(#SVGID_60_);}
	.st63{fill-rule:evenodd;clip-rule:evenodd;fill:url(#SVGID_61_);}
	.st64{fill-rule:evenodd;clip-rule:evenodd;fill:url(#SVGID_62_);}
	.st65{fill-rule:evenodd;clip-rule:evenodd;fill:url(#SVGID_63_);}
	.st66{fill-rule:evenodd;clip-rule:evenodd;fill:url(#SVGID_64_);}
	.st67{fill-rule:evenodd;clip-rule:evenodd;fill:url(#SVGID_65_);}
	.st68{fill-rule:evenodd;clip-rule:evenodd;fill:url(#SVGID_66_);}
	.st69{fill-rule:evenodd;clip-rule:evenodd;fill:url(#SVGID_67_);}
	.st70{fill-rule:evenodd;clip-rule:evenodd;fill:url(#SVGID_68_);}
	.st71{fill-rule:evenodd;clip-rule:evenodd;fill:url(#SVGID_69_);}
	.st72{fill-rule:evenodd;clip-rule:evenodd;fill:url(#SVGID_70_);}
	.st73{fill-rule:evenodd;clip-rule:evenodd;fill:url(#SVGID_71_);}
	.st74{fill-rule:evenodd;clip-rule:evenodd;fill:url(#SVGID_72_);}
	.st75{fill-rule:evenodd;clip-rule:evenodd;fill:url(#SVGID_73_);}
	.st76{fill-rule:evenodd;clip-rule:evenodd;fill:url(#SVGID_74_);}
	.st77{fill-rule:evenodd;clip-rule:evenodd;fill:url(#SVGID_75_);}
	.st78{fill-rule:evenodd;clip-rule:evenodd;fill:url(#SVGID_76_);}
	.st79{fill-rule:evenodd;clip-rule:evenodd;fill:url(#SVGID_77_);}
	.st80{fill-rule:evenodd;clip-rule:evenodd;fill:url(#SVGID_78_);}
	.st81{fill-rule:evenodd;clip-rule:evenodd;fill:url(#SVGID_79_);}
	.st82{fill-rule:evenodd;clip-rule:evenodd;fill:url(#SVGID_80_);}
	.st83{fill-rule:evenodd;clip-rule:evenodd;fill:url(#SVGID_81_);}
	.st84{fill-rule:evenodd;clip-rule:evenodd;fill:url(#SVGID_82_);}
	.st85{fill-rule:evenodd;clip-rule:evenodd;fill:url(#SVGID_83_);}
	.st86{fill-rule:evenodd;clip-rule:evenodd;fill:url(#SVGID_84_);}
	.st87{fill-rule:evenodd;clip-rule:evenodd;fill:url(#SVGID_85_);}
	.st88{fill-rule:evenodd;clip-rule:evenodd;fill:url(#SVGID_86_);}
	.st89{fill-rule:evenodd;clip-rule:evenodd;fill:url(#SVGID_87_);}
	.st90{fill:url(#SVGID_88_);}
	.st91{fill:#FFC817;stroke:#FFC817;stroke-width:0.25;stroke-miterlimit:10;}
	.st92{font-family:'Arial-BoldMT';}
	.st93{font-size:27.2538px;}
	.st94{fill:#FFC817;}
	.st95{font-size:20px;}
	.st96{fill:url(#SVGID_89_);}
	.st97{fill:url(#SVGID_90_);}
</style>
<g>
	<path class="st0" d="M178.2,135.3l0.2,11.4l-10.7,4.3l10.8,2.8l0.2,11.5l6.5-9.7l10.8,2.8l-6.8-8.8l6.5-9.7l-10.7,4.3L178.2,135.3z
		 M215.8,154c-4.2,1.7-6.3,6.4-4.7,10.5c1.6,4.1,6.3,6.1,10.5,4.5c4.2-1.7,6.3-6.4,4.7-10.5C224.7,154.3,220,152.4,215.8,154
		L215.8,154z M246.1,153.5c0,0-25.2,42.5-58.6,4.8c0,0,27.2,57.6,71.1,85C258.5,243.3,227.4,191.4,246.1,153.5L246.1,153.5z
		 M246.1,153.5"/>
	<path class="st0" d="M402.8,144.1l-10.7-4.3l6.5,9.7l-6.8,8.8l10.8-2.8l6.5,9.7l0.2-11.5l10.8-2.8l-10.7-4.3l0.2-11.4L402.8,144.1z
		 M372.1,154c-4.2-1.7-8.9,0.3-10.5,4.5c-1.6,4.1,0.5,8.9,4.7,10.5c4.2,1.7,8.9-0.3,10.5-4.5C378.4,160.4,376.3,155.7,372.1,154
		L372.1,154z M341.8,153.5c18.7,37.9-12.4,89.8-12.4,89.8c43.9-27.4,71.1-85,71.1-85C366.9,196,341.8,153.5,341.8,153.5L341.8,153.5
		z M341.8,153.5"/>
	<g>
		<g>
			<path class="st0" d="M252.2,194.1h4v42.8h19.1c0,0,14,5.9,19.8,5.4c5.8-0.5,18.2-5.5,18.2-5.5h19.3v-42.7h3.3v50.4h-33.1
				c0,0-2.7,3.2-8.1,3.4c-5.7,0-8-3.4-8-3.4h-34.5V194.1z"/>
			<path class="st0" d="M259.2,188.3l0,45.1H270c1.6,0,3.3,0.2,4.9,0.7c4.1,1.1,12.1,3.6,17.4,6.8V195c0-0.3-0.1-0.6-0.3-0.8
				c-2.1-2.1-13.9-12.8-31.9-7.1C259.6,187.2,259.2,187.7,259.2,188.3z"/>
			<path class="st0" d="M329.3,188.3l0,45.1h-9c-3,0-6,0.4-8.8,1.3c-4.3,1.3-10.8,3.5-15.3,6.2v-45.8c0-0.3,0.1-0.6,0.3-0.8
				c2.1-2.1,13.9-12.8,31.9-7.1C329,187.3,329.3,187.8,329.3,188.3z"/>
		</g>
	</g>
	<g>
		<ellipse class="st2" cx="294.4" cy="120.7" rx="14.1" ry="7.3"/>
		<g>
			<linearGradient id="SVGID_1_" gradientUnits="userSpaceOnUse" x1="279.8963" y1="128.2165" x2="308.8448" y2="128.2165">
				<stop  offset="0" style="stop-color:#F46000"/>
				<stop  offset="1" style="stop-color:#FFFF33"/>
			</linearGradient>
			<path class="st3" d="M294.4,132.7c8,0,14.5-3.4,14.5-7.5c0-0.5-0.1-1-0.3-1.4c-1.3,3.5-7.2,6.1-14.2,6.1c-7,0-12.9-2.6-14.2-6.1
				c-0.2,0.5-0.3,0.9-0.3,1.4C279.9,129.3,286.4,132.7,294.4,132.7z"/>
			<linearGradient id="SVGID_2_" gradientUnits="userSpaceOnUse" x1="279.8963" y1="132.3848" x2="308.8448" y2="132.3848">
				<stop  offset="0" style="stop-color:#F46000"/>
				<stop  offset="1" style="stop-color:#FFFF33"/>
			</linearGradient>
			<path class="st4" d="M294.4,136.9c8,0,14.5-3.4,14.5-7.5c0-0.5-0.1-1-0.3-1.4c-1.3,3.5-7.2,6.1-14.2,6.1c-7,0-12.9-2.6-14.2-6.1
				c-0.2,0.5-0.3,0.9-0.3,1.4C279.9,133.5,286.4,136.9,294.4,136.9z"/>
			<linearGradient id="SVGID_3_" gradientUnits="userSpaceOnUse" x1="279.7375" y1="136.855" x2="308.686" y2="136.855">
				<stop  offset="0" style="stop-color:#F46000"/>
				<stop  offset="1" style="stop-color:#FFFF33"/>
			</linearGradient>
			<path class="st5" d="M294.2,141.3c8,0,14.5-3.4,14.5-7.5c0-0.5-0.1-1-0.3-1.4c-1.3,3.5-7.2,6.1-14.2,6.1c-7,0-12.9-2.6-14.2-6.1
				c-0.2,0.5-0.3,0.9-0.3,1.4C279.7,138,286.2,141.3,294.2,141.3z"/>
			<linearGradient id="SVGID_4_" gradientUnits="userSpaceOnUse" x1="279.7375" y1="141.646" x2="308.686" y2="141.646">
				<stop  offset="0" style="stop-color:#F46000"/>
				<stop  offset="1" style="stop-color:#FFFF33"/>
			</linearGradient>
			<path class="st6" d="M294.2,146.1c8,0,14.5-3.4,14.5-7.5c0-0.5-0.1-1-0.3-1.4c-1.3,3.5-7.2,6.1-14.2,6.1c-7,0-12.9-2.6-14.2-6.1
				c-0.2,0.5-0.3,0.9-0.3,1.4C279.7,142.7,286.2,146.1,294.2,146.1z"/>
			<linearGradient id="SVGID_5_" gradientUnits="userSpaceOnUse" x1="279.7375" y1="146.3832" x2="308.686" y2="146.3832">
				<stop  offset="0" style="stop-color:#F46000"/>
				<stop  offset="1" style="stop-color:#FFFF33"/>
			</linearGradient>
			<path class="st7" d="M294.2,150.9c8,0,14.5-3.4,14.5-7.5c0-0.5-0.1-1-0.3-1.4c-1.3,3.5-7.2,6.1-14.2,6.1c-7,0-12.9-2.6-14.2-6.1
				c-0.2,0.5-0.3,0.9-0.3,1.4C279.7,147.5,286.2,150.9,294.2,150.9z"/>
			<linearGradient id="SVGID_6_" gradientUnits="userSpaceOnUse" x1="279.7375" y1="151.4791" x2="308.686" y2="151.4791">
				<stop  offset="0" style="stop-color:#F46000"/>
				<stop  offset="1" style="stop-color:#FFFF33"/>
			</linearGradient>
			<path class="st8" d="M294.2,155.9c8,0,14.5-3.4,14.5-7.5c0-0.5-0.1-1-0.3-1.4c-1.3,3.5-7.2,6.1-14.2,6.1c-7,0-12.9-2.6-14.2-6.1
				c-0.2,0.5-0.3,0.9-0.3,1.4C279.7,152.6,286.2,155.9,294.2,155.9z"/>
			<linearGradient id="SVGID_7_" gradientUnits="userSpaceOnUse" x1="279.7375" y1="155.9493" x2="308.686" y2="155.9493">
				<stop  offset="0" style="stop-color:#F46000"/>
				<stop  offset="1" style="stop-color:#FFFF33"/>
			</linearGradient>
			<path class="st9" d="M294.2,160.4c8,0,14.5-3.4,14.5-7.5c0-0.5-0.1-1-0.3-1.4c-1.3,3.5-7.2,6.1-14.2,6.1c-7,0-12.9-2.6-14.2-6.1
				c-0.2,0.5-0.3,0.9-0.3,1.4C279.7,157,286.2,160.4,294.2,160.4z"/>
			<linearGradient id="SVGID_8_" gradientUnits="userSpaceOnUse" x1="279.7375" y1="160.8982" x2="308.686" y2="160.8982">
				<stop  offset="0" style="stop-color:#F46000"/>
				<stop  offset="1" style="stop-color:#FFFF33"/>
			</linearGradient>
			<path class="st10" d="M294.2,165.4c8,0,14.5-3.4,14.5-7.5c0-0.5-0.1-1-0.3-1.4c-1.3,3.5-7.2,6.1-14.2,6.1c-7,0-12.9-2.6-14.2-6.1
				c-0.2,0.5-0.3,0.9-0.3,1.4C279.7,162,286.2,165.4,294.2,165.4z"/>
			<linearGradient id="SVGID_9_" gradientUnits="userSpaceOnUse" x1="280.0585" y1="165.8842" x2="308.5908" y2="165.8842">
				<stop  offset="0" style="stop-color:#F46000"/>
				<stop  offset="1" style="stop-color:#FFFF33"/>
			</linearGradient>
			<path class="st11" d="M294.3,167.5c-6.9,0-12.7-2.6-14-6.1c-0.2,0.4-0.2,0.9-0.2,1.4c0,4.1,6.4,7.5,14.3,7.5
				c7.9,0,14.3-3.4,14.3-7.5c0-0.5-0.1-1-0.2-1.4C307,164.9,301.3,167.5,294.3,167.5z"/>
			<linearGradient id="SVGID_10_" gradientUnits="userSpaceOnUse" x1="279.7375" y1="170.7062" x2="308.8614" y2="170.7062">
				<stop  offset="0" style="stop-color:#F46000"/>
				<stop  offset="1" style="stop-color:#FFFF33"/>
			</linearGradient>
			<path class="st12" d="M308.6,166.3c-1.3,3.5-7.2,6.1-14.3,6.1c-7.1,0-13-2.6-14.3-6.1c-0.2,0.4-0.3,0.9-0.3,1.4
				c0,4.1,6.5,7.5,14.6,7.5c8,0,14.6-3.4,14.6-7.5C308.9,167.2,308.8,166.7,308.6,166.3z"/>
		</g>
	</g>
</g>
<g>
	<g>
		<ellipse class="st2" cx="212.2" cy="403.7" rx="11.2" ry="5.8"/>
		<linearGradient id="SVGID_11_" gradientUnits="userSpaceOnUse" x1="200.6982" y1="409.6863" x2="223.6835" y2="409.6863">
			<stop  offset="0" style="stop-color:#F46000"/>
			<stop  offset="1" style="stop-color:#FFFF33"/>
		</linearGradient>
		<path class="st13" d="M212.2,413.2c6.3,0,11.5-2.7,11.5-6c0-0.4-0.1-0.8-0.2-1.1c-1,2.8-5.7,4.8-11.3,4.8
			c-5.6,0-10.3-2.1-11.3-4.8c-0.1,0.4-0.2,0.7-0.2,1.1C200.7,410.6,205.8,413.2,212.2,413.2z"/>
		<linearGradient id="SVGID_12_" gradientUnits="userSpaceOnUse" x1="200.6982" y1="412.996" x2="223.6835" y2="412.996">
			<stop  offset="0" style="stop-color:#F46000"/>
			<stop  offset="1" style="stop-color:#FFFF33"/>
		</linearGradient>
		<path class="st14" d="M212.2,416.5c6.3,0,11.5-2.7,11.5-6c0-0.4-0.1-0.8-0.2-1.1c-1,2.8-5.7,4.8-11.3,4.8
			c-5.6,0-10.3-2.1-11.3-4.8c-0.1,0.4-0.2,0.7-0.2,1.1C200.7,413.9,205.8,416.5,212.2,416.5z"/>
		<linearGradient id="SVGID_13_" gradientUnits="userSpaceOnUse" x1="200.5721" y1="416.5454" x2="223.5574" y2="416.5454">
			<stop  offset="0" style="stop-color:#F46000"/>
			<stop  offset="1" style="stop-color:#FFFF33"/>
		</linearGradient>
		<path class="st15" d="M212.1,420.1c6.3,0,11.5-2.7,11.5-6c0-0.4-0.1-0.8-0.2-1.1c-1,2.8-5.7,4.8-11.3,4.8
			c-5.6,0-10.3-2.1-11.3-4.8c-0.1,0.4-0.2,0.7-0.2,1.1C200.6,417.4,205.7,420.1,212.1,420.1z"/>
		<linearGradient id="SVGID_14_" gradientUnits="userSpaceOnUse" x1="200.5721" y1="420.3494" x2="223.5574" y2="420.3494">
			<stop  offset="0" style="stop-color:#F46000"/>
			<stop  offset="1" style="stop-color:#FFFF33"/>
		</linearGradient>
		<path class="st16" d="M212.1,423.9c6.3,0,11.5-2.7,11.5-6c0-0.4-0.1-0.8-0.2-1.1c-1,2.8-5.7,4.8-11.3,4.8
			c-5.6,0-10.3-2.1-11.3-4.8c-0.1,0.4-0.2,0.7-0.2,1.1C200.6,421.2,205.7,423.9,212.1,423.9z"/>
		<linearGradient id="SVGID_15_" gradientUnits="userSpaceOnUse" x1="200.5721" y1="424.1108" x2="223.5574" y2="424.1108">
			<stop  offset="0" style="stop-color:#F46000"/>
			<stop  offset="1" style="stop-color:#FFFF33"/>
		</linearGradient>
		<path class="st17" d="M212.1,427.7c6.3,0,11.5-2.7,11.5-6c0-0.4-0.1-0.8-0.2-1.1c-1,2.8-5.7,4.8-11.3,4.8
			c-5.6,0-10.3-2.1-11.3-4.8c-0.1,0.4-0.2,0.7-0.2,1.1C200.6,425,205.7,427.7,212.1,427.7z"/>
		<linearGradient id="SVGID_16_" gradientUnits="userSpaceOnUse" x1="200.5721" y1="428.157" x2="223.5574" y2="428.157">
			<stop  offset="0" style="stop-color:#F46000"/>
			<stop  offset="1" style="stop-color:#FFFF33"/>
		</linearGradient>
		<path class="st18" d="M212.1,431.7c6.3,0,11.5-2.7,11.5-6c0-0.4-0.1-0.8-0.2-1.1c-1,2.8-5.7,4.8-11.3,4.8
			c-5.6,0-10.3-2.1-11.3-4.8c-0.1,0.4-0.2,0.7-0.2,1.1C200.6,429,205.7,431.7,212.1,431.7z"/>
		<linearGradient id="SVGID_17_" gradientUnits="userSpaceOnUse" x1="200.5721" y1="431.7064" x2="223.5574" y2="431.7064">
			<stop  offset="0" style="stop-color:#F46000"/>
			<stop  offset="1" style="stop-color:#FFFF33"/>
		</linearGradient>
		<path class="st19" d="M212.1,435.3c6.3,0,11.5-2.7,11.5-6c0-0.4-0.1-0.8-0.2-1.1c-1,2.8-5.7,4.8-11.3,4.8
			c-5.6,0-10.3-2.1-11.3-4.8c-0.1,0.4-0.2,0.7-0.2,1.1C200.6,432.6,205.7,435.3,212.1,435.3z"/>
		<linearGradient id="SVGID_18_" gradientUnits="userSpaceOnUse" x1="200.5721" y1="435.6358" x2="223.5574" y2="435.6358">
			<stop  offset="0" style="stop-color:#F46000"/>
			<stop  offset="1" style="stop-color:#FFFF33"/>
		</linearGradient>
		<path class="st20" d="M212.1,439.2c6.3,0,11.5-2.7,11.5-6c0-0.4-0.1-0.8-0.2-1.1c-1,2.8-5.7,4.8-11.3,4.8
			c-5.6,0-10.3-2.1-11.3-4.8c-0.1,0.4-0.2,0.7-0.2,1.1C200.6,436.5,205.7,439.2,212.1,439.2z"/>
	</g>
	<g>
		<ellipse class="st2" cx="258.4" cy="391.5" rx="11.2" ry="5.8"/>
		<g>
			<linearGradient id="SVGID_19_" gradientUnits="userSpaceOnUse" x1="246.8926" y1="397.4084" x2="269.878" y2="397.4084">
				<stop  offset="0" style="stop-color:#F46000"/>
				<stop  offset="1" style="stop-color:#FFFF33"/>
			</linearGradient>
			<path class="st21" d="M258.4,401c6.3,0,11.5-2.7,11.5-6c0-0.4-0.1-0.8-0.2-1.1c-1,2.8-5.7,4.8-11.3,4.8c-5.6,0-10.3-2.1-11.3-4.8
				c-0.1,0.4-0.2,0.7-0.2,1.1C246.9,398.3,252,401,258.4,401z"/>
			<linearGradient id="SVGID_20_" gradientUnits="userSpaceOnUse" x1="246.8926" y1="400.718" x2="269.878" y2="400.718">
				<stop  offset="0" style="stop-color:#F46000"/>
				<stop  offset="1" style="stop-color:#FFFF33"/>
			</linearGradient>
			<path class="st22" d="M258.4,404.3c6.3,0,11.5-2.7,11.5-6c0-0.4-0.1-0.8-0.2-1.1c-1,2.8-5.7,4.8-11.3,4.8
				c-5.6,0-10.3-2.1-11.3-4.8c-0.1,0.4-0.2,0.7-0.2,1.1C246.9,401.6,252,404.3,258.4,404.3z"/>
			<linearGradient id="SVGID_21_" gradientUnits="userSpaceOnUse" x1="246.7666" y1="404.2675" x2="269.7519" y2="404.2675">
				<stop  offset="0" style="stop-color:#F46000"/>
				<stop  offset="1" style="stop-color:#FFFF33"/>
			</linearGradient>
			<path class="st23" d="M258.3,407.8c6.3,0,11.5-2.7,11.5-6c0-0.4-0.1-0.8-0.2-1.1c-1,2.8-5.7,4.8-11.3,4.8
				c-5.6,0-10.3-2.1-11.3-4.8c-0.1,0.4-0.2,0.7-0.2,1.1C246.8,405.1,251.9,407.8,258.3,407.8z"/>
			<linearGradient id="SVGID_22_" gradientUnits="userSpaceOnUse" x1="246.7666" y1="408.0715" x2="269.7519" y2="408.0715">
				<stop  offset="0" style="stop-color:#F46000"/>
				<stop  offset="1" style="stop-color:#FFFF33"/>
			</linearGradient>
			<path class="st24" d="M258.3,411.6c6.3,0,11.5-2.7,11.5-6c0-0.4-0.1-0.8-0.2-1.1c-1,2.8-5.7,4.8-11.3,4.8
				c-5.6,0-10.3-2.1-11.3-4.8c-0.1,0.4-0.2,0.7-0.2,1.1C246.8,408.9,251.9,411.6,258.3,411.6z"/>
			<linearGradient id="SVGID_23_" gradientUnits="userSpaceOnUse" x1="246.7666" y1="411.8329" x2="269.7519" y2="411.8329">
				<stop  offset="0" style="stop-color:#F46000"/>
				<stop  offset="1" style="stop-color:#FFFF33"/>
			</linearGradient>
			<path class="st25" d="M258.3,415.4c6.3,0,11.5-2.7,11.5-6c0-0.4-0.1-0.8-0.2-1.1c-1,2.8-5.7,4.8-11.3,4.8
				c-5.6,0-10.3-2.1-11.3-4.8c-0.1,0.4-0.2,0.7-0.2,1.1C246.8,412.7,251.9,415.4,258.3,415.4z"/>
			<linearGradient id="SVGID_24_" gradientUnits="userSpaceOnUse" x1="246.7666" y1="415.879" x2="269.7519" y2="415.879">
				<stop  offset="0" style="stop-color:#F46000"/>
				<stop  offset="1" style="stop-color:#FFFF33"/>
			</linearGradient>
			<path class="st26" d="M258.3,419.4c6.3,0,11.5-2.7,11.5-6c0-0.4-0.1-0.8-0.2-1.1c-1,2.8-5.7,4.8-11.3,4.8
				c-5.6,0-10.3-2.1-11.3-4.8c-0.1,0.4-0.2,0.7-0.2,1.1C246.8,416.8,251.9,419.4,258.3,419.4z"/>
			<linearGradient id="SVGID_25_" gradientUnits="userSpaceOnUse" x1="246.7666" y1="419.4284" x2="269.7519" y2="419.4284">
				<stop  offset="0" style="stop-color:#F46000"/>
				<stop  offset="1" style="stop-color:#FFFF33"/>
			</linearGradient>
			<path class="st27" d="M258.3,423c6.3,0,11.5-2.7,11.5-6c0-0.4-0.1-0.8-0.2-1.1c-1,2.8-5.7,4.8-11.3,4.8c-5.6,0-10.3-2.1-11.3-4.8
				c-0.1,0.4-0.2,0.7-0.2,1.1C246.8,420.3,251.9,423,258.3,423z"/>
			<linearGradient id="SVGID_26_" gradientUnits="userSpaceOnUse" x1="246.7666" y1="423.3579" x2="269.7519" y2="423.3579">
				<stop  offset="0" style="stop-color:#F46000"/>
				<stop  offset="1" style="stop-color:#FFFF33"/>
			</linearGradient>
			<path class="st28" d="M258.3,426.9c6.3,0,11.5-2.7,11.5-6c0-0.4-0.1-0.8-0.2-1.1c-1,2.8-5.7,4.8-11.3,4.8
				c-5.6,0-10.3-2.1-11.3-4.8c-0.1,0.4-0.2,0.7-0.2,1.1C246.8,424.2,251.9,426.9,258.3,426.9z"/>
			<linearGradient id="SVGID_27_" gradientUnits="userSpaceOnUse" x1="247.0215" y1="427.3168" x2="269.6762" y2="427.3168">
				<stop  offset="0" style="stop-color:#F46000"/>
				<stop  offset="1" style="stop-color:#FFFF33"/>
			</linearGradient>
			<path class="st29" d="M258.3,428.6c-5.5,0-10.1-2.1-11.1-4.8c-0.1,0.4-0.2,0.7-0.2,1.1c0,3.3,5.1,5.9,11.3,5.9
				c6.2,0,11.3-2.7,11.3-5.9c0-0.4-0.1-0.8-0.2-1.1C268.4,426.5,263.9,428.6,258.3,428.6z"/>
			<linearGradient id="SVGID_28_" gradientUnits="userSpaceOnUse" x1="246.7666" y1="431.1454" x2="269.8911" y2="431.1454">
				<stop  offset="0" style="stop-color:#F46000"/>
				<stop  offset="1" style="stop-color:#FFFF33"/>
			</linearGradient>
			<path class="st30" d="M269.7,427.6c-1.1,2.7-5.7,4.8-11.4,4.8c-5.6,0-10.3-2.1-11.4-4.8c-0.1,0.4-0.2,0.7-0.2,1.1
				c0,3.3,5.2,5.9,11.6,5.9c6.4,0,11.6-2.7,11.6-5.9C269.9,428.4,269.8,428,269.7,427.6z"/>
		</g>
		<linearGradient id="SVGID_29_" gradientUnits="userSpaceOnUse" x1="246.9491" y1="435.1646" x2="269.9344" y2="435.1646">
			<stop  offset="0" style="stop-color:#F46000"/>
			<stop  offset="1" style="stop-color:#FFFF33"/>
		</linearGradient>
		<path class="st31" d="M258.4,438.7c6.3,0,11.5-2.7,11.5-6c0-0.4-0.1-0.8-0.2-1.1c-1,2.8-5.7,4.8-11.3,4.8
			c-5.6,0-10.3-2.1-11.3-4.8c-0.1,0.4-0.2,0.7-0.2,1.1C246.9,436,252.1,438.7,258.4,438.7z"/>
		<linearGradient id="SVGID_30_" gradientUnits="userSpaceOnUse" x1="246.9491" y1="438.4743" x2="269.9344" y2="438.4743">
			<stop  offset="0" style="stop-color:#F46000"/>
			<stop  offset="1" style="stop-color:#FFFF33"/>
		</linearGradient>
		<path class="st32" d="M258.4,442c6.3,0,11.5-2.7,11.5-6c0-0.4-0.1-0.8-0.2-1.1c-1,2.8-5.7,4.8-11.3,4.8c-5.6,0-10.3-2.1-11.3-4.8
			c-0.1,0.4-0.2,0.7-0.2,1.1C246.9,439.3,252.1,442,258.4,442z"/>
		<linearGradient id="SVGID_31_" gradientUnits="userSpaceOnUse" x1="246.823" y1="442.0237" x2="269.8083" y2="442.0237">
			<stop  offset="0" style="stop-color:#F46000"/>
			<stop  offset="1" style="stop-color:#FFFF33"/>
		</linearGradient>
		<path class="st33" d="M258.3,445.6c6.3,0,11.5-2.7,11.5-6c0-0.4-0.1-0.8-0.2-1.1c-1,2.8-5.7,4.8-11.3,4.8
			c-5.6,0-10.3-2.1-11.3-4.8c-0.1,0.4-0.2,0.7-0.2,1.1C246.8,442.9,252,445.6,258.3,445.6z"/>
		<linearGradient id="SVGID_32_" gradientUnits="userSpaceOnUse" x1="246.823" y1="445.8277" x2="269.8083" y2="445.8277">
			<stop  offset="0" style="stop-color:#F46000"/>
			<stop  offset="1" style="stop-color:#FFFF33"/>
		</linearGradient>
		<path class="st34" d="M258.3,449.4c6.3,0,11.5-2.7,11.5-6c0-0.4-0.1-0.8-0.2-1.1c-1,2.8-5.7,4.8-11.3,4.8
			c-5.6,0-10.3-2.1-11.3-4.8c-0.1,0.4-0.2,0.7-0.2,1.1C246.8,446.7,252,449.4,258.3,449.4z"/>
		<linearGradient id="SVGID_33_" gradientUnits="userSpaceOnUse" x1="246.823" y1="449.5891" x2="269.8083" y2="449.5891">
			<stop  offset="0" style="stop-color:#F46000"/>
			<stop  offset="1" style="stop-color:#FFFF33"/>
		</linearGradient>
		<path class="st35" d="M258.3,453.1c6.3,0,11.5-2.7,11.5-6c0-0.4-0.1-0.8-0.2-1.1c-1,2.8-5.7,4.8-11.3,4.8
			c-5.6,0-10.3-2.1-11.3-4.8c-0.1,0.4-0.2,0.7-0.2,1.1C246.8,450.5,252,453.1,258.3,453.1z"/>
	</g>
	<g>
		<ellipse class="st2" cx="308.4" cy="376.8" rx="11.2" ry="5.8"/>
		<linearGradient id="SVGID_34_" gradientUnits="userSpaceOnUse" x1="296.9578" y1="382.7073" x2="319.9431" y2="382.7073">
			<stop  offset="0" style="stop-color:#F46000"/>
			<stop  offset="1" style="stop-color:#FFFF33"/>
		</linearGradient>
		<path class="st36" d="M308.5,386.3c6.3,0,11.5-2.7,11.5-6c0-0.4-0.1-0.8-0.2-1.1c-1,2.8-5.7,4.8-11.3,4.8
			c-5.6,0-10.3-2.1-11.3-4.8c-0.1,0.4-0.2,0.7-0.2,1.1C297,383.6,302.1,386.3,308.5,386.3z"/>
		<linearGradient id="SVGID_35_" gradientUnits="userSpaceOnUse" x1="296.9578" y1="386.017" x2="319.9431" y2="386.017">
			<stop  offset="0" style="stop-color:#F46000"/>
			<stop  offset="1" style="stop-color:#FFFF33"/>
		</linearGradient>
		<path class="st37" d="M308.5,389.6c6.3,0,11.5-2.7,11.5-6c0-0.4-0.1-0.8-0.2-1.1c-1,2.8-5.7,4.8-11.3,4.8
			c-5.6,0-10.3-2.1-11.3-4.8c-0.1,0.4-0.2,0.7-0.2,1.1C297,386.9,302.1,389.6,308.5,389.6z"/>
		<linearGradient id="SVGID_36_" gradientUnits="userSpaceOnUse" x1="296.8317" y1="389.5664" x2="319.817" y2="389.5664">
			<stop  offset="0" style="stop-color:#F46000"/>
			<stop  offset="1" style="stop-color:#FFFF33"/>
		</linearGradient>
		<path class="st38" d="M308.3,393.1c6.3,0,11.5-2.7,11.5-6c0-0.4-0.1-0.8-0.2-1.1c-1,2.8-5.7,4.8-11.3,4.8
			c-5.6,0-10.3-2.1-11.3-4.8c-0.1,0.4-0.2,0.7-0.2,1.1C296.8,390.4,302,393.1,308.3,393.1z"/>
		<linearGradient id="SVGID_37_" gradientUnits="userSpaceOnUse" x1="296.8317" y1="393.3705" x2="319.817" y2="393.3705">
			<stop  offset="0" style="stop-color:#F46000"/>
			<stop  offset="1" style="stop-color:#FFFF33"/>
		</linearGradient>
		<path class="st39" d="M308.3,396.9c6.3,0,11.5-2.7,11.5-6c0-0.4-0.1-0.8-0.2-1.1c-1,2.8-5.7,4.8-11.3,4.8
			c-5.6,0-10.3-2.1-11.3-4.8c-0.1,0.4-0.2,0.7-0.2,1.1C296.8,394.2,302,396.9,308.3,396.9z"/>
		<linearGradient id="SVGID_38_" gradientUnits="userSpaceOnUse" x1="296.8317" y1="397.1318" x2="319.817" y2="397.1318">
			<stop  offset="0" style="stop-color:#F46000"/>
			<stop  offset="1" style="stop-color:#FFFF33"/>
		</linearGradient>
		<path class="st40" d="M308.3,400.7c6.3,0,11.5-2.7,11.5-6c0-0.4-0.1-0.8-0.2-1.1c-1,2.8-5.7,4.8-11.3,4.8
			c-5.6,0-10.3-2.1-11.3-4.8c-0.1,0.4-0.2,0.7-0.2,1.1C296.8,398,302,400.7,308.3,400.7z"/>
		<linearGradient id="SVGID_39_" gradientUnits="userSpaceOnUse" x1="296.8317" y1="401.178" x2="319.817" y2="401.178">
			<stop  offset="0" style="stop-color:#F46000"/>
			<stop  offset="1" style="stop-color:#FFFF33"/>
		</linearGradient>
		<path class="st41" d="M308.3,404.7c6.3,0,11.5-2.7,11.5-6c0-0.4-0.1-0.8-0.2-1.1c-1,2.8-5.7,4.8-11.3,4.8
			c-5.6,0-10.3-2.1-11.3-4.8c-0.1,0.4-0.2,0.7-0.2,1.1C296.8,402.1,302,404.7,308.3,404.7z"/>
		<linearGradient id="SVGID_40_" gradientUnits="userSpaceOnUse" x1="296.8317" y1="404.7274" x2="319.817" y2="404.7274">
			<stop  offset="0" style="stop-color:#F46000"/>
			<stop  offset="1" style="stop-color:#FFFF33"/>
		</linearGradient>
		<path class="st42" d="M308.3,408.3c6.3,0,11.5-2.7,11.5-6c0-0.4-0.1-0.8-0.2-1.1c-1,2.8-5.7,4.8-11.3,4.8
			c-5.6,0-10.3-2.1-11.3-4.8c-0.1,0.4-0.2,0.7-0.2,1.1C296.8,405.6,302,408.3,308.3,408.3z"/>
		<linearGradient id="SVGID_41_" gradientUnits="userSpaceOnUse" x1="296.8317" y1="408.6569" x2="319.817" y2="408.6569">
			<stop  offset="0" style="stop-color:#F46000"/>
			<stop  offset="1" style="stop-color:#FFFF33"/>
		</linearGradient>
		<path class="st43" d="M308.3,412.2c6.3,0,11.5-2.7,11.5-6c0-0.4-0.1-0.8-0.2-1.1c-1,2.8-5.7,4.8-11.3,4.8
			c-5.6,0-10.3-2.1-11.3-4.8c-0.1,0.4-0.2,0.7-0.2,1.1C296.8,409.5,302,412.2,308.3,412.2z"/>
		<linearGradient id="SVGID_42_" gradientUnits="userSpaceOnUse" x1="297.0866" y1="412.6158" x2="319.7414" y2="412.6158">
			<stop  offset="0" style="stop-color:#F46000"/>
			<stop  offset="1" style="stop-color:#FFFF33"/>
		</linearGradient>
		<path class="st44" d="M308.4,413.9c-5.5,0-10.1-2.1-11.1-4.8c-0.1,0.4-0.2,0.7-0.2,1.1c0,3.3,5.1,5.9,11.3,5.9
			c6.2,0,11.3-2.7,11.3-5.9c0-0.4-0.1-0.8-0.2-1.1C318.5,411.8,313.9,413.9,308.4,413.9z"/>
		<linearGradient id="SVGID_43_" gradientUnits="userSpaceOnUse" x1="296.8317" y1="416.4445" x2="319.9563" y2="416.4445">
			<stop  offset="0" style="stop-color:#F46000"/>
			<stop  offset="1" style="stop-color:#FFFF33"/>
		</linearGradient>
		<path class="st45" d="M319.8,412.9c-1.1,2.7-5.7,4.8-11.4,4.8c-5.6,0-10.3-2.1-11.4-4.8c-0.1,0.4-0.2,0.7-0.2,1.1
			c0,3.3,5.2,5.9,11.6,5.9c6.4,0,11.6-2.7,11.6-5.9C320,413.7,319.9,413.3,319.8,412.9z"/>
		<linearGradient id="SVGID_44_" gradientUnits="userSpaceOnUse" x1="296.8317" y1="419.8673" x2="319.817" y2="419.8673">
			<stop  offset="0" style="stop-color:#F46000"/>
			<stop  offset="1" style="stop-color:#FFFF33"/>
		</linearGradient>
		<path class="st46" d="M308.3,423.4c6.3,0,11.5-2.7,11.5-6c0-0.4-0.1-0.8-0.2-1.1c-1,2.8-5.7,4.8-11.3,4.8
			c-5.6,0-10.3-2.1-11.3-4.8c-0.1,0.4-0.2,0.7-0.2,1.1C296.8,420.7,302,423.4,308.3,423.4z"/>
		<linearGradient id="SVGID_45_" gradientUnits="userSpaceOnUse" x1="296.8317" y1="423.4167" x2="319.817" y2="423.4167">
			<stop  offset="0" style="stop-color:#F46000"/>
			<stop  offset="1" style="stop-color:#FFFF33"/>
		</linearGradient>
		<path class="st47" d="M308.3,427c6.3,0,11.5-2.7,11.5-6c0-0.4-0.1-0.8-0.2-1.1c-1,2.8-5.7,4.8-11.3,4.8c-5.6,0-10.3-2.1-11.3-4.8
			c-0.1,0.4-0.2,0.7-0.2,1.1C296.8,424.3,302,427,308.3,427z"/>
		<linearGradient id="SVGID_46_" gradientUnits="userSpaceOnUse" x1="296.8317" y1="427.3462" x2="319.817" y2="427.3462">
			<stop  offset="0" style="stop-color:#F46000"/>
			<stop  offset="1" style="stop-color:#FFFF33"/>
		</linearGradient>
		<path class="st48" d="M308.3,430.9c6.3,0,11.5-2.7,11.5-6c0-0.4-0.1-0.8-0.2-1.1c-1,2.8-5.7,4.8-11.3,4.8
			c-5.6,0-10.3-2.1-11.3-4.8c-0.1,0.4-0.2,0.7-0.2,1.1C296.8,428.2,302,430.9,308.3,430.9z"/>
		<linearGradient id="SVGID_47_" gradientUnits="userSpaceOnUse" x1="297.0866" y1="431.3051" x2="319.7414" y2="431.3051">
			<stop  offset="0" style="stop-color:#F46000"/>
			<stop  offset="1" style="stop-color:#FFFF33"/>
		</linearGradient>
		<path class="st49" d="M308.4,432.6c-5.5,0-10.1-2.1-11.1-4.8c-0.1,0.4-0.2,0.7-0.2,1.1c0,3.3,5.1,5.9,11.3,5.9
			c6.2,0,11.3-2.7,11.3-5.9c0-0.4-0.1-0.8-0.2-1.1C318.5,430.5,313.9,432.6,308.4,432.6z"/>
		<linearGradient id="SVGID_48_" gradientUnits="userSpaceOnUse" x1="296.8317" y1="435.1337" x2="319.9563" y2="435.1337">
			<stop  offset="0" style="stop-color:#F46000"/>
			<stop  offset="1" style="stop-color:#FFFF33"/>
		</linearGradient>
		<path class="st50" d="M319.8,431.6c-1.1,2.7-5.7,4.8-11.4,4.8c-5.6,0-10.3-2.1-11.4-4.8c-0.1,0.4-0.2,0.7-0.2,1.1
			c0,3.3,5.2,5.9,11.6,5.9c6.4,0,11.6-2.7,11.6-5.9C320,432.3,319.9,432,319.8,431.6z"/>
		<linearGradient id="SVGID_49_" gradientUnits="userSpaceOnUse" x1="297.0866" y1="439.2176" x2="319.7414" y2="439.2176">
			<stop  offset="0" style="stop-color:#F46000"/>
			<stop  offset="1" style="stop-color:#FFFF33"/>
		</linearGradient>
		<path class="st51" d="M308.4,440.5c-5.5,0-10.1-2.1-11.1-4.8c-0.1,0.4-0.2,0.7-0.2,1.1c0,3.3,5.1,5.9,11.3,5.9
			c6.2,0,11.3-2.7,11.3-5.9c0-0.4-0.1-0.8-0.2-1.1C318.5,438.4,313.9,440.5,308.4,440.5z"/>
		<linearGradient id="SVGID_50_" gradientUnits="userSpaceOnUse" x1="296.8317" y1="443.0463" x2="319.9563" y2="443.0463">
			<stop  offset="0" style="stop-color:#F46000"/>
			<stop  offset="1" style="stop-color:#FFFF33"/>
		</linearGradient>
		<path class="st52" d="M319.8,439.5c-1.1,2.7-5.7,4.8-11.4,4.8c-5.6,0-10.3-2.1-11.4-4.8c-0.1,0.4-0.2,0.7-0.2,1.1
			c0,3.3,5.2,5.9,11.6,5.9c6.4,0,11.6-2.7,11.6-5.9C320,440.3,319.9,439.9,319.8,439.5z"/>
		<linearGradient id="SVGID_51_" gradientUnits="userSpaceOnUse" x1="296.8317" y1="446.4691" x2="319.817" y2="446.4691">
			<stop  offset="0" style="stop-color:#F46000"/>
			<stop  offset="1" style="stop-color:#FFFF33"/>
		</linearGradient>
		<path class="st53" d="M308.3,450c6.3,0,11.5-2.7,11.5-6c0-0.4-0.1-0.8-0.2-1.1c-1,2.8-5.7,4.8-11.3,4.8c-5.6,0-10.3-2.1-11.3-4.8
			c-0.1,0.4-0.2,0.7-0.2,1.1C296.8,447.3,302,450,308.3,450z"/>
		<linearGradient id="SVGID_52_" gradientUnits="userSpaceOnUse" x1="296.8317" y1="450.0186" x2="319.817" y2="450.0186">
			<stop  offset="0" style="stop-color:#F46000"/>
			<stop  offset="1" style="stop-color:#FFFF33"/>
		</linearGradient>
		<path class="st54" d="M308.3,453.6c6.3,0,11.5-2.7,11.5-6c0-0.4-0.1-0.8-0.2-1.1c-1,2.8-5.7,4.8-11.3,4.8
			c-5.6,0-10.3-2.1-11.3-4.8c-0.1,0.4-0.2,0.7-0.2,1.1C296.8,450.9,302,453.6,308.3,453.6z"/>
	</g>
	<g>
		<ellipse class="st2" cx="358.1" cy="360" rx="11.2" ry="5.8"/>
		<g>
			<linearGradient id="SVGID_53_" gradientUnits="userSpaceOnUse" x1="346.5802" y1="365.9589" x2="369.5655" y2="365.9589">
				<stop  offset="0" style="stop-color:#F46000"/>
				<stop  offset="1" style="stop-color:#FFFF33"/>
			</linearGradient>
			<path class="st55" d="M358.1,369.5c6.3,0,11.5-2.7,11.5-6c0-0.4-0.1-0.8-0.2-1.1c-1,2.8-5.7,4.8-11.3,4.8
				c-5.6,0-10.3-2.1-11.3-4.8c-0.1,0.4-0.2,0.7-0.2,1.1C346.6,366.8,351.7,369.5,358.1,369.5z"/>
			<linearGradient id="SVGID_54_" gradientUnits="userSpaceOnUse" x1="346.5802" y1="369.2686" x2="369.5655" y2="369.2686">
				<stop  offset="0" style="stop-color:#F46000"/>
				<stop  offset="1" style="stop-color:#FFFF33"/>
			</linearGradient>
			<path class="st56" d="M358.1,372.8c6.3,0,11.5-2.7,11.5-6c0-0.4-0.1-0.8-0.2-1.1c-1,2.8-5.7,4.8-11.3,4.8
				c-5.6,0-10.3-2.1-11.3-4.8c-0.1,0.4-0.2,0.7-0.2,1.1C346.6,370.1,351.7,372.8,358.1,372.8z"/>
			<linearGradient id="SVGID_55_" gradientUnits="userSpaceOnUse" x1="346.4541" y1="372.818" x2="369.4395" y2="372.818">
				<stop  offset="0" style="stop-color:#F46000"/>
				<stop  offset="1" style="stop-color:#FFFF33"/>
			</linearGradient>
			<path class="st57" d="M357.9,376.4c6.3,0,11.5-2.7,11.5-6c0-0.4-0.1-0.8-0.2-1.1c-1,2.8-5.7,4.8-11.3,4.8
				c-5.6,0-10.3-2.1-11.3-4.8c-0.1,0.4-0.2,0.7-0.2,1.1C346.5,373.7,351.6,376.4,357.9,376.4z"/>
			<linearGradient id="SVGID_56_" gradientUnits="userSpaceOnUse" x1="346.4541" y1="376.622" x2="369.4395" y2="376.622">
				<stop  offset="0" style="stop-color:#F46000"/>
				<stop  offset="1" style="stop-color:#FFFF33"/>
			</linearGradient>
			<path class="st58" d="M357.9,380.2c6.3,0,11.5-2.7,11.5-6c0-0.4-0.1-0.8-0.2-1.1c-1,2.8-5.7,4.8-11.3,4.8
				c-5.6,0-10.3-2.1-11.3-4.8c-0.1,0.4-0.2,0.7-0.2,1.1C346.5,377.5,351.6,380.2,357.9,380.2z"/>
			<linearGradient id="SVGID_57_" gradientUnits="userSpaceOnUse" x1="346.4541" y1="380.3834" x2="369.4395" y2="380.3834">
				<stop  offset="0" style="stop-color:#F46000"/>
				<stop  offset="1" style="stop-color:#FFFF33"/>
			</linearGradient>
			<path class="st59" d="M357.9,383.9c6.3,0,11.5-2.7,11.5-6c0-0.4-0.1-0.8-0.2-1.1c-1,2.8-5.7,4.8-11.3,4.8
				c-5.6,0-10.3-2.1-11.3-4.8c-0.1,0.4-0.2,0.7-0.2,1.1C346.5,381.3,351.6,383.9,357.9,383.9z"/>
			<linearGradient id="SVGID_58_" gradientUnits="userSpaceOnUse" x1="346.4541" y1="384.4296" x2="369.4395" y2="384.4296">
				<stop  offset="0" style="stop-color:#F46000"/>
				<stop  offset="1" style="stop-color:#FFFF33"/>
			</linearGradient>
			<path class="st60" d="M357.9,388c6.3,0,11.5-2.7,11.5-6c0-0.4-0.1-0.8-0.2-1.1c-1,2.8-5.7,4.8-11.3,4.8c-5.6,0-10.3-2.1-11.3-4.8
				c-0.1,0.4-0.2,0.7-0.2,1.1C346.5,385.3,351.6,388,357.9,388z"/>
			<linearGradient id="SVGID_59_" gradientUnits="userSpaceOnUse" x1="346.4541" y1="387.9789" x2="369.4395" y2="387.9789">
				<stop  offset="0" style="stop-color:#F46000"/>
				<stop  offset="1" style="stop-color:#FFFF33"/>
			</linearGradient>
			<path class="st61" d="M357.9,391.5c6.3,0,11.5-2.7,11.5-6c0-0.4-0.1-0.8-0.2-1.1c-1,2.8-5.7,4.8-11.3,4.8
				c-5.6,0-10.3-2.1-11.3-4.8c-0.1,0.4-0.2,0.7-0.2,1.1C346.5,388.9,351.6,391.5,357.9,391.5z"/>
			<linearGradient id="SVGID_60_" gradientUnits="userSpaceOnUse" x1="346.4541" y1="391.9084" x2="369.4395" y2="391.9084">
				<stop  offset="0" style="stop-color:#F46000"/>
				<stop  offset="1" style="stop-color:#FFFF33"/>
			</linearGradient>
			<path class="st62" d="M357.9,395.5c6.3,0,11.5-2.7,11.5-6c0-0.4-0.1-0.8-0.2-1.1c-1,2.8-5.7,4.8-11.3,4.8
				c-5.6,0-10.3-2.1-11.3-4.8c-0.1,0.4-0.2,0.7-0.2,1.1C346.5,392.8,351.6,395.5,357.9,395.5z"/>
			<linearGradient id="SVGID_61_" gradientUnits="userSpaceOnUse" x1="346.709" y1="395.8673" x2="369.3638" y2="395.8673">
				<stop  offset="0" style="stop-color:#F46000"/>
				<stop  offset="1" style="stop-color:#FFFF33"/>
			</linearGradient>
			<path class="st63" d="M358,397.1c-5.5,0-10.1-2.1-11.1-4.8c-0.1,0.4-0.2,0.7-0.2,1.1c0,3.3,5.1,5.9,11.3,5.9
				c6.2,0,11.3-2.7,11.3-5.9c0-0.4-0.1-0.8-0.2-1.1C368.1,395.1,363.5,397.1,358,397.1z"/>
			<linearGradient id="SVGID_62_" gradientUnits="userSpaceOnUse" x1="346.4541" y1="399.696" x2="369.5787" y2="399.696">
				<stop  offset="0" style="stop-color:#F46000"/>
				<stop  offset="1" style="stop-color:#FFFF33"/>
			</linearGradient>
			<path class="st64" d="M369.4,396.2c-1.1,2.7-5.7,4.8-11.4,4.8c-5.6,0-10.3-2.1-11.4-4.8c-0.1,0.4-0.2,0.7-0.2,1.1
				c0,3.3,5.2,5.9,11.6,5.9c6.4,0,11.6-2.7,11.6-5.9C369.6,396.9,369.5,396.5,369.4,396.2z"/>
		</g>
		<linearGradient id="SVGID_63_" gradientUnits="userSpaceOnUse" x1="346.5802" y1="403.6307" x2="369.5655" y2="403.6307">
			<stop  offset="0" style="stop-color:#F46000"/>
			<stop  offset="1" style="stop-color:#FFFF33"/>
		</linearGradient>
		<path class="st65" d="M358.1,407.2c6.3,0,11.5-2.7,11.5-6c0-0.4-0.1-0.8-0.2-1.1c-1,2.8-5.7,4.8-11.3,4.8
			c-5.6,0-10.3-2.1-11.3-4.8c-0.1,0.4-0.2,0.7-0.2,1.1C346.6,404.5,351.7,407.2,358.1,407.2z"/>
		<linearGradient id="SVGID_64_" gradientUnits="userSpaceOnUse" x1="346.5802" y1="406.9404" x2="369.5655" y2="406.9404">
			<stop  offset="0" style="stop-color:#F46000"/>
			<stop  offset="1" style="stop-color:#FFFF33"/>
		</linearGradient>
		<path class="st66" d="M358.1,410.5c6.3,0,11.5-2.7,11.5-6c0-0.4-0.1-0.8-0.2-1.1c-1,2.8-5.7,4.8-11.3,4.8
			c-5.6,0-10.3-2.1-11.3-4.8c-0.1,0.4-0.2,0.7-0.2,1.1C346.6,407.8,351.7,410.5,358.1,410.5z"/>
		<linearGradient id="SVGID_65_" gradientUnits="userSpaceOnUse" x1="346.4541" y1="410.4897" x2="369.4395" y2="410.4897">
			<stop  offset="0" style="stop-color:#F46000"/>
			<stop  offset="1" style="stop-color:#FFFF33"/>
		</linearGradient>
		<path class="st67" d="M357.9,414c6.3,0,11.5-2.7,11.5-6c0-0.4-0.1-0.8-0.2-1.1c-1,2.8-5.7,4.8-11.3,4.8c-5.6,0-10.3-2.1-11.3-4.8
			c-0.1,0.4-0.2,0.7-0.2,1.1C346.5,411.4,351.6,414,357.9,414z"/>
		<linearGradient id="SVGID_66_" gradientUnits="userSpaceOnUse" x1="346.4541" y1="414.2938" x2="369.4395" y2="414.2938">
			<stop  offset="0" style="stop-color:#F46000"/>
			<stop  offset="1" style="stop-color:#FFFF33"/>
		</linearGradient>
		<path class="st68" d="M357.9,417.8c6.3,0,11.5-2.7,11.5-6c0-0.4-0.1-0.8-0.2-1.1c-1,2.8-5.7,4.8-11.3,4.8
			c-5.6,0-10.3-2.1-11.3-4.8c-0.1,0.4-0.2,0.7-0.2,1.1C346.5,415.2,351.6,417.8,357.9,417.8z"/>
		<linearGradient id="SVGID_67_" gradientUnits="userSpaceOnUse" x1="346.4541" y1="418.0552" x2="369.4395" y2="418.0552">
			<stop  offset="0" style="stop-color:#F46000"/>
			<stop  offset="1" style="stop-color:#FFFF33"/>
		</linearGradient>
		<path class="st69" d="M357.9,421.6c6.3,0,11.5-2.7,11.5-6c0-0.4-0.1-0.8-0.2-1.1c-1,2.8-5.7,4.8-11.3,4.8
			c-5.6,0-10.3-2.1-11.3-4.8c-0.1,0.4-0.2,0.7-0.2,1.1C346.5,418.9,351.6,421.6,357.9,421.6z"/>
		<linearGradient id="SVGID_68_" gradientUnits="userSpaceOnUse" x1="346.4541" y1="422.1013" x2="369.4395" y2="422.1013">
			<stop  offset="0" style="stop-color:#F46000"/>
			<stop  offset="1" style="stop-color:#FFFF33"/>
		</linearGradient>
		<path class="st70" d="M357.9,425.7c6.3,0,11.5-2.7,11.5-6c0-0.4-0.1-0.8-0.2-1.1c-1,2.8-5.7,4.8-11.3,4.8
			c-5.6,0-10.3-2.1-11.3-4.8c-0.1,0.4-0.2,0.7-0.2,1.1C346.5,423,351.6,425.7,357.9,425.7z"/>
		<linearGradient id="SVGID_69_" gradientUnits="userSpaceOnUse" x1="346.4541" y1="425.6507" x2="369.4395" y2="425.6507">
			<stop  offset="0" style="stop-color:#F46000"/>
			<stop  offset="1" style="stop-color:#FFFF33"/>
		</linearGradient>
		<path class="st71" d="M357.9,429.2c6.3,0,11.5-2.7,11.5-6c0-0.4-0.1-0.8-0.2-1.1c-1,2.8-5.7,4.8-11.3,4.8
			c-5.6,0-10.3-2.1-11.3-4.8c-0.1,0.4-0.2,0.7-0.2,1.1C346.5,426.5,351.6,429.2,357.9,429.2z"/>
		<linearGradient id="SVGID_70_" gradientUnits="userSpaceOnUse" x1="346.4541" y1="429.5802" x2="369.4395" y2="429.5802">
			<stop  offset="0" style="stop-color:#F46000"/>
			<stop  offset="1" style="stop-color:#FFFF33"/>
		</linearGradient>
		<path class="st72" d="M357.9,433.1c6.3,0,11.5-2.7,11.5-6c0-0.4-0.1-0.8-0.2-1.1c-1,2.8-5.7,4.8-11.3,4.8
			c-5.6,0-10.3-2.1-11.3-4.8c-0.1,0.4-0.2,0.7-0.2,1.1C346.5,430.5,351.6,433.1,357.9,433.1z"/>
	</g>
	<g>
		<ellipse class="st2" cx="407.1" cy="335.3" rx="11.2" ry="5.8"/>
		<linearGradient id="SVGID_71_" gradientUnits="userSpaceOnUse" x1="395.6412" y1="341.2808" x2="418.6265" y2="341.2808">
			<stop  offset="0" style="stop-color:#F46000"/>
			<stop  offset="1" style="stop-color:#FFFF33"/>
		</linearGradient>
		<path class="st73" d="M407.1,344.8c6.3,0,11.5-2.7,11.5-6c0-0.4-0.1-0.8-0.2-1.1c-1,2.8-5.7,4.8-11.3,4.8
			c-5.6,0-10.3-2.1-11.3-4.8c-0.1,0.4-0.2,0.7-0.2,1.1C395.6,342.2,400.8,344.8,407.1,344.8z"/>
		<linearGradient id="SVGID_72_" gradientUnits="userSpaceOnUse" x1="395.6412" y1="344.5905" x2="418.6265" y2="344.5905">
			<stop  offset="0" style="stop-color:#F46000"/>
			<stop  offset="1" style="stop-color:#FFFF33"/>
		</linearGradient>
		<path class="st74" d="M407.1,348.1c6.3,0,11.5-2.7,11.5-6c0-0.4-0.1-0.8-0.2-1.1c-1,2.8-5.7,4.8-11.3,4.8
			c-5.6,0-10.3-2.1-11.3-4.8c-0.1,0.4-0.2,0.7-0.2,1.1C395.6,345.5,400.8,348.1,407.1,348.1z"/>
		<linearGradient id="SVGID_73_" gradientUnits="userSpaceOnUse" x1="395.5151" y1="348.1399" x2="418.5005" y2="348.1399">
			<stop  offset="0" style="stop-color:#F46000"/>
			<stop  offset="1" style="stop-color:#FFFF33"/>
		</linearGradient>
		<path class="st75" d="M407,351.7c6.3,0,11.5-2.7,11.5-6c0-0.4-0.1-0.8-0.2-1.1c-1,2.8-5.7,4.8-11.3,4.8c-5.6,0-10.3-2.1-11.3-4.8
			c-0.1,0.4-0.2,0.7-0.2,1.1C395.5,349,400.7,351.7,407,351.7z"/>
		<linearGradient id="SVGID_74_" gradientUnits="userSpaceOnUse" x1="395.5151" y1="351.9439" x2="418.5005" y2="351.9439">
			<stop  offset="0" style="stop-color:#F46000"/>
			<stop  offset="1" style="stop-color:#FFFF33"/>
		</linearGradient>
		<path class="st76" d="M407,355.5c6.3,0,11.5-2.7,11.5-6c0-0.4-0.1-0.8-0.2-1.1c-1,2.8-5.7,4.8-11.3,4.8c-5.6,0-10.3-2.1-11.3-4.8
			c-0.1,0.4-0.2,0.7-0.2,1.1C395.5,352.8,400.7,355.5,407,355.5z"/>
		<linearGradient id="SVGID_75_" gradientUnits="userSpaceOnUse" x1="395.5151" y1="355.7053" x2="418.5005" y2="355.7053">
			<stop  offset="0" style="stop-color:#F46000"/>
			<stop  offset="1" style="stop-color:#FFFF33"/>
		</linearGradient>
		<path class="st77" d="M407,359.3c6.3,0,11.5-2.7,11.5-6c0-0.4-0.1-0.8-0.2-1.1c-1,2.8-5.7,4.8-11.3,4.8c-5.6,0-10.3-2.1-11.3-4.8
			c-0.1,0.4-0.2,0.7-0.2,1.1C395.5,356.6,400.7,359.3,407,359.3z"/>
		<linearGradient id="SVGID_76_" gradientUnits="userSpaceOnUse" x1="395.5151" y1="359.7515" x2="418.5005" y2="359.7515">
			<stop  offset="0" style="stop-color:#F46000"/>
			<stop  offset="1" style="stop-color:#FFFF33"/>
		</linearGradient>
		<path class="st78" d="M407,363.3c6.3,0,11.5-2.7,11.5-6c0-0.4-0.1-0.8-0.2-1.1c-1,2.8-5.7,4.8-11.3,4.8c-5.6,0-10.3-2.1-11.3-4.8
			c-0.1,0.4-0.2,0.7-0.2,1.1C395.5,360.6,400.7,363.3,407,363.3z"/>
		<linearGradient id="SVGID_77_" gradientUnits="userSpaceOnUse" x1="395.5151" y1="363.3008" x2="418.5005" y2="363.3008">
			<stop  offset="0" style="stop-color:#F46000"/>
			<stop  offset="1" style="stop-color:#FFFF33"/>
		</linearGradient>
		<path class="st79" d="M407,366.9c6.3,0,11.5-2.7,11.5-6c0-0.4-0.1-0.8-0.2-1.1c-1,2.8-5.7,4.8-11.3,4.8c-5.6,0-10.3-2.1-11.3-4.8
			c-0.1,0.4-0.2,0.7-0.2,1.1C395.5,364.2,400.7,366.9,407,366.9z"/>
		<linearGradient id="SVGID_78_" gradientUnits="userSpaceOnUse" x1="395.5151" y1="367.2303" x2="418.5005" y2="367.2303">
			<stop  offset="0" style="stop-color:#F46000"/>
			<stop  offset="1" style="stop-color:#FFFF33"/>
		</linearGradient>
		<path class="st80" d="M407,370.8c6.3,0,11.5-2.7,11.5-6c0-0.4-0.1-0.8-0.2-1.1c-1,2.8-5.7,4.8-11.3,4.8c-5.6,0-10.3-2.1-11.3-4.8
			c-0.1,0.4-0.2,0.7-0.2,1.1C395.5,368.1,400.7,370.8,407,370.8z"/>
		<linearGradient id="SVGID_79_" gradientUnits="userSpaceOnUse" x1="395.77" y1="371.1892" x2="418.4248" y2="371.1892">
			<stop  offset="0" style="stop-color:#F46000"/>
			<stop  offset="1" style="stop-color:#FFFF33"/>
		</linearGradient>
		<path class="st81" d="M407.1,372.5c-5.5,0-10.1-2.1-11.1-4.8c-0.1,0.4-0.2,0.7-0.2,1.1c0,3.3,5.1,5.9,11.3,5.9
			c6.2,0,11.3-2.7,11.3-5.9c0-0.4-0.1-0.8-0.2-1.1C417.2,370.4,412.6,372.5,407.1,372.5z"/>
		<linearGradient id="SVGID_80_" gradientUnits="userSpaceOnUse" x1="395.5151" y1="375.0179" x2="418.6397" y2="375.0179">
			<stop  offset="0" style="stop-color:#F46000"/>
			<stop  offset="1" style="stop-color:#FFFF33"/>
		</linearGradient>
		<path class="st82" d="M418.4,371.5c-1.1,2.7-5.7,4.8-11.4,4.8c-5.6,0-10.3-2.1-11.4-4.8c-0.1,0.4-0.2,0.7-0.2,1.1
			c0,3.3,5.2,5.9,11.6,5.9c6.4,0,11.6-2.7,11.6-5.9C418.6,372.2,418.6,371.8,418.4,371.5z"/>
		<linearGradient id="SVGID_81_" gradientUnits="userSpaceOnUse" x1="395.6412" y1="378.9525" x2="418.6265" y2="378.9525">
			<stop  offset="0" style="stop-color:#F46000"/>
			<stop  offset="1" style="stop-color:#FFFF33"/>
		</linearGradient>
		<path class="st83" d="M407.1,382.5c6.3,0,11.5-2.7,11.5-6c0-0.4-0.1-0.8-0.2-1.1c-1,2.8-5.7,4.8-11.3,4.8
			c-5.6,0-10.3-2.1-11.3-4.8c-0.1,0.4-0.2,0.7-0.2,1.1C395.6,379.8,400.8,382.5,407.1,382.5z"/>
		<linearGradient id="SVGID_82_" gradientUnits="userSpaceOnUse" x1="395.6412" y1="382.2622" x2="418.6265" y2="382.2622">
			<stop  offset="0" style="stop-color:#F46000"/>
			<stop  offset="1" style="stop-color:#FFFF33"/>
		</linearGradient>
		<path class="st84" d="M407.1,385.8c6.3,0,11.5-2.7,11.5-6c0-0.4-0.1-0.8-0.2-1.1c-1,2.8-5.7,4.8-11.3,4.8
			c-5.6,0-10.3-2.1-11.3-4.8c-0.1,0.4-0.2,0.7-0.2,1.1C395.6,383.1,400.8,385.8,407.1,385.8z"/>
		<linearGradient id="SVGID_83_" gradientUnits="userSpaceOnUse" x1="395.5151" y1="385.8116" x2="418.5005" y2="385.8116">
			<stop  offset="0" style="stop-color:#F46000"/>
			<stop  offset="1" style="stop-color:#FFFF33"/>
		</linearGradient>
		<path class="st85" d="M407,389.4c6.3,0,11.5-2.7,11.5-6c0-0.4-0.1-0.8-0.2-1.1c-1,2.8-5.7,4.8-11.3,4.8c-5.6,0-10.3-2.1-11.3-4.8
			c-0.1,0.4-0.2,0.7-0.2,1.1C395.5,386.7,400.7,389.4,407,389.4z"/>
		<linearGradient id="SVGID_84_" gradientUnits="userSpaceOnUse" x1="395.5151" y1="389.6157" x2="418.5005" y2="389.6157">
			<stop  offset="0" style="stop-color:#F46000"/>
			<stop  offset="1" style="stop-color:#FFFF33"/>
		</linearGradient>
		<path class="st86" d="M407,393.2c6.3,0,11.5-2.7,11.5-6c0-0.4-0.1-0.8-0.2-1.1c-1,2.8-5.7,4.8-11.3,4.8c-5.6,0-10.3-2.1-11.3-4.8
			c-0.1,0.4-0.2,0.7-0.2,1.1C395.5,390.5,400.7,393.2,407,393.2z"/>
		<linearGradient id="SVGID_85_" gradientUnits="userSpaceOnUse" x1="395.5151" y1="393.377" x2="418.5005" y2="393.377">
			<stop  offset="0" style="stop-color:#F46000"/>
			<stop  offset="1" style="stop-color:#FFFF33"/>
		</linearGradient>
		<path class="st87" d="M407,396.9c6.3,0,11.5-2.7,11.5-6c0-0.4-0.1-0.8-0.2-1.1c-1,2.8-5.7,4.8-11.3,4.8c-5.6,0-10.3-2.1-11.3-4.8
			c-0.1,0.4-0.2,0.7-0.2,1.1C395.5,394.3,400.7,396.9,407,396.9z"/>
		<linearGradient id="SVGID_86_" gradientUnits="userSpaceOnUse" x1="395.5151" y1="397.4232" x2="418.5005" y2="397.4232">
			<stop  offset="0" style="stop-color:#F46000"/>
			<stop  offset="1" style="stop-color:#FFFF33"/>
		</linearGradient>
		<path class="st88" d="M407,401c6.3,0,11.5-2.7,11.5-6c0-0.4-0.1-0.8-0.2-1.1c-1,2.8-5.7,4.8-11.3,4.8c-5.6,0-10.3-2.1-11.3-4.8
			c-0.1,0.4-0.2,0.7-0.2,1.1C395.5,398.3,400.7,401,407,401z"/>
		<linearGradient id="SVGID_87_" gradientUnits="userSpaceOnUse" x1="395.5151" y1="400.9726" x2="418.5005" y2="400.9726">
			<stop  offset="0" style="stop-color:#F46000"/>
			<stop  offset="1" style="stop-color:#FFFF33"/>
		</linearGradient>
		<path class="st89" d="M407,404.5c6.3,0,11.5-2.7,11.5-6c0-0.4-0.1-0.8-0.2-1.1c-1,2.8-5.7,4.8-11.3,4.8c-5.6,0-10.3-2.1-11.3-4.8
			c-0.1,0.4-0.2,0.7-0.2,1.1C395.5,401.8,400.7,404.5,407,404.5z"/>
	</g>
</g>
<linearGradient id="SVGID_88_" gradientUnits="userSpaceOnUse" x1="291.2456" y1="456.0462" x2="291.2456" y2="38.0259">
	<stop  offset="0" style="stop-color:#F46000"/>
	<stop  offset="1" style="stop-color:#FFFF33"/>
</linearGradient>
<path class="st90" d="M291.2,38c-115.4,0-209,93.6-209,209c0,115.4,93.6,209,209,209s209-93.6,209-209
	C500.3,131.6,406.7,38,291.2,38z M291.2,439.9c-106.5,0-192.8-86.3-192.8-192.8c0-106.5,86.4-192.8,192.8-192.8
	S484.1,140.5,484.1,247C484.1,353.5,397.7,439.9,291.2,439.9z"/>
<text transform="matrix(1 0 0 1 161.4448 287.2195)" class="st91 st92 st93">NipuntamYodyogah</text>
<g>
	<text transform="matrix(1 0 0 1 199.9482 315.4249)" class="st94 st92 st95">Berozgari Se Mukti</text>
</g>
<g>
	<g>
		<linearGradient id="SVGID_89_" gradientUnits="userSpaceOnUse" x1="448.588" y1="82.1407" x2="448.588" y2="70.1183">
			<stop  offset="0" style="stop-color:#F46000"/>
			<stop  offset="1" style="stop-color:#FFFF33"/>
		</linearGradient>
		<path class="st96" d="M447.4,82.1v-10h-3.6v-2h9.6v2h-3.6v10H447.4z"/>
		<linearGradient id="SVGID_90_" gradientUnits="userSpaceOnUse" x1="460.7057" y1="82.1407" x2="460.7057" y2="70.1183">
			<stop  offset="0" style="stop-color:#F46000"/>
			<stop  offset="1" style="stop-color:#FFFF33"/>
		</linearGradient>
		<path class="st97" d="M454.9,82.1v-12h3.6l2.2,8.2l2.2-8.2h3.6v12h-2.3v-9.5l-2.4,9.5h-2.3l-2.4-9.5v9.5H454.9z"/>
	</g>
</g>
</svg>
