<svg version="1.1" preserveAspectRatio="none" xmlns="http://www.w3.org/2000/svg" width="500" height="500" viewBox="0 0 500 500"><rect width="100%" height="100%" fill="#373737" fill-opacity="1"/><svg viewBox="441.4282 511.9881 454.8146 258" width="333" height="188.8989491542268" x="83.5px" y="155.5505px" xmlns="http://www.w3.org/2000/svg" xmlns:xlink="http://www.w3.org/1999/xlink" preserveAspectRatio="none"><defs></defs><style>.background {fill:#373737;fill-opacity:1;}.companyName {fill:#FF87B7;fill-opacity:1;}.icon3 {fill:#BCBCBC;fill-opacity:1;}.icon3-str {stroke:#BCBCBC;stroke-opacity:1;}.shapeStroke-str {stroke:#F5F5F5;stroke-opacity:1;}</style><g opacity="1" transform="rotate(0 441.4282 511.9881)">
<svg width="229.4073" height="258" x="441.4282" y="511.9881" version="1.1" preserveAspectRatio="none" viewBox="0 0 229.4073 258">
  <defs><rect x="0" y="0" width="229.4073" height="258" rx="0px" ry="0px" id="id-60p5ZquTE1705378425414"></rect></defs><use class="companyName shapeStroke-str" style="stroke-width:0;" xlink:href="#id-60p5ZquTE1705378425414"></use>
</svg>
</g><g opacity="1" transform="rotate(0 668.8355 511.9881)">
<svg width="227.4073" height="258" x="668.8355" y="511.9881" version="1.1" preserveAspectRatio="none" viewBox="0 0 227.4073 258">
  <defs><rect x="0" y="0" width="227.4073" height="258" rx="0px" ry="0px" id="id-hs7pIl34o1705378425414"></rect></defs><use class="icon3 shapeStroke-str" style="stroke-width:0;" xlink:href="#id-hs7pIl34o1705378425414"></use>
</svg>
</g><g opacity="1" transform="rotate(0 525.0388 693.9881)">
<svg width="287.5934" height="16" x="525.0388" y="693.9881" version="1.1" preserveAspectRatio="none" viewBox="0.8 -31.48 711.0400000000001 39.56">
  <g transform="matrix(1 0 0 1 0 0)" class="background"><path id="id-6izo4zJp24" d="M10.12 0.32Q7.44 0.32 4.88-0.34Q2.32-1 0.80-2L0.80-2L2.88-6.48Q4.32-5.56 6.36-4.98Q8.40-4.40 10.36-4.40L10.36-4.40Q14.32-4.40 14.32-6.36L14.32-6.36Q14.32-7.28 13.24-7.68Q12.16-8.08 9.92-8.36L9.92-8.36Q7.28-8.76 5.56-9.28Q3.84-9.80 2.58-11.12Q1.32-12.44 1.32-14.88L1.32-14.88Q1.32-16.92 2.50-18.50Q3.68-20.08 5.94-20.96Q8.20-21.84 11.28-21.84L11.28-21.84Q13.56-21.84 15.82-21.34Q18.08-20.84 19.56-19.96L19.56-19.96L17.48-15.52Q14.64-17.12 11.28-17.12L11.28-17.12Q9.28-17.12 8.28-16.56Q7.28-16 7.28-15.12L7.28-15.12Q7.28-14.12 8.36-13.72Q9.44-13.32 11.80-12.96L11.80-12.96Q14.44-12.52 16.12-12.02Q17.80-11.52 19.04-10.20Q20.28-8.88 20.28-6.52L20.28-6.52Q20.28-4.52 19.08-2.96Q17.88-1.40 15.58-0.54Q13.28 0.32 10.12 0.32L10.12 0.32Z M42.52 0.32Q39.08 0.32 36.34-1.10Q33.60-2.52 32.06-5.04Q30.52-7.56 30.52-10.76L30.52-10.76Q30.52-13.96 32.06-16.48Q33.60-19 36.34-20.42Q39.08-21.84 42.52-21.84L42.52-21.84Q45.92-21.84 48.46-20.42Q51-19 52.16-16.36L52.16-16.36L47.32-13.76Q45.64-16.72 42.48-16.72L42.48-16.72Q40.04-16.72 38.44-15.12Q36.84-13.52 36.84-10.76L36.84-10.76Q36.84-8 38.44-6.40Q40.04-4.80 42.48-4.80L42.48-4.80Q45.68-4.80 47.32-7.76L47.32-7.76L52.16-5.12Q51-2.56 48.46-1.12Q45.92 0.32 42.52 0.32L42.52 0.32Z M69.72-18.68Q70.84-20.24 72.74-21.04Q74.64-21.84 77.12-21.84L77.12-21.84L77.12-16.08Q76.08-16.16 75.72-16.16L75.72-16.16Q73.04-16.16 71.52-14.66Q70-13.16 70-10.16L70-10.16L70 0L63.76 0L63.76-21.52L69.72-21.52L69.72-18.68Z M88.84 0L88.84-21.52L95.08-21.52L95.08 0L88.84 0ZM91.96-24.52Q90.24-24.52 89.16-25.52Q88.08-26.52 88.08-28L88.08-28Q88.08-29.48 89.16-30.48Q90.24-31.48 91.96-31.48L91.96-31.48Q93.68-31.48 94.76-30.52Q95.84-29.56 95.84-28.12L95.84-28.12Q95.84-26.56 94.76-25.54Q93.68-24.52 91.96-24.52L91.96-24.52Z M121.60-21.84Q124.60-21.84 127.06-20.46Q129.52-19.08 130.92-16.58Q132.32-14.08 132.32-10.76L132.32-10.76Q132.32-7.44 130.92-4.94Q129.52-2.44 127.06-1.06Q124.60 0.32 121.60 0.32L121.60 0.32Q117.48 0.32 115.12-2.28L115.12-2.28L115.12 7.76L108.88 7.76L108.88-21.52L114.84-21.52L114.84-19.04Q117.16-21.84 121.60-21.84L121.60-21.84ZM120.52-4.80Q122.92-4.80 124.46-6.42Q126.00-8.04 126.00-10.76L126.00-10.76Q126.00-13.48 124.46-15.10Q122.92-16.72 120.52-16.72L120.52-16.72Q118.12-16.72 116.58-15.10Q115.04-13.48 115.04-10.76L115.04-10.76Q115.04-8.04 116.58-6.42Q118.12-4.80 120.52-4.80L120.52-4.80Z M156.68-5.44L158.36-1.04Q157.44-0.36 156.10-0.02Q154.76 0.32 153.28 0.32L153.28 0.32Q149.44 0.32 147.34-1.64Q145.24-3.60 145.24-7.40L145.24-7.40L145.24-16.24L141.92-16.24L141.92-21.04L145.24-21.04L145.24-26.28L151.48-26.28L151.48-21.04L156.84-21.04L156.84-16.24L151.48-16.24L151.48-7.48Q151.48-6.12 152.18-5.38Q152.88-4.64 154.16-4.64L154.16-4.64Q155.64-4.64 156.68-5.44L156.68-5.44Z M179.44 0.32Q176.04 0.32 173.34-1.10Q170.64-2.52 169.12-5.04Q167.60-7.56 167.60-10.76L167.60-10.76Q167.60-13.96 169.12-16.48Q170.64-19 173.34-20.42Q176.04-21.84 179.44-21.84L179.44-21.84Q182.84-21.84 185.52-20.42Q188.20-19 189.72-16.48Q191.24-13.96 191.24-10.76L191.24-10.76Q191.24-7.56 189.72-5.04Q188.20-2.52 185.52-1.10Q182.84 0.32 179.44 0.32L179.44 0.32ZM179.44-4.80Q181.84-4.80 183.38-6.42Q184.92-8.04 184.92-10.76L184.92-10.76Q184.92-13.48 183.38-15.10Q181.84-16.72 179.44-16.72L179.44-16.72Q177.04-16.72 175.48-15.10Q173.92-13.48 173.92-10.76L173.92-10.76Q173.92-8.04 175.48-6.42Q177.04-4.80 179.44-4.80L179.44-4.80Z M251.76-21.52L257.28-21.52L249.48 0L243.48 0L238.64-13.36L233.64 0L227.64 0L219.88-21.52L225.76-21.52L230.84-6.96L236.12-21.52L241.40-21.52L246.52-6.96L251.76-21.52Z M288.68-10.68Q288.68-10.56 288.56-9L288.56-9L272.28-9Q272.72-7 274.36-5.84Q276.00-4.68 278.44-4.68L278.44-4.68Q280.12-4.68 281.42-5.18Q282.72-5.68 283.84-6.76L283.84-6.76L287.16-3.16Q284.12 0.32 278.28 0.32L278.28 0.32Q274.64 0.32 271.84-1.10Q269.04-2.52 267.52-5.04Q266.00-7.56 266.00-10.76L266.00-10.76Q266.00-13.92 267.50-16.46Q269.00-19 271.62-20.42Q274.24-21.84 277.48-21.84L277.48-21.84Q280.64-21.84 283.20-20.48Q285.76-19.12 287.22-16.58Q288.68-14.04 288.68-10.68L288.68-10.68ZM277.52-17.12Q275.40-17.12 273.96-15.92Q272.52-14.72 272.20-12.64L272.20-12.64L282.80-12.64Q282.48-14.68 281.04-15.90Q279.60-17.12 277.52-17.12L277.52-17.12Z M313.56-21.84Q316.56-21.84 319.02-20.46Q321.48-19.08 322.88-16.58Q324.28-14.08 324.28-10.76L324.28-10.76Q324.28-7.44 322.88-4.94Q321.48-2.44 319.02-1.06Q316.56 0.32 313.56 0.32L313.56 0.32Q309.12 0.32 306.80-2.48L306.80-2.48L306.80 0L300.84 0L300.84-29.68L307.08-29.68L307.08-19.24Q309.44-21.84 313.56-21.84L313.56-21.84ZM312.48-4.80Q314.88-4.80 316.42-6.42Q317.96-8.04 317.96-10.76L317.96-10.76Q317.96-13.48 316.42-15.10Q314.88-16.72 312.48-16.72L312.48-16.72Q310.08-16.72 308.54-15.10Q307-13.48 307-10.76L307-10.76Q307-8.04 308.54-6.42Q310.08-4.80 312.48-4.80L312.48-4.80Z M367.96-5.44L369.64-1.04Q368.72-0.36 367.38-0.02Q366.04 0.32 364.56 0.32L364.56 0.32Q360.72 0.32 358.62-1.64Q356.52-3.60 356.52-7.40L356.52-7.40L356.52-16.24L353.20-16.24L353.20-21.04L356.52-21.04L356.52-26.28L362.76-26.28L362.76-21.04L368.12-21.04L368.12-16.24L362.76-16.24L362.76-7.48Q362.76-6.12 363.46-5.38Q364.16-4.64 365.44-4.64L365.44-4.64Q366.92-4.64 367.96-5.44L367.96-5.44Z M401.56-10.68Q401.56-10.56 401.44-9L401.44-9L385.16-9Q385.60-7 387.24-5.84Q388.88-4.68 391.32-4.68L391.32-4.68Q393.00-4.68 394.30-5.18Q395.60-5.68 396.72-6.76L396.72-6.76L400.04-3.16Q397.00 0.32 391.16 0.32L391.16 0.32Q387.52 0.32 384.72-1.10Q381.92-2.52 380.40-5.04Q378.88-7.56 378.88-10.76L378.88-10.76Q378.88-13.92 380.38-16.46Q381.88-19 384.50-20.42Q387.12-21.84 390.36-21.84L390.36-21.84Q393.52-21.84 396.08-20.48Q398.64-19.12 400.10-16.58Q401.56-14.04 401.56-10.68L401.56-10.68ZM390.40-17.12Q388.28-17.12 386.84-15.92Q385.40-14.72 385.08-12.64L385.08-12.64L395.68-12.64Q395.36-14.68 393.92-15.90Q392.48-17.12 390.40-17.12L390.40-17.12Z M424.12 0.32Q420.68 0.32 417.94-1.10Q415.20-2.52 413.66-5.04Q412.12-7.56 412.12-10.76L412.12-10.76Q412.12-13.96 413.66-16.48Q415.20-19 417.94-20.42Q420.68-21.84 424.12-21.84L424.12-21.84Q427.52-21.84 430.06-20.42Q432.60-19 433.76-16.36L433.76-16.36L428.92-13.76Q427.24-16.72 424.08-16.72L424.08-16.72Q421.64-16.72 420.04-15.12Q418.44-13.52 418.44-10.76L418.44-10.76Q418.44-8 420.04-6.40Q421.64-4.80 424.08-4.80L424.08-4.80Q427.28-4.80 428.92-7.76L428.92-7.76L433.76-5.12Q432.60-2.56 430.06-1.12Q427.52 0.32 424.12 0.32L424.12 0.32Z M458.28-21.84Q462.28-21.84 464.74-19.44Q467.20-17.04 467.20-12.32L467.20-12.32L467.20 0L460.96 0L460.96-11.36Q460.96-13.92 459.84-15.18Q458.72-16.44 456.60-16.44L456.60-16.44Q454.24-16.44 452.84-14.98Q451.44-13.52 451.44-10.64L451.44-10.64L451.44 0L445.20 0L445.20-29.68L451.44-29.68L451.44-19.28Q452.68-20.52 454.44-21.18Q456.20-21.84 458.28-21.84L458.28-21.84Z M493.92-21.84Q497.92-21.84 500.38-19.44Q502.84-17.04 502.84-12.32L502.84-12.32L502.84 0L496.60 0L496.60-11.36Q496.60-13.92 495.48-15.18Q494.36-16.44 492.24-16.44L492.24-16.44Q489.88-16.44 488.48-14.98Q487.08-13.52 487.08-10.64L487.08-10.64L487.08 0L480.84 0L480.84-21.52L486.80-21.52L486.80-19Q488.04-20.36 489.88-21.10Q491.72-21.84 493.92-21.84L493.92-21.84Z M526.96 0.32Q523.56 0.32 520.86-1.10Q518.16-2.52 516.64-5.04Q515.12-7.56 515.12-10.76L515.12-10.76Q515.12-13.96 516.64-16.48Q518.16-19 520.86-20.42Q523.56-21.84 526.96-21.84L526.96-21.84Q530.36-21.84 533.04-20.42Q535.72-19 537.24-16.48Q538.76-13.96 538.76-10.76L538.76-10.76Q538.76-7.56 537.24-5.04Q535.72-2.52 533.04-1.10Q530.36 0.32 526.96 0.32L526.96 0.32ZM526.96-4.80Q529.36-4.80 530.90-6.42Q532.44-8.04 532.44-10.76L532.44-10.76Q532.44-13.48 530.90-15.10Q529.36-16.72 526.96-16.72L526.96-16.72Q524.56-16.72 523.00-15.10Q521.44-13.48 521.44-10.76L521.44-10.76Q521.44-8.04 523.00-6.42Q524.56-4.80 526.96-4.80L526.96-4.80Z M550.92 0L550.92-29.68L557.16-29.68L557.16 0L550.92 0Z M581.20 0.32Q577.80 0.32 575.10-1.10Q572.40-2.52 570.88-5.04Q569.36-7.56 569.36-10.76L569.36-10.76Q569.36-13.96 570.88-16.48Q572.40-19 575.10-20.42Q577.80-21.84 581.20-21.84L581.20-21.84Q584.60-21.84 587.28-20.42Q589.96-19 591.48-16.48Q593.00-13.96 593.00-10.76L593.00-10.76Q593.00-7.56 591.48-5.04Q589.96-2.52 587.28-1.10Q584.60 0.32 581.20 0.32L581.20 0.32ZM581.20-4.80Q583.60-4.80 585.14-6.42Q586.68-8.04 586.68-10.76L586.68-10.76Q586.68-13.48 585.14-15.10Q583.60-16.72 581.20-16.72L581.20-16.72Q578.80-16.72 577.24-15.10Q575.68-13.48 575.68-10.76L575.68-10.76Q575.68-8.04 577.24-6.42Q578.80-4.80 581.20-4.80L581.20-4.80Z M621.44-21.52L627.36-21.52L627.36-3.60Q627.36 2.32 624.28 5.20Q621.20 8.08 615.28 8.08L615.28 8.08Q612.16 8.08 609.36 7.32Q606.56 6.56 604.72 5.12L604.72 5.12L607.20 0.64Q608.56 1.76 610.64 2.42Q612.72 3.08 614.80 3.08L614.80 3.08Q618.04 3.08 619.58 1.62Q621.12 0.16 621.12-2.80L621.12-2.80L621.12-3.72Q618.68-1.04 614.32-1.04L614.32-1.04Q611.36-1.04 608.90-2.34Q606.44-3.64 605-6Q603.56-8.36 603.56-11.44L603.56-11.44Q603.56-14.52 605-16.88Q606.44-19.24 608.90-20.54Q611.36-21.84 614.32-21.84L614.32-21.84Q619-21.84 621.44-18.76L621.44-18.76L621.44-21.52ZM615.56-6.16Q618.04-6.16 619.62-7.62Q621.20-9.08 621.20-11.44L621.20-11.44Q621.20-13.80 619.62-15.26Q618.04-16.72 615.56-16.72L615.56-16.72Q613.08-16.72 611.48-15.26Q609.88-13.80 609.88-11.44L609.88-11.44Q609.88-9.08 611.48-7.62Q613.08-6.16 615.56-6.16L615.56-6.16Z M641.16 0L641.16-21.52L647.40-21.52L647.40 0L641.16 0ZM644.28-24.52Q642.56-24.52 641.48-25.52Q640.40-26.52 640.40-28L640.40-28Q640.40-29.48 641.48-30.48Q642.56-31.48 644.28-31.48L644.28-31.48Q646-31.48 647.08-30.52Q648.16-29.56 648.16-28.12L648.16-28.12Q648.16-26.56 647.08-25.54Q646-24.52 644.28-24.52L644.28-24.52Z M682.28-10.68Q682.28-10.56 682.16-9L682.16-9L665.88-9Q666.32-7 667.96-5.84Q669.60-4.68 672.04-4.68L672.04-4.68Q673.72-4.68 675.02-5.18Q676.32-5.68 677.44-6.76L677.44-6.76L680.76-3.16Q677.72 0.32 671.88 0.32L671.88 0.32Q668.24 0.32 665.44-1.10Q662.64-2.52 661.12-5.04Q659.60-7.56 659.60-10.76L659.60-10.76Q659.60-13.92 661.10-16.46Q662.60-19 665.22-20.42Q667.84-21.84 671.08-21.84L671.08-21.84Q674.24-21.84 676.80-20.48Q679.36-19.12 680.82-16.58Q682.28-14.04 682.28-10.68L682.28-10.68ZM671.12-17.12Q669.00-17.12 667.56-15.92Q666.12-14.72 665.80-12.64L665.80-12.64L676.40-12.64Q676.08-14.68 674.64-15.90Q673.20-17.12 671.12-17.12L671.12-17.12Z M701.68 0.32Q699 0.32 696.44-0.34Q693.88-1 692.36-2L692.36-2L694.44-6.48Q695.88-5.56 697.92-4.98Q699.96-4.40 701.92-4.40L701.92-4.40Q705.88-4.40 705.88-6.36L705.88-6.36Q705.88-7.28 704.80-7.68Q703.72-8.08 701.48-8.36L701.48-8.36Q698.84-8.76 697.12-9.28Q695.40-9.80 694.14-11.12Q692.88-12.44 692.88-14.88L692.88-14.88Q692.88-16.92 694.06-18.50Q695.24-20.08 697.50-20.96Q699.76-21.84 702.84-21.84L702.84-21.84Q705.12-21.84 707.38-21.34Q709.64-20.84 711.12-19.96L711.12-19.96L709.04-15.52Q706.20-17.12 702.84-17.12L702.84-17.12Q700.84-17.12 699.84-16.56Q698.84-16 698.84-15.12L698.84-15.12Q698.84-14.12 699.92-13.72Q701-13.32 703.36-12.96L703.36-12.96Q706-12.52 707.68-12.02Q709.36-11.52 710.60-10.20Q711.84-8.88 711.84-6.52L711.84-6.52Q711.84-4.52 710.64-2.96Q709.44-1.40 707.14-0.54Q704.84 0.32 701.68 0.32L701.68 0.32Z"/></g>
</svg>
</g><g opacity="1" transform="rotate(0 491.4282 571.9881)">
<svg width="354.8146" height="100" x="491.4282" y="571.9881" version="1.1" preserveAspectRatio="none" viewBox="0.3516 -28.1445 102.91009999999999 29.0039">
  <g transform="matrix(1 0 0 1 0 0)" class="background"><path id="id-D6z1nYkh3" d="M32.03-19.65L32.03-19.65Q30.10-19.65 29.34-21.48L29.34-21.48Q26.52-21.48 23.16-20.12L23.16-20.12Q21.07-19.26 20.35-18.54Q19.63-17.81 19.58-17.40Q19.53-16.99 19.98-16.71Q20.43-16.43 21.24-16.17Q22.05-15.92 23.13-15.66L23.13-15.66Q28.75-14.36 30.25-13.85L30.25-13.85Q33.24-12.85 34.73-11.66L34.73-11.66Q36.13-10.47 36.13-8.42L36.13-8.42Q36.13-6.72 35.09-5.55Q34.04-4.38 32.32-3.46Q30.61-2.54 28.49-1.83Q26.37-1.11 24.01-0.61Q21.66-0.10 19.38 0.23L19.38 0.23Q14.90 0.86 11.74 0.86L11.74 0.86Q5.98 0.86 2.85-0.53L2.85-0.53Q1.68-1.05 0.94-3.16L0.94-3.16Q0.35-4.90 0.35-6.03Q0.35-7.15 0.55-7.27Q0.74-7.38 1.35-7.28Q1.95-7.17 2.93-6.91L2.93-6.91L5.27-6.29Q10.72-4.92 16.80-4.92L16.80-4.92Q21.27-4.92 24.38-5.72L24.38-5.72Q26.21-6.21 26.33-6.82L26.33-6.82Q26.41-7.34 23.44-8.13L23.44-8.13Q22.09-8.50 20.31-8.91L20.31-8.91Q11.70-11.00 9.92-11.60Q8.14-12.21 7.61-12.68Q7.07-13.14 6.72-13.71L6.72-13.71Q6.07-14.82 6.07-15.83Q6.07-16.84 6.18-17.38Q6.29-17.93 6.48-18.40L6.48-18.40Q6.89-19.36 7.52-19.71L7.52-19.71Q12.54-22.52 22.27-24.65L22.27-24.65Q30.92-26.56 36.50-26.56L36.50-26.56Q37.64-26.56 38.20-26.17L38.20-26.17Q39.18-25.45 39.06-24.63Q38.95-23.81 38.56-23.12Q38.18-22.42 37.62-21.87Q37.05-21.31 36.36-20.89Q35.66-20.47 34.92-20.20L34.92-20.20Q33.44-19.65 32.03-19.65Z M78.06-5.69Q77.09-5.16 75.93-4.82Q74.77-4.49 73.18-4.49Q71.60-4.49 69.80-5.51L69.80-5.51Q65.33-1.43 61.56 0.23L61.56 0.23Q60.39 0.74 59.80 0.74Q59.22 0.74 58.69 0.66Q58.16 0.59 57.66 0.47L57.66 0.47Q56.43 0.16 56.04-0.11Q55.64-0.37 55.23-0.82Q54.82-1.27 54.49-1.95L54.49-1.95Q53.73-3.46 53.52-5.88L53.52-5.88Q48.79-1.70 47.74-1.00Q46.70-0.29 46.02 0.02L46.02 0.02Q44.77 0.61 43.33 0.61Q41.89 0.61 40.83-0.02Q39.77-0.64 39.02-1.60L39.02-1.60Q37.50-3.59 37.50-6.00L37.50-6.00Q37.50-9.02 39.02-12.03L39.02-12.03Q41.33-16.60 45.43-18.16L45.43-18.16Q46.80-18.69 47.76-18.69Q48.73-18.69 49.28-18.60Q49.82-18.52 50.27-18.28L50.27-18.28Q51.33-17.75 51.33-16.60L51.33-16.60Q51.33-15.61 50.51-14.47Q49.69-13.34 49.10-12.64Q48.52-11.93 48.03-11.21L48.03-11.21Q46.88-9.53 46.88-8.30L46.88-8.30Q46.88-7.40 48.07-7.40L48.07-7.40Q49.92-7.40 53.89-11.07L53.89-11.07Q54.71-13.85 56.52-15.80L56.52-15.80Q58.55-17.99 61.02-17.99L61.02-17.99Q63.09-17.99 63.83-17.03L63.83-17.03Q64.08-16.72 64.08-16.44Q64.08-16.15 63.75-15.63L63.75-15.63L61.88-12.70Q59.69-9.28 59.69-7.58L59.69-7.58Q59.69-6.07 61.52-6.07L61.52-6.07Q62.91-6.07 66.46-9.53L66.46-9.53Q66.33-10.06 66.33-10.61Q66.33-11.15 66.59-11.82Q66.86-12.48 67.32-13.22Q67.79-13.96 68.42-14.71Q69.04-15.45 69.77-16.05L69.77-16.05Q71.39-17.38 72.83-17.38L72.83-17.38Q75.47-17.38 75.47-14.71L75.47-14.71Q75.47-13.01 74.49-11.15L74.49-11.15Q74.49-10.55 75.16-10.12L75.16-10.12Q75.35-9.98 75.71-9.98Q76.07-9.98 76.66-10.29Q77.25-10.61 77.83-11.04Q78.42-11.46 78.93-11.90Q79.43-12.34 79.96-12.77L79.96-12.77Q81.70-14.12 82.56-14.12L82.56-14.12Q83.14-14.12 83.52-13.77L83.52-13.77Q84.18-13.16 84.18-12.85Q84.18-12.54 84.02-12.21Q83.87-11.88 83.61-11.46Q83.36-11.04 83.03-10.59L83.03-10.59Q81.68-8.75 81.12-8.15Q80.57-7.56 79.79-6.89Q79.02-6.23 78.06-5.69Z M101.35-13.38L101.35-13.38Q103.26-13.38 103.26-12.05L103.26-12.05Q103.26-10.78 101.46-8.77L101.46-8.77L100.51-7.77Q98.77-6.00 96.46-4.28Q94.14-2.56 92.38-1.56L92.38-1.56Q88.30 0.70 84.98 0.70L84.98 0.70Q81.86 0.70 79.88-1.17L79.88-1.17Q78.18-2.79 78.18-4.59Q78.18-6.39 78.54-8.16Q78.89-9.94 79.45-11.64L79.45-11.64Q80.59-15.10 81.93-17.52L81.93-17.52Q82.29-18.18 82.29-18.38L82.29-18.38L79.77-18.38Q78.34-18.38 77.56-19.04Q76.78-19.71 76.78-20.55Q76.78-21.39 77.09-21.78Q77.40-22.17 77.87-22.34L77.87-22.34Q78.54-22.62 79.82-22.62L79.82-22.62L84.61-22.60Q84.77-22.66 85.23-23.44L85.23-23.44L86.43-25.49Q87.19-26.86 87.96-27.50Q88.73-28.14 89.78-28.14Q90.82-28.14 91.53-27.95Q92.25-27.75 92.73-27.46L92.73-27.46Q93.69-26.84 93.69-26.09L93.69-26.09Q93.69-25.78 93.48-25.25L93.48-25.25L92.38-22.60L101.66-22.62Q102.87-22.62 102.87-21.37L102.87-21.37Q102.87-18.40 97.58-18.40L97.58-18.40L90.43-18.38Q90.20-18.26 89.63-17.25L89.63-17.25L88.75-15.63Q88.42-15.02 88.28-14.71L88.28-14.71L87.85-13.75Q86.54-10.80 86.54-9.49Q86.54-8.18 87.24-7.30Q87.93-6.43 89.08-6.43Q90.23-6.43 91.34-6.88Q92.44-7.32 93.50-7.97L93.50-7.97Q95.41-9.16 96.50-10.18Q97.60-11.19 98.32-11.72L98.32-11.72Q98.32-11.72 99.69-12.68L99.69-12.68Q100.74-13.38 101.35-13.38Z"/></g>
</svg>
</g></svg></svg>