<svg version="1.1" preserveAspectRatio="none" xmlns="http://www.w3.org/2000/svg" width="500" height="500" viewBox="0 0 500 500"><rect width="100%" height="100%" fill="#FFFFFF" fill-opacity="1"/><svg viewBox="118.148 575.5362 356.0173 291.8675" width="333" height="272.997625396294" x="83.5px" y="113.5012px" xmlns="http://www.w3.org/2000/svg" xmlns:xlink="http://www.w3.org/1999/xlink" preserveAspectRatio="none"><defs></defs><style>.companyName {fill:#1C1C1C;fill-opacity:1;}.icon1 {fill:#1C1C1C;fill-opacity:1;}.icon2 {fill:#BAAE57;fill-opacity:1;}.icon3 {fill:#E192BB;fill-opacity:1;}.icon3-str {stroke:#E192BB;stroke-opacity:1;}.text {fill:#1C1C1C;fill-opacity:1;}</style><g opacity="1" transform="rotate(0 118.148 841.4037)">
<svg width="356.0173" height="26" x="118.148" y="841.4037" version="1.1" preserveAspectRatio="none" viewBox="1.92 -29.2 517.5200000000001 37.8">
  <g transform="matrix(1 0 0 1 0 0)" class="text"><path id="id-6izo4zJp24" d="M10.52 0.40Q7.64 0.40 5.32-0.74Q3-1.88 1.92-4.12L1.92-4.12L4.52-5.92Q5.20-4.16 6.88-3.28Q8.56-2.40 10.84-2.40L10.84-2.40Q13.20-2.40 14.44-3.24Q15.68-4.08 15.68-5.36L15.68-5.36Q15.68-6.52 14.52-7.22Q13.36-7.92 10.44-8.44L10.44-8.44Q7.56-8.96 5.88-9.70Q4.20-10.44 3.44-11.58Q2.68-12.72 2.68-14.40L2.68-14.40Q2.68-16.04 3.64-17.40Q4.60-18.76 6.40-19.58Q8.20-20.40 10.56-20.40L10.56-20.40Q13.76-20.40 15.70-19.22Q17.64-18.04 18.48-15.60L18.48-15.60L15.76-14Q15.12-15.92 13.82-16.76Q12.52-17.60 10.56-17.60L10.56-17.60Q8.60-17.60 7.24-16.72Q5.88-15.84 5.88-14.68L5.88-14.68Q5.88-13.36 7.06-12.64Q8.24-11.92 11.28-11.40L11.28-11.40Q15.44-10.72 17.16-9.36Q18.88-8 18.88-5.52L18.88-5.52Q18.88-3.80 17.86-2.46Q16.84-1.12 14.94-0.36Q13.04 0.40 10.52 0.40L10.52 0.40Z M34.44-20.40Q37.44-20.40 39.50-19.02Q41.56-17.64 42.72-15.08L42.72-15.08L39.68-13.64Q38.40-17.60 34.36-17.60L34.36-17.60Q31.36-17.60 29.66-15.58Q27.96-13.56 27.96-10L27.96-10Q27.96-6.44 29.66-4.42Q31.36-2.40 34.36-2.40L34.36-2.40Q36.68-2.40 38.10-3.46Q39.52-4.52 39.96-6.52L39.96-6.52L42.92-5.48Q41.88-2.68 39.72-1.14Q37.56 0.40 34.44 0.40L34.44 0.40Q29.92 0.40 27.34-2.36Q24.76-5.12 24.76-10L24.76-10Q24.76-14.88 27.34-17.64Q29.92-20.40 34.44-20.40L34.44-20.40Z M59.20-20.40Q60.64-20.40 61.40-20L61.40-20L60.76-16.88Q59.80-17.40 58.24-17.40L58.24-17.40Q56.96-17.40 55.74-16.66Q54.52-15.92 53.74-14.42Q52.96-12.92 52.96-10.80L52.96-10.80L52.96 0L49.76 0L49.76-20L52.36-20L52.80-16.72Q54.48-20.40 59.20-20.40L59.20-20.40Z M68.88-23.84Q67.80-23.84 67.14-24.50Q66.48-25.16 66.48-26.24L66.48-26.24Q66.48-27.32 67.14-27.98Q67.80-28.64 68.88-28.64L68.88-28.64Q69.96-28.64 70.62-27.98Q71.28-27.32 71.28-26.24L71.28-26.24Q71.28-25.16 70.62-24.50Q69.96-23.84 68.88-23.84L68.88-23.84ZM70.48-20L70.48 0L67.28 0L67.28-20L70.48-20Z M88.96-20.40Q93.16-20.40 95.62-17.62Q98.08-14.84 98.08-10L98.08-10Q98.08-5.16 95.62-2.38Q93.16 0.40 88.96 0.40L88.96 0.40Q86.76 0.40 85.02-0.56Q83.28-1.52 82.32-3.12L82.32-3.12L82.32 8.40L79.12 8.40L79.12-20L81.92-20L82.12-16.52Q83.00-18.28 84.82-19.34Q86.64-20.40 88.96-20.40L88.96-20.40ZM88.60-2.40Q91.52-2.40 93.20-4.46Q94.88-6.52 94.88-10L94.88-10Q94.88-13.48 93.20-15.54Q91.52-17.60 88.60-17.60L88.60-17.60Q85.72-17.60 84.02-15.60Q82.32-13.60 82.32-10.24L82.32-10.24L82.32-9.76Q82.32-6.40 84.02-4.40Q85.72-2.40 88.60-2.40L88.60-2.40Z M116.28-4.08L117.40-1.40Q115.40 0.40 112.24 0.40L112.24 0.40Q109.80 0.40 108.26-0.92Q106.72-2.24 106.68-4.96L106.68-4.96L106.68-17.24L102.68-17.24L102.68-20L106.68-20L106.68-24.80L109.88-25.68L109.88-20L117.28-20L117.28-17.24L109.88-17.24L109.88-5.52Q109.88-4.08 110.70-3.34Q111.52-2.60 112.88-2.60L112.88-2.60Q114.80-2.60 116.28-4.08L116.28-4.08Z M131.56-20.40Q136.08-20.40 138.66-17.64Q141.24-14.88 141.24-10L141.24-10Q141.24-5.12 138.66-2.36Q136.08 0.40 131.56 0.40L131.56 0.40Q127.04 0.40 124.46-2.36Q121.88-5.12 121.88-10L121.88-10Q121.88-14.88 124.46-17.64Q127.04-20.40 131.56-20.40L131.56-20.40ZM131.56-17.64Q128.52-17.64 126.80-15.60Q125.08-13.56 125.08-10L125.08-10Q125.08-6.44 126.80-4.40Q128.52-2.36 131.56-2.36L131.56-2.36Q134.60-2.36 136.32-4.40Q138.04-6.44 138.04-10L138.04-10Q138.04-13.56 136.32-15.60Q134.60-17.64 131.56-17.64L131.56-17.64Z M188.08-20L191.64-20L184.68 0L181.48 0L175.84-15.92L170.52 0L167.32 0L160.36-20L163.92-20L168.96-3.72L174.40-20L177.60-20L183.04-3.72L188.08-20Z M214.56-11.04Q214.56-9.92 214.40-8.80L214.40-8.80L199.32-8.80Q199.60-5.76 201.34-4.08Q203.08-2.40 205.84-2.40L205.84-2.40Q208.04-2.40 209.50-3.16Q210.96-3.92 211.48-5.36L211.48-5.36L214.16-3.96Q212.96-1.84 210.96-0.72Q208.96 0.40 205.84 0.40L205.84 0.40Q201.32 0.40 198.74-2.36Q196.16-5.12 196.16-10L196.16-10Q196.16-14.88 198.62-17.64Q201.08-20.40 205.60-20.40L205.60-20.40Q208.40-20.40 210.44-19.16Q212.48-17.92 213.52-15.80Q214.56-13.68 214.56-11.04L214.56-11.04ZM205.60-17.60Q202.96-17.60 201.34-16.04Q199.72-14.48 199.36-11.64L199.36-11.64L211.48-11.64Q211.16-14.44 209.64-16.02Q208.12-17.60 205.60-17.60L205.60-17.60Z M231.68-20.40Q235.88-20.40 238.34-17.62Q240.80-14.84 240.80-10L240.80-10Q240.80-5.16 238.34-2.38Q235.88 0.40 231.68 0.40L231.68 0.40Q229.36 0.40 227.54-0.66Q225.72-1.72 224.84-3.48L224.84-3.48L224.64 0L221.84 0L221.84-29.20L225.04-29.20L225.04-16.88Q226-18.48 227.74-19.44Q229.48-20.40 231.68-20.40L231.68-20.40ZM231.32-2.40Q234.24-2.40 235.92-4.46Q237.60-6.52 237.60-10L237.60-10Q237.60-13.48 235.92-15.54Q234.24-17.60 231.32-17.60L231.32-17.60Q228.44-17.60 226.74-15.60Q225.04-13.60 225.04-10.24L225.04-10.24L225.04-9.76Q225.04-6.40 226.74-4.40Q228.44-2.40 231.32-2.40L231.32-2.40Z M273.40-4.08L274.52-1.40Q272.52 0.40 269.36 0.40L269.36 0.40Q266.92 0.40 265.38-0.92Q263.84-2.24 263.80-4.96L263.80-4.96L263.80-17.24L259.80-17.24L259.80-20L263.80-20L263.80-24.80L267.00-25.68L267.00-20L274.40-20L274.40-17.24L267.00-17.24L267.00-5.52Q267.00-4.08 267.82-3.34Q268.64-2.60 270.00-2.60L270.00-2.60Q271.92-2.60 273.40-4.08L273.40-4.08Z M297.40-11.04Q297.40-9.92 297.24-8.80L297.24-8.80L282.16-8.80Q282.44-5.76 284.18-4.08Q285.92-2.40 288.68-2.40L288.68-2.40Q290.88-2.40 292.34-3.16Q293.80-3.92 294.32-5.36L294.32-5.36L297.00-3.96Q295.80-1.84 293.80-0.72Q291.80 0.40 288.68 0.40L288.68 0.40Q284.16 0.40 281.58-2.36Q279.00-5.12 279.00-10L279.00-10Q279.00-14.88 281.46-17.64Q283.92-20.40 288.44-20.40L288.44-20.40Q291.24-20.40 293.28-19.16Q295.32-17.92 296.36-15.80Q297.40-13.68 297.40-11.04L297.40-11.04ZM288.44-17.60Q285.80-17.60 284.18-16.04Q282.56-14.48 282.20-11.64L282.20-11.64L294.32-11.64Q294.00-14.44 292.48-16.02Q290.96-17.60 288.44-17.60L288.44-17.60Z M313.12-20.40Q316.12-20.40 318.18-19.02Q320.24-17.64 321.40-15.08L321.40-15.08L318.36-13.64Q317.08-17.60 313.04-17.60L313.04-17.60Q310.04-17.60 308.34-15.58Q306.64-13.56 306.64-10L306.64-10Q306.64-6.44 308.34-4.42Q310.04-2.40 313.04-2.40L313.04-2.40Q315.36-2.40 316.78-3.46Q318.20-4.52 318.64-6.52L318.64-6.52L321.60-5.48Q320.56-2.68 318.40-1.14Q316.24 0.40 313.12 0.40L313.12 0.40Q308.60 0.40 306.02-2.36Q303.44-5.12 303.44-10L303.44-10Q303.44-14.88 306.02-17.64Q308.60-20.40 313.12-20.40L313.12-20.40Z M338.16-20.40Q341.56-20.40 343.76-18.44Q345.96-16.48 345.96-12.80L345.96-12.80L345.96 0L342.76 0L342.76-11.68Q342.76-14.80 341.42-16.20Q340.08-17.60 337.84-17.60L337.84-17.60Q336.28-17.60 334.86-16.88Q333.44-16.16 332.54-14.58Q331.64-13 331.64-10.60L331.64-10.60L331.64 0L328.44 0L328.44-29.20L331.64-29.20L331.64-17Q332.64-18.72 334.34-19.56Q336.04-20.40 338.16-20.40L338.16-20.40Z M364.12-20.40Q367.52-20.40 369.72-18.44Q371.92-16.48 371.92-12.80L371.92-12.80L371.92 0L368.72 0L368.72-11.68Q368.72-14.80 367.38-16.20Q366.04-17.60 363.80-17.60L363.80-17.60Q362.20-17.60 360.80-16.90Q359.40-16.20 358.50-14.62Q357.60-13.04 357.60-10.64L357.60-10.64L357.60 0L354.40 0L354.40-20L357.20-20L357.40-16.88Q358.40-18.68 360.16-19.54Q361.92-20.40 364.12-20.40L364.12-20.40Z M388.80-20.40Q393.32-20.40 395.90-17.64Q398.48-14.88 398.48-10L398.48-10Q398.48-5.12 395.90-2.36Q393.32 0.40 388.80 0.40L388.80 0.40Q384.28 0.40 381.70-2.36Q379.12-5.12 379.12-10L379.12-10Q379.12-14.88 381.70-17.64Q384.28-20.40 388.80-20.40L388.80-20.40ZM388.80-17.64Q385.76-17.64 384.04-15.60Q382.32-13.56 382.32-10L382.32-10Q382.32-6.44 384.04-4.40Q385.76-2.36 388.80-2.36L388.80-2.36Q391.84-2.36 393.56-4.40Q395.28-6.44 395.28-10L395.28-10Q395.28-13.56 393.56-15.60Q391.84-17.64 388.80-17.64L388.80-17.64Z M408.92-29.20L408.92-5.36Q408.92-3.84 409.38-3.26Q409.84-2.68 411.08-2.68L411.08-2.68Q411.92-2.68 412.54-2.80Q413.16-2.92 414.00-3.24L414.00-3.24L413.48-0.16Q412.16 0.40 410.52 0.40L410.52 0.40Q408.08 0.40 406.90-0.92Q405.72-2.24 405.72-4.96L405.72-4.96L405.72-29.20L408.92-29.20Z M427.76-20.40Q432.28-20.40 434.86-17.64Q437.44-14.88 437.44-10L437.44-10Q437.44-5.12 434.86-2.36Q432.28 0.40 427.76 0.40L427.76 0.40Q423.24 0.40 420.66-2.36Q418.08-5.12 418.08-10L418.08-10Q418.08-14.88 420.66-17.64Q423.24-20.40 427.76-20.40L427.76-20.40ZM427.76-17.64Q424.72-17.64 423.00-15.60Q421.28-13.56 421.28-10L421.28-10Q421.28-6.44 423.00-4.40Q424.72-2.36 427.76-2.36L427.76-2.36Q430.80-2.36 432.52-4.40Q434.24-6.44 434.24-10L434.24-10Q434.24-13.56 432.52-15.60Q430.80-17.64 427.76-17.64L427.76-17.64Z M456.00-2.56Q458.84-2.56 460.44-1.28Q462.04 0 462.04 2.20L462.04 2.20Q462.04 4.12 460.72 5.58Q459.40 7.04 457.14 7.82Q454.88 8.60 452.16 8.60L452.16 8.60Q447.60 8.60 445.28 7.14Q442.96 5.68 442.96 3.32L442.96 3.32Q442.96 1.96 443.90 0.92Q444.84-0.12 446.48-0.56L446.48-0.56Q445.24-1.16 444.50-2.08Q443.76-3 443.76-4.24L443.76-4.24Q443.76-5.72 444.56-6.70Q445.36-7.68 446.76-8.16L446.76-8.16Q445.32-9.04 444.58-10.46Q443.84-11.88 443.84-13.64L443.84-13.64Q443.84-15.60 444.88-17.14Q445.92-18.68 447.80-19.54Q449.68-20.40 452.04-20.40L452.04-20.40Q454.28-20.40 456.12-19.60L456.12-19.60Q457.24-23.68 461.76-23.68L461.76-23.68L462.48-20.88Q458.56-20.88 457.72-18.68L457.72-18.68Q458.92-17.76 459.58-16.48Q460.24-15.20 460.24-13.64L460.24-13.64Q460.24-11.68 459.20-10.14Q458.16-8.60 456.28-7.74Q454.40-6.88 452.04-6.88L452.04-6.88Q450.28-6.88 448.96-7.24L448.96-7.24Q447.76-6.96 447.24-6.36Q446.72-5.76 446.72-4.72L446.72-4.72Q446.72-3.68 447.44-3.12Q448.16-2.56 449.36-2.56L449.36-2.56L456.00-2.56ZM452.04-17.80Q449.96-17.80 448.56-16.64Q447.16-15.48 447.16-13.64L447.16-13.64Q447.16-11.80 448.56-10.64Q449.96-9.48 452.04-9.48L452.04-9.48Q454.12-9.48 455.52-10.64Q456.92-11.80 456.92-13.64L456.92-13.64Q456.92-15.48 455.52-16.64Q454.12-17.80 452.04-17.80L452.04-17.80ZM452.52 5.92Q455.56 5.92 457.32 4.94Q459.08 3.96 459.08 2.56L459.08 2.56Q459.08 1.40 458.18 0.80Q457.28 0.20 455.12 0.20L455.12 0.20L449.76 0.20Q447.92 0.20 446.92 0.86Q445.92 1.52 445.92 2.68L445.92 2.68Q445.92 4.20 447.60 5.06Q449.28 5.92 452.52 5.92L452.52 5.92Z M469.60-23.84Q468.52-23.84 467.86-24.50Q467.20-25.16 467.20-26.24L467.20-26.24Q467.20-27.32 467.86-27.98Q468.52-28.64 469.60-28.64L469.60-28.64Q470.68-28.64 471.34-27.98Q472.00-27.32 472.00-26.24L472.00-26.24Q472.00-25.16 471.34-24.50Q470.68-23.84 469.60-23.84L469.60-23.84ZM471.20-20L471.20 0L468.00 0L468.00-20L471.20-20Z M497.00-11.04Q497.00-9.92 496.84-8.80L496.84-8.80L481.76-8.80Q482.04-5.76 483.78-4.08Q485.52-2.40 488.28-2.40L488.28-2.40Q490.48-2.40 491.94-3.16Q493.40-3.92 493.92-5.36L493.92-5.36L496.60-3.96Q495.40-1.84 493.40-0.72Q491.40 0.40 488.28 0.40L488.28 0.40Q483.76 0.40 481.18-2.36Q478.60-5.12 478.60-10L478.60-10Q478.60-14.88 481.06-17.64Q483.52-20.40 488.04-20.40L488.04-20.40Q490.84-20.40 492.88-19.16Q494.92-17.92 495.96-15.80Q497.00-13.68 497.00-11.04L497.00-11.04ZM488.04-17.60Q485.40-17.60 483.78-16.04Q482.16-14.48 481.80-11.64L481.80-11.64L493.92-11.64Q493.60-14.44 492.08-16.02Q490.56-17.60 488.04-17.60L488.04-17.60Z M511.08 0.40Q508.20 0.40 505.88-0.74Q503.56-1.88 502.48-4.12L502.48-4.12L505.08-5.92Q505.76-4.16 507.44-3.28Q509.12-2.40 511.40-2.40L511.40-2.40Q513.76-2.40 515.00-3.24Q516.24-4.08 516.24-5.36L516.24-5.36Q516.24-6.52 515.08-7.22Q513.92-7.92 511.00-8.44L511.00-8.44Q508.12-8.96 506.44-9.70Q504.76-10.44 504.00-11.58Q503.24-12.72 503.24-14.40L503.24-14.40Q503.24-16.04 504.20-17.40Q505.16-18.76 506.96-19.58Q508.76-20.40 511.12-20.40L511.12-20.40Q514.32-20.40 516.26-19.22Q518.20-18.04 519.04-15.60L519.04-15.60L516.32-14Q515.68-15.92 514.38-16.76Q513.08-17.60 511.12-17.60L511.12-17.60Q509.16-17.60 507.80-16.72Q506.44-15.84 506.44-14.68L506.44-14.68Q506.44-13.36 507.62-12.64Q508.80-11.92 511.84-11.40L511.84-11.40Q516.00-10.72 517.72-9.36Q519.44-8 519.44-5.52L519.44-5.52Q519.44-3.80 518.42-2.46Q517.40-1.12 515.50-0.36Q513.60 0.40 511.08 0.40L511.08 0.40Z"/></g>
</svg>
</g><g opacity="1" transform="rotate(0 128.1239 719.4037)">
<svg width="336.0654" height="100" x="128.1239" y="719.4037" version="1.1" preserveAspectRatio="none" viewBox="2.4 -22.8 78.64 23.4">
  <g transform="matrix(1 0 0 1 0 0)" class="companyName"><path id="id-D6z1nYkh3" d="M3.20 0L3.20 0L2.40 0L2.40-9.32L3.20-9.32Q3.20-5.56 5.90-2.92Q8.60-0.28 12.48-0.28L12.48-0.28Q14.08-0.28 15.06-1.22Q16.04-2.16 16.04-3.72L16.04-3.72Q16.04-5.48 13.76-6.72L13.76-6.72Q12.52-7.36 9.48-8.74Q6.44-10.12 5.20-11.08L5.20-11.08Q2.72-13 3.02-16.16Q3.32-19.32 5.40-21.06Q7.48-22.80 10.10-22.80Q12.72-22.80 14.82-22.10Q16.92-21.40 17.20-21.40L17.20-21.40Q18-21.40 18-22.80L18-22.80L18.80-22.80L18.80-15.48L18-15.48Q18-18.36 15.88-20.18Q13.76-22 10.44-22L10.44-22Q8.96-22 8.12-21.14Q7.28-20.28 7.28-19.24Q7.28-18.20 7.56-17.64Q7.84-17.08 8.54-16.62Q9.24-16.16 9.76-15.88Q10.28-15.60 11.42-15.12Q12.56-14.64 13-14.44L13-14.44Q15.20-13.44 15.60-13.26Q16-13.08 16.76-12.68Q17.52-12.28 17.90-11.96Q18.28-11.64 18.88-11.16Q19.48-10.68 19.76-10.18Q20.04-9.68 20.32-9.04L20.32-9.04Q20.88-7.76 20.72-6.04L20.72-6.04Q20.40-2.80 18.30-1.10Q16.20 0.60 12.64 0.60L12.64 0.60Q9.44 0.60 6.28-1.04L6.28-1.04Q5.20-1.60 4.68-1.60L4.68-1.60Q3.20-1.60 3.20 0Z M24.64-21.60L22.72-21.60L22.72-22.40L34.44-22.40L34.44-21.60L32.48-21.60L37.96-9.24L40.52-15.60L37.84-21.60L36.32-21.60L36.32-22.40L47.28-22.40L47.28-21.60L45.40-21.60L50.76-9.40L55-21.60L51.80-21.60L51.80-22.40L58.68-22.40L58.68-21.60L55.96-21.60L48.48 0L47.52 0L47.68-0.44L47.48 0L41.04-14.48L35.24 0L34.28 0L24.64-21.60Z M81.04-15.60L80.24-15.60Q80.24-19.16 79.06-20.38Q77.88-21.60 74.64-21.60L74.64-21.60L73.44-21.60L73.44-0.80L76.24-0.80L76.24 0L64.64 0L64.64-0.80L67.44-0.80L67.44-21.60L66.24-21.60Q63.04-21.60 61.86-20.38Q60.68-19.16 60.68-15.60L60.68-15.60L59.88-15.60L59.88-22.40L81.04-22.40L81.04-15.60Z"/></g>
</svg>
</g><g opacity="1" transform="rotate(0 212.1403 575.5362)">
<svg width="168.0327" height="103.8675" x="212.1403" y="575.5362" version="1.1" preserveAspectRatio="none" viewBox="8.25683307647705 24.190000534057617 83.5035171508789 51.616729736328125">
  <g transform="matrix(1 0 0 1 0 0)" class="icon1"><title>NounProject1</title><path d="M20.18,60.1a20.34,20.34,0,0,1,2.15-5.35c1.14-1.81,6.72-6.28,10.18-9.22s14.79-12.45,16-12.62c1.49-.2,8.77,4.39,10.52,5.62s3.92,1.55,5.37.62,1.24-2-.36-4.28S52.79,24.19,49.74,24.19s-5.42,1.44-9.08,4.08-5.42,7.22-10.47,7.22-10.4-4.73-11.76-4.39c-.82.21-10.58,26.26-10.16,26.52S20.05,60.83,20.18,60.1Z"></path><path d="M69.45,69.33c1.24-.87,2.41-3,1.17-4.68s-4.54-5.37-7.15-4.13-1.86,5-.28,6.74S67.39,70.78,69.45,69.33Z"></path><path d="M57.29,72.36c.33,1.38,2.4,3.92,4.46,3.37a4.6,4.6,0,0,0,3.3-3c.41-1.24-2.2-4.13-4.47-4.4S57,71,57.29,72.36Z"></path><path d="M66.13,33.47c1,1.47,2.06,3.19,1.69,5a4.26,4.26,0,0,1-2,2.75,6.1,6.1,0,0,1-3.32.93,8.48,8.48,0,0,1-4.82-1.61,62.13,62.13,0,0,0-8.73-5.06c-2.11,1.37-14,12.06-14.76,12.72-2.53,2.12-8.78,6.92-9.74,7.85A5.11,5.11,0,0,0,22.83,59c-.11,2.57,2.74,4.06,3.83,3.73,3.92-1.17,13.28-8.87,19.4-14a27.23,27.23,0,0,1-6,7.08c-4.47,4-8.62,6-8.62,7.83S32.77,68,36.36,67c3.26-1,13.48-9.42,16.92-13.41,0,0-1,3.44-6.74,8.12C43.75,64,40.46,66,39.94,67.53a3.26,3.26,0,0,0,4.18,3.7c3.16-.76,6.22-4,8.82-6.5a52.36,52.36,0,0,0,4.75-5.24,47.52,47.52,0,0,1-4.75,6.82c-2.48,2.92-5,4.65-4.88,5.78.13,1.7,1.48,4.92,7,1.33a5.06,5.06,0,0,1-.15-.49,6.33,6.33,0,0,1,1.34-5,5.24,5.24,0,0,1,3.41-2,7.64,7.64,0,0,1-.24-3.64,5.36,5.36,0,0,1,3-3.93,5.09,5.09,0,0,1,2.2-.49,5.88,5.88,0,0,1,1.71.27,6.69,6.69,0,0,1,6.29-5.69,4.79,4.79,0,0,1,.87.08,4.85,4.85,0,0,1,2.14,1.07c.11-.16.22-.3.3-.43,1.93-3,7-3.76,8.95-4.1s6.6,0,6.87-.31-4.82-23.25-5.92-23.53c-.42-.11-2.82,2.13-7.15,2.2s-17.89-1.79-20.77-1.58l-.09,0A50.22,50.22,0,0,1,66.13,33.47Z"></path><path d="M75.3,65.07c1.31-.8,2.24-1.17,2.06-3.58-.15-2-2.48-6.26-4.33-6.6s-4.26,1.72-4.26,3.58,2,4.75,2.68,5.5S74.17,65.76,75.3,65.07Z"></path><path d="M78.33,59c.91.68,4.23-2.44,2.89-5.64S74.27,56,78.33,59Z"></path></g>
</svg>
</g></svg></svg>