<svg version="1.1" preserveAspectRatio="none" xmlns="http://www.w3.org/2000/svg" width="500" height="500" viewBox="0 0 500 500"><rect width="100%" height="100%" fill="#D6E8F5" fill-opacity="1"/><svg viewBox="1118.8604 945.6076 364.5673 170" width="333" height="155.27997162663794" x="83.5px" y="172.36px" xmlns="http://www.w3.org/2000/svg" xmlns:xlink="http://www.w3.org/1999/xlink" preserveAspectRatio="none"><defs></defs><style>.companyName {fill:#3F6886;fill-opacity:1;}.icon3-str {stroke:#D2AA8F;stroke-opacity:1;}.text {fill:#3F6886;fill-opacity:1;}</style><g opacity="1" transform="rotate(0 1130.3842 1091.6076)">
<svg width="341.5198" height="24" x="1130.3842" y="1091.6076" version="1.1" preserveAspectRatio="none" viewBox="0.96 -30.28 544.7199999999999 38.28">
  <g transform="matrix(1 0 0 1 0 0)" class="text"><path id="id-6izo4zJp24" d="M9.72 0.24Q7.12 0.24 4.72-0.46Q2.32-1.16 0.96-2.24L0.96-2.24L2.56-5.28Q3.96-4.28 5.96-3.68Q7.96-3.08 10-3.08L10-3.08Q15.04-3.08 15.04-5.96L15.04-5.96Q15.04-6.92 14.36-7.48Q13.68-8.04 12.66-8.30Q11.64-8.56 9.76-8.88L9.76-8.88Q7.20-9.28 5.58-9.80Q3.96-10.32 2.80-11.56Q1.64-12.80 1.64-15.04L1.64-15.04Q1.64-17.92 4.04-19.66Q6.44-21.40 10.48-21.40L10.48-21.40Q12.60-21.40 14.72-20.88Q16.84-20.36 18.20-19.48L18.20-19.48L16.56-16.44Q13.96-18.12 10.44-18.12L10.44-18.12Q8-18.12 6.72-17.32Q5.44-16.52 5.44-15.20L5.44-15.20Q5.44-14.16 6.16-13.56Q6.88-12.96 7.94-12.68Q9-12.40 10.92-12.04L10.92-12.04Q13.48-11.60 15.06-11.10Q16.64-10.60 17.76-9.40Q18.88-8.20 18.88-6.04L18.88-6.04Q18.88-3.16 16.42-1.46Q13.96 0.24 9.72 0.24L9.72 0.24Z M34.52 0.24Q31.28 0.24 28.74-1.16Q26.20-2.56 24.76-5.02Q23.32-7.48 23.32-10.60L23.32-10.60Q23.32-13.72 24.76-16.18Q26.20-18.64 28.74-20.02Q31.28-21.40 34.52-21.40L34.52-21.40Q37.40-21.40 39.66-20.24Q41.92-19.08 43.16-16.88L43.16-16.88L40.24-15Q39.24-16.52 37.76-17.28Q36.28-18.04 34.48-18.04L34.48-18.04Q32.40-18.04 30.74-17.12Q29.08-16.20 28.14-14.50Q27.20-12.80 27.20-10.60L27.20-10.60Q27.20-8.36 28.14-6.66Q29.08-4.96 30.74-4.04Q32.40-3.12 34.48-3.12L34.48-3.12Q36.28-3.12 37.76-3.88Q39.24-4.64 40.24-6.16L40.24-6.16L43.16-4.32Q41.92-2.12 39.66-0.94Q37.40 0.24 34.52 0.24L34.52 0.24Z M53.40-17.64Q54.40-19.48 56.36-20.44Q58.32-21.40 61.12-21.40L61.12-21.40L61.12-17.68Q60.80-17.72 60.24-17.72L60.24-17.72Q57.12-17.72 55.34-15.86Q53.56-14 53.56-10.56L53.56-10.56L53.56 0L49.72 0L49.72-21.20L53.40-21.20L53.40-17.64Z M67.44 0L67.44-21.20L71.28-21.20L71.28 0L67.44 0ZM69.36-25.28Q68.24-25.28 67.50-26Q66.76-26.72 66.76-27.76L66.76-27.76Q66.76-28.80 67.50-29.54Q68.24-30.28 69.36-30.28L69.36-30.28Q70.48-30.28 71.22-29.58Q71.96-28.88 71.96-27.84L71.96-27.84Q71.96-26.76 71.22-26.02Q70.48-25.28 69.36-25.28L69.36-25.28Z M91.44-21.40Q94.52-21.40 96.96-20.04Q99.40-18.68 100.78-16.24Q102.16-13.80 102.16-10.60L102.16-10.60Q102.16-7.40 100.78-4.94Q99.40-2.48 96.96-1.12Q94.52 0.24 91.44 0.24L91.44 0.24Q89.16 0.24 87.26-0.64Q85.36-1.52 84.04-3.20L84.04-3.20L84.04 7.76L80.20 7.76L80.20-21.20L83.88-21.20L83.88-17.84Q85.16-19.60 87.12-20.50Q89.08-21.40 91.44-21.40L91.44-21.40ZM91.12-3.12Q93.16-3.12 94.78-4.06Q96.40-5 97.34-6.70Q98.28-8.40 98.28-10.60L98.28-10.60Q98.28-12.80 97.34-14.50Q96.40-16.20 94.78-17.12Q93.16-18.04 91.12-18.04L91.12-18.04Q89.12-18.04 87.50-17.10Q85.88-16.16 84.94-14.48Q84-12.80 84-10.60L84-10.60Q84-8.40 84.92-6.70Q85.84-5 87.48-4.06Q89.12-3.12 91.12-3.12L91.12-3.12Z M119.80-4L121-1.24Q120.16-0.52 118.92-0.14Q117.68 0.24 116.36 0.24L116.36 0.24Q113.16 0.24 111.40-1.48Q109.64-3.20 109.64-6.40L109.64-6.40L109.64-18.04L106.04-18.04L106.04-21.20L109.64-21.20L109.64-25.84L113.48-25.84L113.48-21.20L119.56-21.20L119.56-18.04L113.48-18.04L113.48-6.56Q113.48-4.84 114.34-3.92Q115.20-3 116.80-3L116.80-3Q118.56-3 119.80-4L119.80-4Z M135.60 0.24Q132.44 0.24 129.92-1.16Q127.40-2.56 125.98-5.02Q124.56-7.48 124.56-10.60L124.56-10.60Q124.56-13.72 125.98-16.18Q127.40-18.64 129.92-20.02Q132.44-21.40 135.60-21.40L135.60-21.40Q138.76-21.40 141.26-20.02Q143.76-18.64 145.18-16.18Q146.60-13.72 146.60-10.60L146.60-10.60Q146.60-7.48 145.18-5.02Q143.76-2.56 141.26-1.16Q138.76 0.24 135.60 0.24L135.60 0.24ZM135.60-3.12Q137.64-3.12 139.26-4.06Q140.88-5 141.80-6.70Q142.72-8.40 142.72-10.60L142.72-10.60Q142.72-12.80 141.80-14.50Q140.88-16.20 139.26-17.12Q137.64-18.04 135.60-18.04L135.60-18.04Q133.56-18.04 131.94-17.12Q130.32-16.20 129.38-14.50Q128.44-12.80 128.44-10.60L128.44-10.60Q128.44-8.40 129.38-6.70Q130.32-5 131.94-4.06Q133.56-3.12 135.60-3.12L135.60-3.12Z M194.52-21.20L197.96-21.20L190.04 0L186.36 0L180.24-16.08L174.04 0L170.36 0L162.48-21.20L166.12-21.20L172.28-4.32L178.68-21.20L181.92-21.20L188.20-4.24L194.52-21.20Z M222-10.48Q222-10.04 221.92-9.32L221.92-9.32L204.72-9.32Q205.08-6.52 207.18-4.82Q209.28-3.12 212.40-3.12L212.40-3.12Q216.20-3.12 218.52-5.68L218.52-5.68L220.64-3.20Q219.20-1.52 217.06-0.64Q214.92 0.24 212.28 0.24L212.28 0.24Q208.92 0.24 206.32-1.14Q203.72-2.52 202.30-5Q200.88-7.48 200.88-10.60L200.88-10.60Q200.88-13.68 202.26-16.16Q203.64-18.64 206.06-20.02Q208.48-21.40 211.52-21.40L211.52-21.40Q214.56-21.40 216.94-20.02Q219.32-18.64 220.66-16.16Q222-13.68 222-10.48L222-10.48ZM211.52-18.16Q208.76-18.16 206.90-16.48Q205.04-14.80 204.72-12.08L204.72-12.08L218.32-12.08Q218-14.76 216.14-16.46Q214.28-18.16 211.52-18.16L211.52-18.16Z M240.16-21.40Q243.24-21.40 245.68-20.04Q248.12-18.68 249.50-16.24Q250.88-13.80 250.88-10.60L250.88-10.60Q250.88-7.40 249.50-4.94Q248.12-2.48 245.68-1.12Q243.24 0.24 240.16 0.24L240.16 0.24Q237.80 0.24 235.84-0.68Q233.88-1.60 232.60-3.36L232.60-3.36L232.60 0L228.92 0L228.92-29.68L232.76-29.68L232.76-18Q234.04-19.68 235.96-20.54Q237.88-21.40 240.16-21.40L240.16-21.40ZM239.84-3.12Q241.88-3.12 243.50-4.06Q245.12-5 246.06-6.70Q247.00-8.40 247.00-10.60L247.00-10.60Q247.00-12.80 246.06-14.50Q245.12-16.20 243.50-17.12Q241.88-18.04 239.84-18.04L239.84-18.04Q237.84-18.04 236.20-17.12Q234.56-16.20 233.64-14.50Q232.72-12.80 232.72-10.60L232.72-10.60Q232.72-8.40 233.64-6.70Q234.56-5 236.20-4.06Q237.84-3.12 239.84-3.12L239.84-3.12Z M280.88-4L282.08-1.24Q281.24-0.52 280-0.14Q278.76 0.24 277.44 0.24L277.44 0.24Q274.24 0.24 272.48-1.48Q270.72-3.20 270.72-6.40L270.72-6.40L270.72-18.04L267.12-18.04L267.12-21.20L270.72-21.20L270.72-25.84L274.56-25.84L274.56-21.20L280.64-21.20L280.64-18.04L274.56-18.04L274.56-6.56Q274.56-4.84 275.42-3.92Q276.28-3 277.88-3L277.88-3Q279.64-3 280.88-4L280.88-4Z M306.76-10.48Q306.76-10.04 306.68-9.32L306.68-9.32L289.48-9.32Q289.84-6.52 291.94-4.82Q294.04-3.12 297.16-3.12L297.16-3.12Q300.96-3.12 303.28-5.68L303.28-5.68L305.40-3.20Q303.96-1.52 301.82-0.64Q299.68 0.24 297.04 0.24L297.04 0.24Q293.68 0.24 291.08-1.14Q288.48-2.52 287.06-5Q285.64-7.48 285.64-10.60L285.64-10.60Q285.64-13.68 287.02-16.16Q288.40-18.64 290.82-20.02Q293.24-21.40 296.28-21.40L296.28-21.40Q299.32-21.40 301.70-20.02Q304.08-18.64 305.42-16.16Q306.76-13.68 306.76-10.48L306.76-10.48ZM296.28-18.16Q293.52-18.16 291.66-16.48Q289.80-14.80 289.48-12.08L289.48-12.08L303.08-12.08Q302.76-14.76 300.90-16.46Q299.04-18.16 296.28-18.16L296.28-18.16Z M322.92 0.24Q319.68 0.24 317.14-1.16Q314.60-2.56 313.16-5.02Q311.72-7.48 311.72-10.60L311.72-10.60Q311.72-13.72 313.16-16.18Q314.60-18.64 317.14-20.02Q319.68-21.40 322.92-21.40L322.92-21.40Q325.80-21.40 328.06-20.24Q330.32-19.08 331.56-16.88L331.56-16.88L328.64-15Q327.64-16.52 326.16-17.28Q324.68-18.04 322.88-18.04L322.88-18.04Q320.80-18.04 319.14-17.12Q317.48-16.20 316.54-14.50Q315.60-12.80 315.60-10.60L315.60-10.60Q315.60-8.36 316.54-6.66Q317.48-4.96 319.14-4.04Q320.80-3.12 322.88-3.12L322.88-3.12Q324.68-3.12 326.16-3.88Q327.64-4.64 328.64-6.16L328.64-6.16L331.56-4.32Q330.32-2.12 328.06-0.94Q325.80 0.24 322.92 0.24L322.92 0.24Z M349.16-21.40Q353.20-21.40 355.58-19.06Q357.96-16.72 357.96-12.20L357.96-12.20L357.96 0L354.12 0L354.12-11.76Q354.12-14.84 352.64-16.40Q351.16-17.96 348.40-17.96L348.40-17.96Q345.28-17.96 343.48-16.14Q341.68-14.32 341.68-10.92L341.68-10.92L341.68 0L337.84 0L337.84-29.68L341.68-29.68L341.68-18.20Q342.88-19.72 344.82-20.56Q346.76-21.40 349.16-21.40L349.16-21.40Z M378.00-21.40Q382.04-21.40 384.42-19.06Q386.80-16.72 386.80-12.20L386.80-12.20L386.80 0L382.96 0L382.96-11.76Q382.96-14.84 381.48-16.40Q380.00-17.96 377.24-17.96L377.24-17.96Q374.12-17.96 372.32-16.14Q370.52-14.32 370.52-10.92L370.52-10.92L370.52 0L366.68 0L366.68-21.20L370.36-21.20L370.36-18Q371.52-19.64 373.50-20.52Q375.48-21.40 378.00-21.40L378.00-21.40Z M404.72 0.24Q401.56 0.24 399.04-1.16Q396.52-2.56 395.10-5.02Q393.68-7.48 393.68-10.60L393.68-10.60Q393.68-13.72 395.10-16.18Q396.52-18.64 399.04-20.02Q401.56-21.40 404.72-21.40L404.72-21.40Q407.88-21.40 410.38-20.02Q412.88-18.64 414.30-16.18Q415.72-13.72 415.72-10.60L415.72-10.60Q415.72-7.48 414.30-5.02Q412.88-2.56 410.38-1.16Q407.88 0.24 404.72 0.24L404.72 0.24ZM404.72-3.12Q406.76-3.12 408.38-4.06Q410.00-5 410.92-6.70Q411.84-8.40 411.84-10.60L411.84-10.60Q411.84-12.80 410.92-14.50Q410.00-16.20 408.38-17.12Q406.76-18.04 404.72-18.04L404.72-18.04Q402.68-18.04 401.06-17.12Q399.44-16.20 398.50-14.50Q397.56-12.80 397.56-10.60L397.56-10.60Q397.56-8.40 398.50-6.70Q399.44-5 401.06-4.06Q402.68-3.12 404.72-3.12L404.72-3.12Z M422.64 0L422.64-29.68L426.48-29.68L426.48 0L422.64 0Z M444.48 0.24Q441.32 0.24 438.80-1.16Q436.28-2.56 434.86-5.02Q433.44-7.48 433.44-10.60L433.44-10.60Q433.44-13.72 434.86-16.18Q436.28-18.64 438.80-20.02Q441.32-21.40 444.48-21.40L444.48-21.40Q447.64-21.40 450.14-20.02Q452.64-18.64 454.06-16.18Q455.48-13.72 455.48-10.60L455.48-10.60Q455.48-7.48 454.06-5.02Q452.64-2.56 450.14-1.16Q447.64 0.24 444.48 0.24L444.48 0.24ZM444.48-3.12Q446.52-3.12 448.14-4.06Q449.76-5 450.68-6.70Q451.60-8.40 451.60-10.60L451.60-10.60Q451.60-12.80 450.68-14.50Q449.76-16.20 448.14-17.12Q446.52-18.04 444.48-18.04L444.48-18.04Q442.44-18.04 440.82-17.12Q439.20-16.20 438.26-14.50Q437.32-12.80 437.32-10.60L437.32-10.60Q437.32-8.40 438.26-6.70Q439.20-5 440.82-4.06Q442.44-3.12 444.48-3.12L444.48-3.12Z M479.04-21.20L482.68-21.20L482.68-2.88Q482.68 2.68 479.92 5.34Q477.16 8 471.68 8L471.68 8Q468.68 8 465.96 7.18Q463.24 6.36 461.56 4.84L461.56 4.84L463.40 1.88Q464.88 3.16 467.06 3.90Q469.24 4.64 471.56 4.64L471.56 4.64Q475.28 4.64 477.06 2.88Q478.84 1.12 478.84-2.48L478.84-2.48L478.84-4.16Q477.48-2.52 475.50-1.70Q473.52-0.88 471.20-0.88L471.20-0.88Q468.16-0.88 465.70-2.18Q463.24-3.48 461.84-5.82Q460.44-8.16 460.44-11.16L460.44-11.16Q460.44-14.16 461.84-16.50Q463.24-18.84 465.70-20.12Q468.16-21.40 471.20-21.40L471.20-21.40Q473.60-21.40 475.66-20.52Q477.72-19.64 479.04-17.92L479.04-17.92L479.04-21.20ZM471.64-4.24Q473.72-4.24 475.38-5.12Q477.04-6 477.98-7.58Q478.92-9.16 478.92-11.16L478.92-11.16Q478.92-14.24 476.88-16.14Q474.84-18.04 471.64-18.04L471.64-18.04Q468.40-18.04 466.36-16.14Q464.32-14.24 464.32-11.16L464.32-11.16Q464.32-9.16 465.26-7.58Q466.20-6 467.86-5.12Q469.52-4.24 471.64-4.24L471.64-4.24Z M491.60 0L491.60-21.20L495.44-21.20L495.44 0L491.60 0ZM493.52-25.28Q492.40-25.28 491.66-26Q490.92-26.72 490.92-27.76L490.92-27.76Q490.92-28.80 491.66-29.54Q492.40-30.28 493.52-30.28L493.52-30.28Q494.64-30.28 495.38-29.58Q496.12-28.88 496.12-27.84L496.12-27.84Q496.12-26.76 495.38-26.02Q494.64-25.28 493.52-25.28L493.52-25.28Z M523.52-10.48Q523.52-10.04 523.44-9.32L523.44-9.32L506.24-9.32Q506.60-6.52 508.70-4.82Q510.80-3.12 513.92-3.12L513.92-3.12Q517.72-3.12 520.04-5.68L520.04-5.68L522.16-3.20Q520.72-1.52 518.58-0.64Q516.44 0.24 513.80 0.24L513.80 0.24Q510.44 0.24 507.84-1.14Q505.24-2.52 503.82-5Q502.40-7.48 502.40-10.60L502.40-10.60Q502.40-13.68 503.78-16.16Q505.16-18.64 507.58-20.02Q510.00-21.40 513.04-21.40L513.04-21.40Q516.08-21.40 518.46-20.02Q520.84-18.64 522.18-16.16Q523.52-13.68 523.52-10.48L523.52-10.48ZM513.04-18.16Q510.28-18.16 508.42-16.48Q506.56-14.80 506.24-12.08L506.24-12.08L519.84-12.08Q519.52-14.76 517.66-16.46Q515.80-18.16 513.04-18.16L513.04-18.16Z M536.52 0.24Q533.92 0.24 531.52-0.46Q529.12-1.16 527.76-2.24L527.76-2.24L529.36-5.28Q530.76-4.28 532.76-3.68Q534.76-3.08 536.80-3.08L536.80-3.08Q541.84-3.08 541.84-5.96L541.84-5.96Q541.84-6.92 541.16-7.48Q540.48-8.04 539.46-8.30Q538.44-8.56 536.56-8.88L536.56-8.88Q534.00-9.28 532.38-9.80Q530.76-10.32 529.60-11.56Q528.44-12.80 528.44-15.04L528.44-15.04Q528.44-17.92 530.84-19.66Q533.24-21.40 537.28-21.40L537.28-21.40Q539.40-21.40 541.52-20.88Q543.64-20.36 545.00-19.48L545.00-19.48L543.36-16.44Q540.76-18.12 537.24-18.12L537.24-18.12Q534.80-18.12 533.52-17.32Q532.24-16.52 532.24-15.20L532.24-15.20Q532.24-14.16 532.96-13.56Q533.68-12.96 534.74-12.68Q535.80-12.40 537.72-12.04L537.72-12.04Q540.28-11.60 541.86-11.10Q543.44-10.60 544.56-9.40Q545.68-8.20 545.68-6.04L545.68-6.04Q545.68-3.16 543.22-1.46Q540.76 0.24 536.52 0.24L536.52 0.24Z"/></g>
</svg>
</g><g opacity="1" transform="rotate(0 1118.8604 945.6076)">
<svg width="364.5673" height="120" x="1118.8604" y="945.6076" version="1.1" preserveAspectRatio="none" viewBox="1.96 -28.88 89.44000000000001 29.44">
  <g transform="matrix(1 0 0 1 0 0)" class="companyName"><path id="id-D6z1nYkh3" d="M12.08-28.88Q14.36-28.88 15.78-28.46Q17.20-28.04 18.56-27.28L18.56-27.28Q19-27.04 19.34-26.88Q19.68-26.72 19.92-26.72L19.92-26.72Q20.28-26.72 20.48-27.14Q20.68-27.56 20.80-28.48L20.80-28.48L21.72-28.48Q21.52-25.60 21.52-18.72L21.52-18.72L20.60-18.72Q20.44-21 19.56-23.08Q18.68-25.16 17.16-26.48Q15.64-27.80 13.64-27.80L13.64-27.80Q11.80-27.80 10.68-26.82Q9.56-25.84 9.56-24.08L9.56-24.08Q9.56-22.72 10.16-21.72Q10.76-20.72 11.92-19.78Q13.08-18.84 15.72-17L15.72-17Q15.96-16.88 16.18-16.72Q16.40-16.56 16.60-16.40L16.60-16.40Q18.80-14.88 20.12-13.70Q21.44-12.52 22.26-10.96Q23.08-9.40 23.08-7.36L23.08-7.36Q23.08-4.76 21.62-2.98Q20.16-1.20 17.68-0.32Q15.20 0.56 12.20 0.56L12.20 0.56Q9.76 0.56 8.14 0.16Q6.52-0.24 5.12-0.92L5.12-0.92Q4.24-1.48 3.76-1.48L3.76-1.48Q3.40-1.48 3.20-1.06Q3-0.64 2.88 0.28L2.88 0.28L1.96 0.28Q2.12-2.44 2.12-11.32L2.12-11.32L3.04-11.32Q3.32-6.56 5.04-3.60Q6.76-0.64 10.32-0.64L10.32-0.64Q12.52-0.64 13.82-1.68Q15.12-2.72 15.12-4.56L15.12-4.56Q15.12-6.84 13.70-8.46Q12.28-10.08 9.28-12.08L9.28-12.08Q6.88-13.68 5.44-14.88Q4-16.08 3.08-17.66Q2.16-19.24 2.16-21.32L2.16-21.32Q2.16-23.84 3.52-25.54Q4.88-27.24 7.14-28.06Q9.40-28.88 12.08-28.88L12.08-28.88Z M61.60-28.20Q63.48-28.20 64.68-28.32L64.68-28.32L64.68-27.52Q62.32-26.36 60.96-21.92L60.96-21.92L54.24 0Q52.96-0.08 52.12-0.08L52.12-0.08Q51.32-0.08 50.04 0L50.04 0L44.84-15.88L39.20 0Q37.92-0.08 37.08-0.08L37.08-0.08Q36.28-0.08 35 0L35 0L25.72-24.96Q25.24-26.24 24.60-26.86Q23.96-27.48 23.36-27.52L23.36-27.52L23.36-28.32Q26.24-28.20 30.44-28.20L30.44-28.20Q34.08-28.20 35.76-28.32L35.76-28.32L35.76-27.52Q34.68-27.32 34.68-25.92L34.68-25.92Q34.68-25.08 35.04-24.16L35.04-24.16L40.84-7.84L44.36-17.36L41.64-25.64Q41.32-26.64 40.84-27.04Q40.36-27.44 39.60-27.52L39.60-27.52L39.60-28.32Q42.28-28.20 46.52-28.20L46.52-28.20Q50.68-28.20 52.72-28.32L52.72-28.32L52.72-27.52Q51.28-27.48 50.64-27.16Q50-26.84 50-26L50-26Q50-25.24 50.40-24.16L50.40-24.16L55.68-8.12L58.76-18Q59.84-21.56 59.84-23.60L59.84-23.60Q59.84-25.60 58.94-26.52Q58.04-27.44 56.36-27.52L56.36-27.52L56.36-28.32Q59.36-28.20 61.60-28.20L61.60-28.20Z M91.40-28.32Q91.12-23.88 91.12-20.40L91.12-20.40Q91.12-18.56 91.24-17.52L91.24-17.52L90.32-17.52Q89-22.76 86.92-25.08Q84.84-27.40 82.44-27.40L82.44-27.40L82.40-27.40L82.40-4.52Q82.40-2.84 82.74-2.08Q83.08-1.32 83.98-1.06Q84.88-0.80 86.84-0.80L86.84-0.80L86.84 0Q81.20-0.12 78.08-0.12L78.08-0.12Q75.24-0.12 69.84 0L69.84 0L69.84-0.80Q71.80-0.80 72.70-1.06Q73.60-1.32 73.94-2.08Q74.28-2.84 74.28-4.52L74.28-4.52L74.28-27.40L74.24-27.40Q71.80-27.40 69.74-25.10Q67.68-22.80 66.36-17.52L66.36-17.52L65.44-17.52Q65.56-18.56 65.56-20.40L65.56-20.40Q65.56-23.88 65.28-28.32L65.28-28.32Q69.08-28.20 78.36-28.20L78.36-28.20Q87.60-28.20 91.40-28.32L91.40-28.32Z"/></g>
</svg>
</g></svg></svg>