<svg version="1.1" preserveAspectRatio="none" xmlns="http://www.w3.org/2000/svg" width="500" height="500" viewBox="0 0 500 500"><rect width="100%" height="100%" fill="#F7F0E8" fill-opacity="1"/><svg viewBox="283.5621 638.4 490.4103 173.2" width="333" height="117.60682840470518" x="83.5px" y="191.1966px" xmlns="http://www.w3.org/2000/svg" xmlns:xlink="http://www.w3.org/1999/xlink" preserveAspectRatio="none"><defs></defs><style>.companyName {fill:#883F39;fill-opacity:1;}.icon1 {fill:#F3C1BC;fill-opacity:1;}.icon2 {fill:#C4AFAD;fill-opacity:1;}.icon3 {fill:#B28A87;fill-opacity:1;}.icon3-str {stroke:#B28A87;stroke-opacity:1;}.text {fill:#883F39;fill-opacity:1;}</style><g opacity="1" transform="rotate(0 297.0705 638.4)">
<svg width="119.9916" height="120" x="297.0705" y="638.4" version="1.1" preserveAspectRatio="none" viewBox="14.346872329711914 14.263750076293945 71.64688110351562 71.6518783569336">
  <g transform="matrix(1 0 0 1 0 0)" class="icon1"><g><path fill-rule="evenodd" clip-rule="evenodd" d="M61.574,38.691c-6.286-6.315-16.514-6.314-22.799-0.001   c-6.316,6.287-6.317,16.516-0.003,22.802c6.286,6.315,16.516,6.314,22.802-0.002C67.889,55.205,67.891,44.979,61.574,38.691z"></path><path fill-rule="evenodd" clip-rule="evenodd" d="M28.54,28.456c-5.504,5.364-7.209,13.774-1.995,19.936   c6.423-7.375,14.561-15.511,21.935-21.933C42.318,21.244,33.903,22.953,28.54,28.456z"></path><path fill-rule="evenodd" clip-rule="evenodd" d="M40.774,82.364c5.343,4.732,13.46,4.737,18.804,0.006   c-2.743-1.792-5.965-4.279-9.402-7.195C46.739,78.088,43.518,80.573,40.774,82.364z"></path><path fill-rule="evenodd" clip-rule="evenodd" d="M40.753,17.815c2.745,1.791,5.971,4.276,9.413,7.194   c3.44-2.918,6.665-5.406,9.41-7.197C54.235,13.079,46.094,13.082,40.753,17.815z"></path><path fill-rule="evenodd" clip-rule="evenodd" d="M17.892,40.683c-4.732,5.341-4.724,13.462,0.007,18.805   c1.792-2.743,4.276-5.965,7.191-9.401C22.171,46.648,19.685,43.426,17.892,40.683z"></path><path fill-rule="evenodd" clip-rule="evenodd" d="M74.944,74.86c3.175-3.194,5.746-6.726,5.952-10.709   c-5.183,5.727-10.938,11.482-16.662,16.666C68.218,80.608,71.751,78.035,74.944,74.86z"></path><path fill-rule="evenodd" clip-rule="evenodd" d="M80.896,36.033c-0.208-3.984-2.778-7.515-5.953-10.711   c-3.195-3.173-6.727-5.746-10.709-5.954C69.958,24.551,75.713,30.308,80.896,36.033z"></path><path fill-rule="evenodd" clip-rule="evenodd" d="M19.336,64.023c0.206,3.991,2.778,7.527,5.955,10.724   c3.193,3.173,6.72,5.743,10.693,5.952C30.262,75.508,24.511,69.748,19.336,64.023z"></path><path fill-rule="evenodd" clip-rule="evenodd" d="M26.542,51.784c-5.216,6.163-3.506,14.576,1.997,19.942   c5.365,5.503,13.773,7.207,19.936,1.991C41.1,67.296,32.963,59.159,26.542,51.784z"></path><path fill-rule="evenodd" clip-rule="evenodd" d="M73.809,51.788c-6.422,7.374-14.559,15.511-21.934,21.934   c6.162,5.216,14.57,3.509,19.937-1.994C77.313,66.363,79.023,57.949,73.809,51.788z"></path><path fill-rule="evenodd" clip-rule="evenodd" d="M73.782,48.412c5.221-6.163,3.519-14.576-1.985-19.943   c-5.367-5.504-13.786-7.211-19.951-1.991C59.221,32.9,67.358,41.037,73.782,48.412z"></path><path fill-rule="evenodd" clip-rule="evenodd" d="M25.406,25.322c-3.173,3.195-5.747,6.728-5.957,10.71   c5.184-5.724,10.94-11.479,16.666-16.661C32.133,19.578,28.601,22.147,25.406,25.322z"></path><path fill-rule="evenodd" clip-rule="evenodd" d="M82.443,59.507c4.733-5.343,4.735-13.472,0.002-18.813   c-1.792,2.743-4.276,5.967-7.191,9.404C78.168,53.537,80.653,56.762,82.443,59.507z"></path></g></g>
</svg>
</g><g opacity="1" transform="rotate(0 283.5621 780.4)">
<svg width="490.4103" height="31.2" x="283.5621" y="780.4" version="1.1" preserveAspectRatio="none" viewBox="1.04 -29.68 591.6400000000001 37.64">
  <g transform="matrix(1 0 0 1 0 0)" class="text"><path id="id-6izo4zJp24" d="M9.60 0.20Q7.04 0.20 4.70-0.54Q2.36-1.28 1.04-2.40L1.04-2.40L2.32-4.64Q3.64-3.60 5.64-2.94Q7.64-2.28 9.80-2.28L9.80-2.28Q12.68-2.28 14.06-3.18Q15.44-4.08 15.44-5.72L15.44-5.72Q15.44-6.88 14.68-7.54Q13.92-8.20 12.76-8.54Q11.60-8.88 9.68-9.20L9.68-9.20Q7.12-9.68 5.56-10.18Q4-10.68 2.90-11.88Q1.80-13.08 1.80-15.20L1.80-15.20Q1.80-17.84 4-19.52Q6.20-21.20 10.12-21.20L10.12-21.20Q12.16-21.20 14.20-20.66Q16.24-20.12 17.56-19.24L17.56-19.24L16.32-16.96Q13.72-18.76 10.12-18.76L10.12-18.76Q7.40-18.76 6.02-17.80Q4.64-16.84 4.64-15.28L4.64-15.28Q4.64-14.08 5.42-13.36Q6.20-12.64 7.36-12.30Q8.52-11.96 10.56-11.60L10.56-11.60Q13.08-11.12 14.60-10.64Q16.12-10.16 17.20-9Q18.28-7.84 18.28-5.80L18.28-5.80Q18.28-3.04 15.98-1.42Q13.68 0.20 9.60 0.20L9.60 0.20Z M36.24 0.20Q33.12 0.20 30.66-1.16Q28.20-2.52 26.80-4.98Q25.40-7.44 25.40-10.52L25.40-10.52Q25.40-13.60 26.80-16.04Q28.20-18.48 30.66-19.84Q33.12-21.20 36.24-21.20L36.24-21.20Q38.96-21.20 41.10-20.14Q43.24-19.08 44.48-17.04L44.48-17.04L42.36-15.60Q41.32-17.16 39.72-17.94Q38.12-18.72 36.24-18.72L36.24-18.72Q33.96-18.72 32.14-17.70Q30.32-16.68 29.30-14.80Q28.28-12.92 28.28-10.52L28.28-10.52Q28.28-8.08 29.30-6.22Q30.32-4.36 32.14-3.34Q33.96-2.32 36.24-2.32L36.24-2.32Q38.12-2.32 39.72-3.08Q41.32-3.84 42.36-5.40L42.36-5.40L44.48-3.96Q43.24-1.92 41.08-0.86Q38.92 0.20 36.24 0.20L36.24 0.20Z M56.76-16.92Q57.76-19.04 59.74-20.12Q61.72-21.20 64.64-21.20L64.64-21.20L64.64-18.44L63.96-18.48Q60.64-18.48 58.76-16.44Q56.88-14.40 56.88-10.72L56.88-10.72L56.88 0L54.04 0L54.04-21.04L56.76-21.04L56.76-16.92Z M73.76 0L73.76-21.04L76.60-21.04L76.60 0L73.76 0ZM75.20-25.64Q74.32-25.64 73.72-26.24Q73.12-26.84 73.12-27.68L73.12-27.68Q73.12-28.48 73.72-29.08Q74.32-29.68 75.20-29.68L75.20-29.68Q76.08-29.68 76.68-29.10Q77.28-28.52 77.28-27.72L77.28-27.72Q77.28-26.84 76.68-26.24Q76.08-25.64 75.20-25.64L75.20-25.64Z M99.36-21.20Q102.32-21.20 104.72-19.86Q107.12-18.52 108.48-16.08Q109.84-13.64 109.84-10.52L109.84-10.52Q109.84-7.36 108.48-4.92Q107.12-2.48 104.74-1.14Q102.36 0.20 99.36 0.20L99.36 0.20Q96.80 0.20 94.74-0.86Q92.68-1.92 91.36-3.96L91.36-3.96L91.36 7.76L88.52 7.76L88.52-21.04L91.24-21.04L91.24-16.88Q92.52-18.96 94.62-20.08Q96.72-21.20 99.36-21.20L99.36-21.20ZM99.16-2.32Q101.36-2.32 103.16-3.34Q104.96-4.36 105.98-6.24Q107.00-8.12 107.00-10.52L107.00-10.52Q107.00-12.92 105.98-14.78Q104.96-16.64 103.16-17.68Q101.36-18.72 99.16-18.72L99.16-18.72Q96.92-18.72 95.14-17.68Q93.36-16.64 92.34-14.78Q91.32-12.92 91.32-10.52L91.32-10.52Q91.32-8.12 92.34-6.24Q93.36-4.36 95.14-3.34Q96.92-2.32 99.16-2.32L99.16-2.32Z M129.72-3.32L130.72-1.28Q129.92-0.56 128.74-0.18Q127.56 0.20 126.28 0.20L126.28 0.20Q123.32 0.20 121.72-1.40Q120.12-3 120.12-5.92L120.12-5.92L120.12-18.64L116.36-18.64L116.36-21.04L120.12-21.04L120.12-25.64L122.96-25.64L122.96-21.04L129.36-21.04L129.36-18.64L122.96-18.64L122.96-6.08Q122.96-4.20 123.90-3.22Q124.84-2.24 126.60-2.24L126.60-2.24Q127.48-2.24 128.30-2.52Q129.12-2.80 129.72-3.32L129.72-3.32Z M147.72 0.20Q144.68 0.20 142.24-1.18Q139.80-2.56 138.40-5Q137.00-7.44 137.00-10.52L137.00-10.52Q137.00-13.60 138.40-16.04Q139.80-18.48 142.24-19.84Q144.68-21.20 147.72-21.20L147.72-21.20Q150.76-21.20 153.20-19.84Q155.64-18.48 157.02-16.04Q158.40-13.60 158.40-10.52L158.40-10.52Q158.40-7.44 157.02-5Q155.64-2.56 153.20-1.18Q150.76 0.20 147.72 0.20L147.72 0.20ZM147.72-2.32Q149.96-2.32 151.74-3.34Q153.52-4.36 154.52-6.24Q155.52-8.12 155.52-10.52L155.52-10.52Q155.52-12.92 154.52-14.80Q153.52-16.68 151.74-17.70Q149.96-18.72 147.72-18.72L147.72-18.72Q145.48-18.72 143.70-17.70Q141.92-16.68 140.90-14.80Q139.88-12.92 139.88-10.52L139.88-10.52Q139.88-8.12 140.90-6.24Q141.92-4.36 143.70-3.34Q145.48-2.32 147.72-2.32L147.72-2.32Z M210.96-21.04L213.56-21.04L205.60 0L202.92 0L196.28-17.24L189.64 0L186.96 0L179.04-21.04L181.76-21.04L188.36-3.16L195.12-21.04L197.56-21.04L204.28-3.16L210.96-21.04Z M239.60-10.52L239.56-9.64L221.96-9.64Q222.20-6.36 224.48-4.34Q226.76-2.32 230.24-2.32L230.24-2.32Q232.20-2.32 233.84-3.02Q235.48-3.72 236.68-5.08L236.68-5.08L238.28-3.24Q236.88-1.56 234.78-0.68Q232.68 0.20 230.16 0.20L230.16 0.20Q226.92 0.20 224.42-1.18Q221.92-2.56 220.52-5Q219.12-7.44 219.12-10.52L219.12-10.52Q219.12-13.60 220.46-16.04Q221.80-18.48 224.14-19.84Q226.48-21.20 229.40-21.20L229.40-21.20Q232.32-21.20 234.64-19.84Q236.96-18.48 238.28-16.06Q239.60-13.64 239.60-10.52L239.60-10.52ZM229.40-18.76Q226.36-18.76 224.30-16.82Q222.24-14.88 221.96-11.76L221.96-11.76L236.88-11.76Q236.60-14.88 234.54-16.82Q232.48-18.76 229.40-18.76L229.40-18.76Z M260.24-21.20Q263.20-21.20 265.60-19.86Q268-18.52 269.36-16.08Q270.72-13.64 270.72-10.52L270.72-10.52Q270.72-7.40 269.36-4.96Q268-2.52 265.60-1.16Q263.20 0.20 260.24 0.20L260.24 0.20Q257.60 0.20 255.50-0.92Q253.40-2.04 252.12-4.16L252.12-4.16L252.12 0L249.40 0L249.40-29.68L252.24-29.68L252.24-17.04Q253.56-19.08 255.62-20.14Q257.68-21.20 260.24-21.20L260.24-21.20ZM260.04-2.32Q262.24-2.32 264.04-3.34Q265.84-4.36 266.86-6.24Q267.88-8.12 267.88-10.52L267.88-10.52Q267.88-12.92 266.86-14.80Q265.84-16.68 264.04-17.70Q262.24-18.72 260.04-18.72L260.04-18.72Q257.80-18.72 256.02-17.70Q254.24-16.68 253.22-14.80Q252.20-12.92 252.20-10.52L252.20-10.52Q252.20-8.12 253.22-6.24Q254.24-4.36 256.02-3.34Q257.80-2.32 260.04-2.32L260.04-2.32Z M305.08-3.32L306.08-1.28Q305.28-0.56 304.10-0.18Q302.92 0.20 301.64 0.20L301.64 0.20Q298.68 0.20 297.08-1.40Q295.48-3 295.48-5.92L295.48-5.92L295.48-18.64L291.72-18.64L291.72-21.04L295.48-21.04L295.48-25.64L298.32-25.64L298.32-21.04L304.72-21.04L304.72-18.64L298.32-18.64L298.32-6.08Q298.32-4.20 299.26-3.22Q300.20-2.24 301.96-2.24L301.96-2.24Q302.84-2.24 303.66-2.52Q304.48-2.80 305.08-3.32L305.08-3.32Z M332.84-10.52L332.80-9.64L315.20-9.64Q315.44-6.36 317.72-4.34Q320.00-2.32 323.48-2.32L323.48-2.32Q325.44-2.32 327.08-3.02Q328.72-3.72 329.92-5.08L329.92-5.08L331.52-3.24Q330.12-1.56 328.02-0.68Q325.92 0.20 323.40 0.20L323.40 0.20Q320.16 0.20 317.66-1.18Q315.16-2.56 313.76-5Q312.36-7.44 312.36-10.52L312.36-10.52Q312.36-13.60 313.70-16.04Q315.04-18.48 317.38-19.84Q319.72-21.20 322.64-21.20L322.64-21.20Q325.56-21.20 327.88-19.84Q330.20-18.48 331.52-16.06Q332.84-13.64 332.84-10.52L332.84-10.52ZM322.64-18.76Q319.60-18.76 317.54-16.82Q315.48-14.88 315.20-11.76L315.20-11.76L330.12-11.76Q329.84-14.88 327.78-16.82Q325.72-18.76 322.64-18.76L322.64-18.76Z M351.36 0.20Q348.24 0.20 345.78-1.16Q343.32-2.52 341.92-4.98Q340.52-7.44 340.52-10.52L340.52-10.52Q340.52-13.60 341.92-16.04Q343.32-18.48 345.78-19.84Q348.24-21.20 351.36-21.20L351.36-21.20Q354.08-21.20 356.22-20.14Q358.36-19.08 359.60-17.04L359.60-17.04L357.48-15.60Q356.44-17.16 354.84-17.94Q353.24-18.72 351.36-18.72L351.36-18.72Q349.08-18.72 347.26-17.70Q345.44-16.68 344.42-14.80Q343.40-12.92 343.40-10.52L343.40-10.52Q343.40-8.08 344.42-6.22Q345.44-4.36 347.26-3.34Q349.08-2.32 351.36-2.32L351.36-2.32Q353.24-2.32 354.84-3.08Q356.44-3.84 357.48-5.40L357.48-5.40L359.60-3.96Q358.36-1.92 356.20-0.86Q354.04 0.20 351.36 0.20L351.36 0.20Z M379.56-21.20Q383.52-21.20 385.86-18.90Q388.20-16.60 388.20-12.20L388.20-12.20L388.20 0L385.36 0L385.36-11.92Q385.36-15.20 383.72-16.92Q382.08-18.64 379.04-18.64L379.04-18.64Q375.64-18.64 373.66-16.62Q371.68-14.60 371.68-11.04L371.68-11.04L371.68 0L368.84 0L368.84-29.68L371.68-29.68L371.68-17.36Q372.84-19.20 374.88-20.20Q376.92-21.20 379.56-21.20L379.56-21.20Z M410.64-21.20Q414.60-21.20 416.94-18.90Q419.28-16.60 419.28-12.20L419.28-12.20L419.28 0L416.44 0L416.44-11.92Q416.44-15.20 414.80-16.92Q413.16-18.64 410.12-18.64L410.12-18.64Q406.72-18.64 404.74-16.62Q402.76-14.60 402.76-11.04L402.76-11.04L402.76 0L399.92 0L399.92-21.04L402.64-21.04L402.64-17.16Q403.80-19.08 405.86-20.14Q407.92-21.20 410.64-21.20L410.64-21.20Z M439.68 0.20Q436.64 0.20 434.20-1.18Q431.76-2.56 430.36-5Q428.96-7.44 428.96-10.52L428.96-10.52Q428.96-13.60 430.36-16.04Q431.76-18.48 434.20-19.84Q436.64-21.20 439.68-21.20L439.68-21.20Q442.72-21.20 445.16-19.84Q447.60-18.48 448.98-16.04Q450.36-13.60 450.36-10.52L450.36-10.52Q450.36-7.44 448.98-5Q447.60-2.56 445.16-1.18Q442.72 0.20 439.68 0.20L439.68 0.20ZM439.68-2.32Q441.92-2.32 443.70-3.34Q445.48-4.36 446.48-6.24Q447.48-8.12 447.48-10.52L447.48-10.52Q447.48-12.92 446.48-14.80Q445.48-16.68 443.70-17.70Q441.92-18.72 439.68-18.72L439.68-18.72Q437.44-18.72 435.66-17.70Q433.88-16.68 432.86-14.80Q431.84-12.92 431.84-10.52L431.84-10.52Q431.84-8.12 432.86-6.24Q433.88-4.36 435.66-3.34Q437.44-2.32 439.68-2.32L439.68-2.32Z M460.16 0L460.16-29.68L463-29.68L463 0L460.16 0Z M483.52 0.20Q480.48 0.20 478.04-1.18Q475.60-2.56 474.20-5Q472.80-7.44 472.80-10.52L472.80-10.52Q472.80-13.60 474.20-16.04Q475.60-18.48 478.04-19.84Q480.48-21.20 483.52-21.20L483.52-21.20Q486.56-21.20 489-19.84Q491.44-18.48 492.82-16.04Q494.20-13.60 494.20-10.52L494.20-10.52Q494.20-7.44 492.82-5Q491.44-2.56 489-1.18Q486.56 0.20 483.52 0.20L483.52 0.20ZM483.52-2.32Q485.76-2.32 487.54-3.34Q489.32-4.36 490.32-6.24Q491.32-8.12 491.32-10.52L491.32-10.52Q491.32-12.92 490.32-14.80Q489.32-16.68 487.54-17.70Q485.76-18.72 483.52-18.72L483.52-18.72Q481.28-18.72 479.50-17.70Q477.72-16.68 476.70-14.80Q475.68-12.92 475.68-10.52L475.68-10.52Q475.68-8.12 476.70-6.24Q477.72-4.36 479.50-3.34Q481.28-2.32 483.52-2.32L483.52-2.32Z M520.76-21.04L523.48-21.04L523.48-2.56Q523.48 2.80 520.86 5.38Q518.24 7.96 512.96 7.96L512.96 7.96Q510.04 7.96 507.42 7.10Q504.80 6.24 503.16 4.72L503.16 4.72L504.60 2.56Q506.12 3.92 508.30 4.68Q510.48 5.44 512.88 5.44L512.88 5.44Q516.88 5.44 518.76 3.58Q520.64 1.72 520.64-2.20L520.64-2.20L520.64-4.88Q519.32-2.88 517.18-1.84Q515.04-0.80 512.44-0.80L512.44-0.80Q509.48-0.80 507.06-2.10Q504.64-3.40 503.26-5.74Q501.88-8.08 501.88-11.04L501.88-11.04Q501.88-14 503.26-16.32Q504.64-18.64 507.04-19.92Q509.44-21.20 512.44-21.20L512.44-21.20Q515.12-21.20 517.28-20.12Q519.44-19.04 520.76-17L520.76-17L520.76-21.04ZM512.72-3.32Q515-3.32 516.84-4.30Q518.68-5.28 519.70-7.04Q520.72-8.80 520.72-11.04L520.72-11.04Q520.72-13.28 519.70-15.02Q518.68-16.76 516.86-17.74Q515.04-18.72 512.72-18.72L512.72-18.72Q510.44-18.72 508.62-17.76Q506.80-16.80 505.78-15.04Q504.76-13.28 504.76-11.04L504.76-11.04Q504.76-8.80 505.78-7.04Q506.80-5.28 508.62-4.30Q510.44-3.32 512.72-3.32L512.72-3.32Z M535.44 0L535.44-21.04L538.28-21.04L538.28 0L535.44 0ZM536.88-25.64Q536-25.64 535.40-26.24Q534.80-26.84 534.80-27.68L534.80-27.68Q534.80-28.48 535.40-29.08Q536-29.68 536.88-29.68L536.88-29.68Q537.76-29.68 538.36-29.10Q538.96-28.52 538.96-27.72L538.96-27.72Q538.96-26.84 538.36-26.24Q537.76-25.64 536.88-25.64L536.88-25.64Z M568.56-10.52L568.52-9.64L550.92-9.64Q551.16-6.36 553.44-4.34Q555.72-2.32 559.20-2.32L559.20-2.32Q561.16-2.32 562.80-3.02Q564.44-3.72 565.64-5.08L565.64-5.08L567.24-3.24Q565.84-1.56 563.74-0.68Q561.64 0.20 559.12 0.20L559.12 0.20Q555.88 0.20 553.38-1.18Q550.88-2.56 549.48-5Q548.08-7.44 548.08-10.52L548.08-10.52Q548.08-13.60 549.42-16.04Q550.76-18.48 553.10-19.84Q555.44-21.20 558.36-21.20L558.36-21.20Q561.28-21.20 563.60-19.84Q565.92-18.48 567.24-16.06Q568.56-13.64 568.56-10.52L568.56-10.52ZM558.36-18.76Q555.32-18.76 553.26-16.82Q551.20-14.88 550.92-11.76L550.92-11.76L565.84-11.76Q565.56-14.88 563.50-16.82Q561.44-18.76 558.36-18.76L558.36-18.76Z M584 0.20Q581.44 0.20 579.10-0.54Q576.76-1.28 575.44-2.40L575.44-2.40L576.72-4.64Q578.04-3.60 580.04-2.94Q582.04-2.28 584.20-2.28L584.20-2.28Q587.08-2.28 588.46-3.18Q589.84-4.08 589.84-5.72L589.84-5.72Q589.84-6.88 589.08-7.54Q588.32-8.20 587.16-8.54Q586-8.88 584.08-9.20L584.08-9.20Q581.52-9.68 579.96-10.18Q578.40-10.68 577.30-11.88Q576.20-13.08 576.20-15.20L576.20-15.20Q576.20-17.84 578.40-19.52Q580.60-21.20 584.52-21.20L584.52-21.20Q586.56-21.20 588.60-20.66Q590.64-20.12 591.96-19.24L591.96-19.24L590.72-16.96Q588.12-18.76 584.52-18.76L584.52-18.76Q581.80-18.76 580.42-17.80Q579.04-16.84 579.04-15.28L579.04-15.28Q579.04-14.08 579.82-13.36Q580.60-12.64 581.76-12.30Q582.92-11.96 584.96-11.60L584.96-11.60Q587.48-11.12 589-10.64Q590.52-10.16 591.60-9Q592.68-7.84 592.68-5.80L592.68-5.80Q592.68-3.04 590.38-1.42Q588.08 0.20 584 0.20L584 0.20Z"/></g>
</svg>
</g><g opacity="1" transform="rotate(0 441.0621 638.4)">
<svg width="319.4019" height="120" x="441.0621" y="638.4" version="1.1" preserveAspectRatio="none" viewBox="2.6 -31.64 85.28 32.04">
  <g transform="matrix(1 0 0 1 0 0)" class="companyName"><path id="id-D6z1nYkh3" d="M13-31.64Q15.92-31.64 18.36-30.24Q20.80-28.84 21.96-26.88L21.96-26.88Q22.12-26.60 22.12-26.24L22.12-26.24Q22.12-25.92 21.94-25.66Q21.76-25.40 21.44-25.24L21.44-25.24Q21.28-25.16 20.96-25.16L20.96-25.16Q20.24-25.16 19.84-25.76L19.84-25.76Q17.48-29.24 13-29.24L13-29.24Q9.68-29.24 7.82-27.74Q5.96-26.24 5.96-23.56L5.96-23.56Q5.96-21.32 7.80-19.80Q9.64-18.28 13.48-17.64L13.48-17.64Q18.52-16.80 20.84-14.54Q23.16-12.28 23.16-8.60L23.16-8.60Q23.16-5.84 21.94-3.80Q20.72-1.76 18.50-0.68Q16.28 0.40 13.36 0.40L13.36 0.40Q9.60 0.40 6.84-1.14Q4.08-2.68 2.72-5.36L2.72-5.36Q2.60-5.60 2.60-5.84L2.60-5.84Q2.60-6.32 2.94-6.64Q3.28-6.96 3.84-6.96L3.84-6.96Q4.64-6.96 5-6.20L5-6.20Q6.08-4.20 8.22-3.10Q10.36-2 13.36-2L13.36-2Q16.80-2 18.78-3.72Q20.76-5.44 20.76-8.60L20.76-8.60Q20.76-11.32 18.82-13.10Q16.88-14.88 13.08-15.40L13.08-15.40Q8.64-16.04 6.10-18.30Q3.56-20.56 3.56-23.80L3.56-23.80Q3.56-26.12 4.74-27.90Q5.92-29.68 8.06-30.66Q10.20-31.64 13-31.64L13-31.64Z M59.32-31.24Q59.84-31.24 60.16-30.90Q60.48-30.56 60.48-30L60.48-30Q60.48-29.84 60.40-29.44L60.40-29.44L52.16-1.04Q52-0.56 51.66-0.28Q51.32 0 50.92 0L50.92 0Q50.44 0 50.12-0.28Q49.80-0.56 49.68-1.04L49.68-1.04L42.88-25.08L36.16-1.04Q35.76 0 34.88 0L34.88 0Q34.44 0 34.10-0.30Q33.76-0.60 33.64-1.04L33.64-1.04L25.36-29.44Q25.28-29.84 25.28-29.96L25.28-29.96Q25.28-30.52 25.60-30.88Q25.92-31.24 26.48-31.24L26.48-31.24Q27.40-31.24 27.64-30.32L27.64-30.32L34.88-5.28L41.76-29.28Q41.84-29.60 42.18-29.82Q42.52-30.04 42.88-30.04L42.88-30.04Q43.28-30.04 43.60-29.82Q43.92-29.60 44.04-29.24L44.04-29.24L50.92-5.28L58.16-30.44Q58.24-30.80 58.56-31.02Q58.88-31.24 59.32-31.24L59.32-31.24Z M86.80-31.24Q87.28-31.24 87.58-30.94Q87.88-30.64 87.88-30.16L87.88-30.16Q87.88-29.68 87.58-29.38Q87.28-29.08 86.80-29.08L86.80-29.08L76.68-29.08L76.68-1.20Q76.68-0.68 76.34-0.34Q76 0 75.48 0L75.48 0Q74.96 0 74.62-0.34Q74.28-0.68 74.28-1.20L74.28-1.20L74.28-29.08L64.16-29.08Q63.68-29.08 63.38-29.38Q63.08-29.68 63.08-30.16L63.08-30.16Q63.08-30.64 63.38-30.94Q63.68-31.24 64.16-31.24L64.16-31.24L86.80-31.24Z"/></g>
</svg>
</g></svg></svg>