<svg version="1.1" preserveAspectRatio="none" xmlns="http://www.w3.org/2000/svg" width="500" height="500" viewBox="0 0 500 500"><rect width="100%" height="100%" fill="#FFFFFF" fill-opacity="1"/><svg viewBox="19.4796 143.4 461.0405 212" width="333" height="153.12320718028025" x="83.5px" y="173.4384px" xmlns="http://www.w3.org/2000/svg" xmlns:xlink="http://www.w3.org/1999/xlink" preserveAspectRatio="none"><defs></defs><style>.icon1 {fill:#0C0C0C;fill-opacity:1;}.icon2 {fill:#DFDFDF;fill-opacity:1;}.icon3 {fill:#929292;fill-opacity:1;}.icon3-str {stroke:#929292;stroke-opacity:1;}</style><g opacity="1" transform="rotate(0 19.4796 337.4)">
<svg width="461.0405" height="18" x="19.4796" y="337.4" version="1.1" preserveAspectRatio="none" viewBox="1.4063 -30.5078 799.4140000000001 31.2109">
  <g transform="matrix(1 0 0 1 0 0)" class="icon3"><path id="id-6izo4zJp24" d="M1.41-5.86L1.41-5.86L4.84-7.07Q6.02-5 8.07-3.79Q10.12-2.58 12.81-2.58L12.81-2.58Q15.70-2.58 17.50-3.98Q19.30-5.39 19.30-7.77L19.30-7.77Q19.30-9.02 18.77-9.98Q18.24-10.94 17.11-11.64Q15.98-12.34 14.98-12.77Q13.98-13.20 12.30-13.75L12.30-13.75Q7.66-15.27 5.94-16.37L5.94-16.37Q2.42-18.63 2.42-22.58L2.42-22.58Q2.42-26.17 5.21-28.34Q8.01-30.51 12.58-30.51L12.58-30.51Q16.17-30.51 18.79-28.85Q21.41-27.19 22.58-24.65L22.58-24.65L19.34-23.55Q16.95-27.27 12.50-27.27L12.50-27.27Q9.65-27.27 7.99-25.98Q6.33-24.69 6.33-22.58L6.33-22.58Q6.33-21.37 6.91-20.43Q7.50-19.49 8.71-18.81Q9.92-18.13 11.02-17.70Q12.11-17.27 13.91-16.68L13.91-16.68Q14.41-16.52 14.65-16.45L14.65-16.45Q16.52-15.82 17.83-15.21Q19.14-14.61 20.49-13.61Q21.84-12.62 22.52-11.19Q23.20-9.77 23.20-7.89L23.20-7.89Q23.20-3.83 20.33-1.56Q17.46 0.70 12.73 0.70L12.73 0.70Q8.67 0.70 5.76-1.07Q2.85-2.85 1.41-5.86Z M36.60-14.88L36.60-14.88Q36.60-22.11 40.18-26.31Q43.75-30.51 49.49-30.51L49.49-30.51Q53.09-30.51 55.63-28.54Q58.16-26.56 59.41-23.75L59.41-23.75L56.17-22.66Q53.55-27.27 49.41-27.27L49.41-27.27Q45.31-27.27 42.91-23.89Q40.51-20.51 40.51-14.88L40.51-14.88Q40.51-9.18 42.95-5.88Q45.39-2.58 49.41-2.58L49.41-2.58Q51.99-2.58 53.93-4.04Q55.86-5.51 56.80-7.66L56.80-7.66L60.20-6.56Q59.61-5.23 58.73-4.06Q57.85-2.89 56.56-1.76Q55.27-0.63 53.46 0.04Q51.64 0.70 49.49 0.70L49.49 0.70Q43.83 0.70 40.21-3.44Q36.60-7.58 36.60-14.88Z M78.87-26.56L78.87-15.78L86.29-15.78Q89.14-15.78 90.66-17.25Q92.19-18.71 92.19-21.25L92.19-21.25Q92.19-23.63 90.59-25.10Q88.98-26.56 86.05-26.56L86.05-26.56L78.87-26.56ZM78.87 0L75.08 0L75.08-29.80L86.84-29.80Q91.29-29.80 93.69-27.42Q96.09-25.04 96.09-21.52L96.09-21.52Q96.09-18.40 94.59-16.45Q93.09-14.49 91.21-13.95L91.21-13.95Q92.77-13.05 93.48-11.84Q94.18-10.63 94.65-8.36L94.65-8.36Q95.08-6.52 95.33-5.53Q95.59-4.53 96.19-3.03Q96.80-1.52 97.70 0L97.70 0L93.44 0Q91.84-2.85 90.66-8.09L90.66-8.09Q90.16-10.23 89.20-11.39Q88.24-12.54 86.13-12.54L86.13-12.54L78.87-12.54L78.87 0Z M115.82 0L112.03 0L112.03-29.80L115.82-29.80L115.82 0Z M137.30 0L133.52 0L133.52-29.80L144.88-29.80Q149.34-29.80 151.89-27.38Q154.45-24.96 154.45-20.94L154.45-20.94Q154.45-16.84 151.84-14.45Q149.22-12.07 144.92-12.07L144.92-12.07L137.30-12.07L137.30 0ZM137.30-26.56L137.30-15.27L144.38-15.27Q147.30-15.27 148.93-16.70Q150.55-18.13 150.55-20.94L150.55-20.94Q150.55-23.67 148.95-25.12Q147.34-26.56 144.30-26.56L144.30-26.56L137.30-26.56Z M175-26.56L166.09-26.56L166.09-29.80L187.70-29.80L187.70-26.56L178.79-26.56L178.79 0L175 0L175-26.56Z M199.41-14.88L199.41-14.88Q199.41-21.91 202.83-26.21Q206.25-30.51 211.95-30.51L211.95-30.51Q217.70-30.51 221.07-26.21Q224.45-21.91 224.45-14.84L224.45-14.84Q224.45-7.73 221.04-3.52Q217.62 0.70 211.95 0.70L211.95 0.70Q206.25 0.70 202.83-3.54Q199.41-7.77 199.41-14.88ZM203.32-14.88L203.32-14.88Q203.32-9.22 205.64-5.90Q207.97-2.58 211.95-2.58L211.95-2.58Q215.90-2.58 218.22-5.84Q220.55-9.10 220.55-14.84L220.55-14.84Q220.55-20.51 218.28-23.89Q216.02-27.27 211.95-27.27L211.95-27.27Q207.97-27.27 205.64-23.91Q203.32-20.55 203.32-14.88Z M263.48 0L256.56-29.80L260.66-29.80L264.45-10.94Q265.31-5.90 265.59-4.22L265.59-4.22L265.82-4.22Q265.94-4.80 266.43-7.29Q266.91-9.77 267.15-10.94L267.15-10.94L271.52-29.80L275.47-29.80L279.92-10.94Q280.31-9.26 281.25-4.22L281.25-4.22L281.41-4.22Q281.48-4.69 282.58-10.94L282.58-10.94L286.41-29.80L290.51-29.80L283.59 0L279.18 0L274.88-18.63Q274.73-19.34 274.45-20.64Q274.18-21.95 273.96-23.03Q273.75-24.10 273.59-25.08L273.59-25.08L273.44-25.08Q273.32-24.38 272.15-18.63L272.15-18.63L267.85 0L263.48 0Z M324.06 0L304.77 0L304.77-29.80L323.71-29.80L323.71-26.56L308.55-26.56L308.55-16.99L322.23-16.99L322.23-13.83L308.55-13.83L308.55-3.24L324.06-3.24L324.06 0Z M351.88 0L339.34 0L339.34-29.80L350.43-29.80Q354.88-29.80 357.19-27.71Q359.49-25.63 359.49-22.07L359.49-22.07Q359.49-19.77 358.34-18.13Q357.19-16.48 355.39-15.66L355.39-15.66Q357.54-15 359.06-13.07Q360.59-11.13 360.59-8.44L360.59-8.44Q360.59-4.92 358.28-2.46Q355.98 0 351.88 0L351.88 0ZM343.13-13.75L343.13-3.24L351.05-3.24Q353.44-3.24 355.06-4.61Q356.68-5.98 356.68-8.40L356.68-8.40Q356.68-10.70 355.12-12.23Q353.55-13.75 350.90-13.75L350.90-13.75L343.13-13.75ZM343.13-26.56L343.13-16.91L349.88-16.91Q352.34-16.91 353.96-18.14Q355.59-19.38 355.59-21.80L355.59-21.80Q355.59-23.95 354.26-25.25Q352.93-26.56 350.04-26.56L350.04-26.56L343.13-26.56Z M401.60-26.56L392.70-26.56L392.70-29.80L414.30-29.80L414.30-26.56L405.39-26.56L405.39 0L401.60 0L401.60-26.56Z M447.81 0L428.52 0L428.52-29.80L447.46-29.80L447.46-26.56L432.30-26.56L432.30-16.99L445.98-16.99L445.98-13.83L432.30-13.83L432.30-3.24L447.81-3.24L447.81 0Z M461.13-14.88L461.13-14.88Q461.13-22.11 464.71-26.31Q468.28-30.51 474.02-30.51L474.02-30.51Q477.62-30.51 480.16-28.54Q482.70-26.56 483.95-23.75L483.95-23.75L480.70-22.66Q478.09-27.27 473.95-27.27L473.95-27.27Q469.84-27.27 467.44-23.89Q465.04-20.51 465.04-14.88L465.04-14.88Q465.04-9.18 467.48-5.88Q469.92-2.58 473.95-2.58L473.95-2.58Q476.52-2.58 478.46-4.04Q480.39-5.51 481.33-7.66L481.33-7.66L484.73-6.56Q484.14-5.23 483.26-4.06Q482.38-2.89 481.09-1.76Q479.80-0.63 477.99 0.04Q476.17 0.70 474.02 0.70L474.02 0.70Q468.36 0.70 464.75-3.44Q461.13-7.58 461.13-14.88Z M503.40 0L499.61 0L499.61-29.80L503.40-29.80L503.40-16.91L517.15-16.91L517.15-29.80L520.94-29.80L520.94 0L517.15 0L517.15-13.75L503.40-13.75L503.40 0Z M542.42 0L538.63 0L538.63-29.80L542.81-29.80L553.13-11.68L556.60-5.51L556.84-5.51Q556.33-9.14 556.33-13.98L556.33-13.98L556.33-29.80L560.12-29.80L560.12 0L555.94 0L545.63-18.09L542.15-24.26L541.99-24.26Q542.42-20.20 542.42-15.78L542.42-15.78L542.42 0Z M575.90-14.88L575.90-14.88Q575.90-21.91 579.32-26.21Q582.73-30.51 588.44-30.51L588.44-30.51Q594.18-30.51 597.56-26.21Q600.94-21.91 600.94-14.84L600.94-14.84Q600.94-7.73 597.52-3.52Q594.10 0.70 588.44 0.70L588.44 0.70Q582.73 0.70 579.32-3.54Q575.90-7.77 575.90-14.88ZM579.80-14.88L579.80-14.88Q579.80-9.22 582.13-5.90Q584.45-2.58 588.44-2.58L588.44-2.58Q592.38-2.58 594.71-5.84Q597.03-9.10 597.03-14.84L597.03-14.84Q597.03-20.51 594.77-23.89Q592.50-27.27 588.44-27.27L588.44-27.27Q584.45-27.27 582.13-23.91Q579.80-20.55 579.80-14.88Z M634.41 0L616.68 0L616.68-29.80L620.47-29.80L620.47-3.24L634.41-3.24L634.41 0Z M645.82-14.88L645.82-14.88Q645.82-21.91 649.24-26.21Q652.66-30.51 658.36-30.51L658.36-30.51Q664.10-30.51 667.48-26.21Q670.86-21.91 670.86-14.84L670.86-14.84Q670.86-7.73 667.44-3.52Q664.02 0.70 658.36 0.70L658.36 0.70Q652.66 0.70 649.24-3.54Q645.82-7.77 645.82-14.88ZM649.73-14.88L649.73-14.88Q649.73-9.22 652.05-5.90Q654.38-2.58 658.36-2.58L658.36-2.58Q662.30-2.58 664.63-5.84Q666.95-9.10 666.95-14.84L666.95-14.84Q666.95-20.51 664.69-23.89Q662.42-27.27 658.36-27.27L658.36-27.27Q654.38-27.27 652.05-23.91Q649.73-20.55 649.73-14.88Z M684.65-14.88L684.65-14.88Q684.65-21.76 688.18-26.13Q691.72-30.51 697.77-30.51L697.77-30.51Q699.88-30.51 701.70-29.84Q703.52-29.18 704.75-28.11Q705.98-27.03 706.74-26.00Q707.50-24.96 708.01-23.91L708.01-23.91L704.77-22.81Q701.99-27.27 697.77-27.27L697.77-27.27Q693.40-27.27 690.98-23.87Q688.55-20.47 688.55-14.88L688.55-14.88Q688.55-9.14 691.05-5.86Q693.55-2.58 697.62-2.58L697.62-2.58Q701.25-2.58 703.24-4.86Q705.23-7.15 705.31-10.39L705.31-10.39Q705.31-10.74 705.33-11.70Q705.35-12.66 705.35-13.05L705.35-13.05L697.30-13.05L697.30-16.29L709.02-16.29L709.02 0L706.33 0L706.02-3.91Q703.59 0.70 697.50 0.70L697.50 0.70Q691.84 0.70 688.24-3.50Q684.65-7.70 684.65-14.88Z M729.22 0L725.43 0L725.43-29.80L729.22-29.80L729.22 0Z M766.21 0L746.91 0L746.91-29.80L765.86-29.80L765.86-26.56L750.70-26.56L750.70-16.99L764.38-16.99L764.38-13.83L750.70-13.83L750.70-3.24L766.21-3.24L766.21 0Z M779.02-5.86L779.02-5.86L782.46-7.07Q783.63-5 785.68-3.79Q787.73-2.58 790.43-2.58L790.43-2.58Q793.32-2.58 795.12-3.98Q796.91-5.39 796.91-7.77L796.91-7.77Q796.91-9.02 796.39-9.98Q795.86-10.94 794.73-11.64Q793.59-12.34 792.60-12.77Q791.60-13.20 789.92-13.75L789.92-13.75Q785.27-15.27 783.55-16.37L783.55-16.37Q780.04-18.63 780.04-22.58L780.04-22.58Q780.04-26.17 782.83-28.34Q785.63-30.51 790.20-30.51L790.20-30.51Q793.79-30.51 796.41-28.85Q799.02-27.19 800.20-24.65L800.20-24.65L796.95-23.55Q794.57-27.27 790.12-27.27L790.12-27.27Q787.27-27.27 785.61-25.98Q783.95-24.69 783.95-22.58L783.95-22.58Q783.95-21.37 784.53-20.43Q785.12-19.49 786.33-18.81Q787.54-18.13 788.63-17.70Q789.73-17.27 791.52-16.68L791.52-16.68Q792.03-16.52 792.27-16.45L792.27-16.45Q794.14-15.82 795.45-15.21Q796.76-14.61 798.11-13.61Q799.45-12.62 800.14-11.19Q800.82-9.77 800.82-7.89L800.82-7.89Q800.82-3.83 797.95-1.56Q795.08 0.70 790.35 0.70L790.35 0.70Q786.29 0.70 783.38-1.07Q780.47-2.85 779.02-5.86Z"/></g>
</svg>
</g><g opacity="1" transform="rotate(0 221.4255 143.4)">
<svg width="57.1487" height="84" x="221.4255" y="143.4" version="1.1" preserveAspectRatio="none" viewBox="13259.69140625 5395.4404296875 33478.9921875 49208.9921875">
  <g transform="matrix(-1 0 0 1 59998.375 0)" class="icon1"><defs></defs><g><path class="fil0" d="M44750 54476c-2643,-2420 -4749,-5013 -6470,-7713 -3760,4204 -7837,5291 -11739,4882 -3918,-410 -7630,-2332 -10663,-4100 -191,-110 -256,-355 -145,-545 28,-49 66,-90 108,-121 1838,-1488 3840,-2620 5866,-3428 3251,-1297 6567,-1760 9375,-1525 2195,184 4092,798 5427,1779 -165,-314 -326,-630 -483,-946 -493,-994 -946,-1998 -1367,-3007 -38,17 -80,29 -124,33 -7102,753 -11792,-1700 -15029,-5397 -3208,-3663 -4962,-8533 -6229,-12692 -64,-211 55,-433 266,-497 47,-14 94,-19 141,-16l0 -1c1917,127 3771,453 5533,936 1427,392 2792,886 4079,1462 -365,-725 -658,-1477 -891,-2247 -1138,-3768 -803,-7936 -346,-11419 28,-218 229,-372 447,-344 55,7 106,25 151,52 2086,1120 3905,2527 5433,4081 909,924 1715,1900 2415,2900 491,-2239 1560,-4204 2885,-5961 1459,-1934 3232,-3617 4878,-5141 161,-149 413,-139 563,22 34,36 59,77 77,121l1 -1c891,2199 1392,4450 1573,6628 291,3484 -235,6791 -1282,9411 -1065,2666 -2679,4635 -4537,5388 -345,140 -697,238 -1056,292 -118,521 -292,1003 -525,1438 -222,415 -496,786 -823,1108 -10,10 -21,20 -32,29 1234,3472 2605,6970 4395,10338 33,-635 128,-1284 275,-1943 -49,-45 -87,-102 -109,-169 -7,-22 -13,-45 -16,-68 -213,-211 -391,-455 -537,-726 -618,-1154 -610,-2804 -38,-4567 557,-1716 1651,-3556 3219,-5151 975,-991 2135,-1889 3465,-2604 45,-27 96,-45 151,-52 218,-28 418,125 447,344 291,2217 504,4873 -224,7281 -733,2427 -2403,4581 -5858,5760 -219,967 -325,1907 -278,2807 123,220 248,439 375,658 2244,3866 5121,7530 9082,10754 121,99 173,233 161,394 -8,117 -63,279 -153,449 -74,140 -181,303 -309,461 -314,386 -766,734 -1260,699 -105,-7 -198,-55 -265,-127zm-27393 -7749c3479,-580 6709,-976 9902,-1131 3356,-163 6666,-60 10173,375 -129,-273 -294,-531 -491,-774 -1123,-1385 -3277,-2251 -5924,-2474 -2698,-227 -5886,220 -9016,1468 -1587,633 -3159,1473 -4644,2536zm20105 -250c-3512,-441 -6823,-546 -10180,-383 -3290,160 -6629,579 -10250,1195 2812,1595 6139,3202 9590,3563 3592,376 7346,-603 10840,-4375zm5353 -19969c-466,926 -973,1878 -1487,2842 -1435,2691 -2918,5473 -3686,8094 2823,-1109 4219,-2972 4848,-5053 574,-1901 522,-3998 325,-5882zm-5659 10821c780,-2678 2281,-5492 3733,-8214 514,-963 1021,-1915 1489,-2847 -893,572 -1693,1232 -2393,1944 -1478,1502 -2507,3231 -3028,4838 -506,1560 -532,2987 -18,3945 64,119 136,231 218,335zm-22766 -15290c2906,3292 5797,5907 8940,8306 3125,2385 6497,4557 10378,6968 -856,-2337 -1568,-4694 -2221,-7035 -3637,-1248 -5997,-3191 -7494,-5487 -1546,-769 -3218,-1419 -4984,-1904 -1476,-405 -3021,-696 -4618,-847zm19602 16037c-4127,-2557 -7683,-4829 -10965,-7334 -2996,-2287 -5766,-4769 -8537,-7841 1206,3727 2866,7822 5616,10962 3064,3499 7509,5825 14247,5138 -123,-308 -243,-616 -361,-925zm4523 -31220c-570,1988 -1337,3807 -2111,5642 -1291,3061 -2600,6167 -3017,10157 358,1384 481,2701 358,3870 209,-47 416,-112 619,-194 1654,-670 3112,-2477 4096,-4941 1003,-2511 1506,-5690 1226,-9052 -150,-1802 -526,-3654 -1171,-5480zm-5482 14625c530,-3527 1729,-6370 2913,-9176 752,-1783 1497,-3551 2056,-5466 -1372,1292 -2781,2704 -3973,4284 -1407,1866 -2509,3968 -2879,6389 -2,16 -6,32 -10,48 815,1305 1450,2633 1894,3921zm-9713 -10560c1763,2940 3450,5838 4867,8768 1545,3196 2766,6426 3407,9782l15 5c20,-50 50,-97 91,-137 270,-266 496,-572 679,-914 842,-1572 807,-3894 -13,-6420 -835,-2574 -2481,-5340 -4845,-7743 -1216,-1237 -2621,-2376 -4202,-3342zm7726 18348c-646,-3201 -1825,-6296 -3308,-9363 -1447,-2993 -3186,-5965 -5001,-8986 -379,3199 -566,6871 434,10182 325,1077 778,2117 1393,3093 68,55 115,129 136,211 1315,1989 3328,3694 6346,4864zm4865 11369c264,592 541,1182 832,1768 1997,4026 4652,7891 8439,11385 157,-50 331,-214 475,-390 90,-111 166,-228 222,-333l3 -6c-3947,-3254 -6826,-6937 -9078,-10816 -309,-533 -606,-1069 -893,-1608z"></path></g></g>
</svg>
</g><g opacity="1" transform="rotate(0 166.9551 253.4)">
<svg width="166.0896" height="60" x="166.9551" y="253.4" version="1.1" preserveAspectRatio="none" viewBox="2.0313 -28.9062 81.9859 29.6094">
  <g transform="matrix(1 0 0 1 0 0)" class="icon1"><path id="id-D6z1nYkh3" d="M2.03-4.69L2.03-4.69L3.75-5.35Q5-3.32 7.15-2.09Q9.30-0.86 12.03-0.86L12.03-0.86Q15.39-0.86 17.52-2.52Q19.65-4.18 19.65-7.11L19.65-7.11Q19.65-8.52 19.06-9.59Q18.48-10.66 17.17-11.46Q15.86-12.27 14.82-12.68Q13.79-13.09 11.88-13.75L11.88-13.75Q10.12-14.34 9.18-14.67Q8.24-15 6.82-15.74Q5.39-16.48 4.65-17.23Q3.91-17.97 3.34-19.16Q2.77-20.35 2.77-21.80L2.77-21.80Q2.77-25.08 5.21-26.99Q7.66-28.91 11.88-28.91L11.88-28.91Q14.88-28.91 17.19-27.52Q19.49-26.13 20.59-24.14L20.59-24.14L19.02-23.52Q16.56-27.30 11.76-27.30L11.76-27.30Q8.40-27.30 6.50-25.80Q4.61-24.30 4.61-21.80L4.61-21.80Q4.61-20.66 5.12-19.71Q5.63-18.75 6.29-18.13Q6.95-17.50 8.22-16.89Q9.49-16.29 10.37-15.96Q11.25-15.63 12.85-15.12L12.85-15.12Q14.49-14.57 15.47-14.20Q16.45-13.83 17.73-13.13Q19.02-12.42 19.75-11.66Q20.47-10.90 21.00-9.75Q21.52-8.59 21.52-7.19L21.52-7.19Q21.52-3.48 18.98-1.39Q16.45 0.70 11.95 0.70L11.95 0.70Q5.27 0.70 2.03-4.69Z M34.10 0L27.15-28.16L29.18-28.16L33.94-7.70Q34.33-5.90 35.11-2.07L35.11-2.07L35.27-2.07Q35.50-3.05 35.93-4.92Q36.36-6.80 36.60-7.70L36.60-7.70L41.83-28.16L43.94-28.16L49.22-7.70Q49.45-6.72 49.90-4.82Q50.35-2.93 50.54-2.07L50.54-2.07L50.66-2.07Q51.36-5.59 51.87-7.70L51.87-7.70L56.64-28.16L58.67-28.16L51.75 0L49.53 0L44.33-20.12Q43.43-23.63 42.97-25.98L42.97-25.98L42.85-25.98Q42.42-23.91 41.44-20.12L41.44-20.12L36.29 0L34.10 0Z M73.31-26.60L64.41-26.60L64.41-28.16L84.02-28.16L84.02-26.60L75.15-26.60L75.15 0L73.31 0L73.31-26.60Z"/></g>
</svg>
</g></svg></svg>