<svg version="1.1" preserveAspectRatio="none" xmlns="http://www.w3.org/2000/svg" width="500" height="500" viewBox="0 0 500 500"><rect width="100%" height="100%" fill="#192537" fill-opacity="1"/><svg viewBox="532.2736 653.1195 427.2668 206.6664" width="333" height="161.0701116960176" x="83.5px" y="169.4649px" xmlns="http://www.w3.org/2000/svg" xmlns:xlink="http://www.w3.org/1999/xlink" preserveAspectRatio="none"><defs></defs><style>.companyName {fill:#E9E9E9;fill-opacity:1;}.icon1 {fill:#B09E80;fill-opacity:0.98;}.icon2 {fill:#E9E9E9;fill-opacity:1;}.icon3 {fill:#716551;fill-opacity:1;}.icon3-str {stroke:#716551;stroke-opacity:1;}.shapeStroke-str {stroke:#E9E9E9;stroke-opacity:1;}.text {fill:#B09E80;fill-opacity:1;}</style><g opacity="1" transform="rotate(0 532.2736 842.9859)">
<svg width="427.2668" height="16.8" x="532.2736" y="842.9859" version="1.1" preserveAspectRatio="none" viewBox="1.96 -29.8 792.48 31.16">
  <g transform="matrix(1 0 0 1 0 0)" class="text"><path id="id-6izo4zJp24" d="M19.12-23.76Q17.56-24.60 15.80-25.12Q14.04-25.64 12.48-25.64L12.48-25.64Q10.12-25.64 8.74-24.58Q7.36-23.52 7.36-21.68L7.36-21.68Q7.36-19.88 8.98-18.74Q10.60-17.60 13.60-16.48L13.60-16.48Q15.84-15.68 17.38-14.74Q18.92-13.80 19.94-12.14Q20.96-10.48 20.96-7.92L20.96-7.92Q20.96-5.60 19.80-3.72Q18.64-1.84 16.50-0.76Q14.36 0.32 11.48 0.32L11.48 0.32Q8.80 0.32 6.32-0.54Q3.84-1.40 1.96-2.72L1.96-2.72L3.68-5.80Q5.16-4.68 7.24-3.90Q9.32-3.12 11.12-3.12L11.12-3.12Q13.44-3.12 15.18-4.32Q16.92-5.52 16.92-7.88L16.92-7.88Q16.92-9.88 15.46-11.06Q14-12.24 11.36-13.28L11.36-13.28Q8.92-14.20 7.30-15.08Q5.68-15.96 4.52-17.50Q3.36-19.04 3.36-21.36L3.36-21.36Q3.36-24.76 5.74-26.86Q8.12-28.96 11.92-29.08L11.92-29.08Q16.60-29.08 20.60-26.76L20.60-26.76L19.12-23.76Z M56.68-2.16Q55.28-1.24 53.14-0.46Q51 0.32 48.48 0.32L48.48 0.32Q44.04 0.32 40.66-1.64Q37.28-3.60 35.46-6.92Q33.64-10.24 33.64-14.24L33.64-14.24Q33.64-18.52 35.48-21.94Q37.32-25.36 40.58-27.30Q43.84-29.24 47.96-29.24L47.96-29.24Q50.40-29.24 52.52-28.60Q54.64-27.96 56.32-26.92L56.32-26.92L54.76-23.28Q51.44-25.52 48.08-25.52L48.08-25.52Q45.28-25.52 42.90-24.04Q40.52-22.56 39.10-20.02Q37.68-17.48 37.68-14.44L37.68-14.44Q37.68-11.32 38.98-8.80Q40.28-6.28 42.70-4.86Q45.12-3.44 48.28-3.44L48.28-3.44Q52.16-3.44 55.04-5.64L55.04-5.64L56.68-2.16Z M91.64 0L87.12 0L80.32-10.68Q80-10.64 79.36-10.64L79.36-10.64L75.08-10.64L75.08 0L71.20 0L71.20-28.92L78.92-28.92Q81.88-28.92 84.20-27.88Q86.52-26.84 87.84-24.82Q89.16-22.80 89.16-19.96L89.16-19.96Q89.16-17.28 87.98-15.04Q86.80-12.80 84.36-11.64L84.36-11.64L91.64 0ZM79.28-14.40Q82.40-14.40 83.78-16.04Q85.16-17.68 85.16-19.80L85.16-19.80Q85.16-21.08 84.58-22.32Q84-23.56 82.74-24.38Q81.48-25.20 79.56-25.20L79.56-25.20L75.08-25.20L75.08-14.40L79.28-14.40Z M105.60-28.92L109.48-28.92L109.48 0L105.60 0L105.60-28.92Z M133.56-28.92Q138.28-28.92 140.94-26.56Q143.60-24.20 143.60-19.96L143.60-19.96Q143.60-17.52 142.62-15.40Q141.64-13.28 139.46-11.96Q137.28-10.64 133.96-10.64L133.96-10.64L129.68-10.64L129.68 0L125.80 0L125.80-28.92L133.56-28.92ZM133.96-14.40Q136.04-14.40 137.34-15.28Q138.64-16.16 139.20-17.42Q139.76-18.68 139.76-19.88L139.76-19.88Q139.76-21.96 138.40-23.58Q137.04-25.20 134.16-25.20L134.16-25.20L129.68-25.20L129.68-14.40L133.96-14.40Z M155.48-28.92L174.68-28.92L174.68-25.20L166.92-25.20L166.92 0L163.04 0L163.04-25.20L155.48-25.20L155.48-28.92Z M185.84-14.44Q185.84-18.40 187.84-21.80Q189.84-25.20 193.22-27.22Q196.60-29.24 200.60-29.24L200.60-29.24Q204.56-29.24 207.96-27.22Q211.36-25.20 213.38-21.80Q215.40-18.40 215.40-14.44L215.40-14.44Q215.40-10.44 213.40-7.04Q211.40-3.64 207.98-1.66Q204.56 0.32 200.60 0.32L200.60 0.32Q196.60 0.32 193.20-1.64Q189.80-3.60 187.82-6.98Q185.84-10.36 185.84-14.44L185.84-14.44ZM189.84-14.40Q189.84-11.44 191.28-8.92Q192.72-6.40 195.22-4.92Q197.72-3.44 200.68-3.44L200.68-3.44Q203.64-3.44 206.10-4.90Q208.56-6.36 209.98-8.90Q211.40-11.44 211.40-14.44L211.40-14.44Q211.40-17.44 209.96-20Q208.52-22.56 206.04-24.04Q203.56-25.52 200.60-25.52L200.60-25.52Q197.64-25.52 195.16-24.02Q192.68-22.52 191.26-19.96Q189.84-17.40 189.84-14.40L189.84-14.40Z M285.12-28.80L273.72 1.28L266.96-16L259.56 1.36L248.04-28.80L252.56-28.80L260.04-7.76L265.04-20.88L261.96-28.80L265.80-28.80L273.84-8.20L280.96-28.80L285.12-28.80Z M298.88-28.92L317.68-28.92L317.68-25.20L302.76-25.20L302.76-16.40L316.08-16.40L316.08-12.68L302.76-12.68L302.76-3.76L318.24-3.76L318.24 0L298.88 0L298.88-28.92Z M345.88-15Q348.36-14.04 349.80-12.26Q351.24-10.48 351.24-8.12L351.24-8.12Q351.24-5.36 349.90-3.54Q348.56-1.72 346.38-0.86Q344.20 0 341.60 0L341.60 0L333.00 0L333.00-28.92L340.48-28.92Q344.92-28.92 347.36-27.10Q349.80-25.28 349.80-21.64L349.80-21.64Q349.80-19.36 348.78-17.66Q347.76-15.96 345.88-15L345.88-15ZM336.88-25.20L336.88-16.28L341.28-16.28Q343.52-16.28 344.66-17.56Q345.80-18.84 345.80-20.84L345.80-20.84Q345.80-23.04 344.44-24.12Q343.08-25.20 340.64-25.20L340.64-25.20L336.88-25.20ZM341.44-3.60Q343.96-3.60 345.60-4.74Q347.24-5.88 347.24-8.08L347.24-8.08Q347.24-10.36 345.46-11.44Q343.68-12.52 341.16-12.52L341.16-12.52L336.88-12.52L336.88-3.60L341.44-3.60Z M384.28-28.92L403.48-28.92L403.48-25.20L395.72-25.20L395.72 0L391.84 0L391.84-25.20L384.28-25.20L384.28-28.92Z M417.68-28.92L436.48-28.92L436.48-25.20L421.56-25.20L421.56-16.40L434.88-16.40L434.88-12.68L421.56-12.68L421.56-3.76L437.04-3.76L437.04 0L417.68 0L417.68-28.92Z M473.04-2.16Q471.64-1.24 469.50-0.46Q467.36 0.32 464.84 0.32L464.84 0.32Q460.40 0.32 457.02-1.64Q453.64-3.60 451.82-6.92Q450-10.24 450-14.24L450-14.24Q450-18.52 451.84-21.94Q453.68-25.36 456.94-27.30Q460.20-29.24 464.32-29.24L464.32-29.24Q466.76-29.24 468.88-28.60Q471-27.96 472.68-26.92L472.68-26.92L471.12-23.28Q467.80-25.52 464.44-25.52L464.44-25.52Q461.64-25.52 459.26-24.04Q456.88-22.56 455.46-20.02Q454.04-17.48 454.04-14.44L454.04-14.44Q454.04-11.32 455.34-8.80Q456.64-6.28 459.06-4.86Q461.48-3.44 464.64-3.44L464.64-3.44Q468.52-3.44 471.40-5.64L471.40-5.64L473.04-2.16Z M510.48-28.92L510.48 0L506.60 0L506.60-12.68L491.44-12.68L491.44 0L487.56 0L487.56-28.92L491.44-28.92L491.44-16.40L506.60-16.40L506.60-28.92L510.48-28.92Z M548.12-28.92L552-28.92L552 0.96L551.88 0.96L530.64-20.60L530.72 0L526.80 0L526.80-29.80L527-29.80L548.20-8L548.12-28.92Z M566.52-14.44Q566.52-18.40 568.52-21.80Q570.52-25.20 573.90-27.22Q577.28-29.24 581.28-29.24L581.28-29.24Q585.24-29.24 588.64-27.22Q592.04-25.20 594.06-21.80Q596.08-18.40 596.08-14.44L596.08-14.44Q596.08-10.44 594.08-7.04Q592.08-3.64 588.66-1.66Q585.24 0.32 581.28 0.32L581.28 0.32Q577.28 0.32 573.88-1.64Q570.48-3.60 568.50-6.98Q566.52-10.36 566.52-14.44L566.52-14.44ZM570.52-14.40Q570.52-11.44 571.96-8.92Q573.40-6.40 575.90-4.92Q578.40-3.44 581.36-3.44L581.36-3.44Q584.32-3.44 586.78-4.90Q589.24-6.36 590.66-8.90Q592.08-11.44 592.08-14.44L592.08-14.44Q592.08-17.44 590.64-20Q589.20-22.56 586.72-24.04Q584.24-25.52 581.28-25.52L581.28-25.52Q578.32-25.52 575.84-24.02Q573.36-22.52 571.94-19.96Q570.52-17.40 570.52-14.40L570.52-14.40Z M610.60-28.92L614.48-28.92L614.48-3.76L629.20-3.76L629.20 0L610.60 0L610.60-28.92Z M641.16-14.44Q641.16-18.40 643.16-21.80Q645.16-25.20 648.54-27.22Q651.92-29.24 655.92-29.24L655.92-29.24Q659.88-29.24 663.28-27.22Q666.68-25.20 668.70-21.80Q670.72-18.40 670.72-14.44L670.72-14.44Q670.72-10.44 668.72-7.04Q666.72-3.64 663.30-1.66Q659.88 0.32 655.92 0.32L655.92 0.32Q651.92 0.32 648.52-1.64Q645.12-3.60 643.14-6.98Q641.16-10.36 641.16-14.44L641.16-14.44ZM645.16-14.40Q645.16-11.44 646.60-8.92Q648.04-6.40 650.54-4.92Q653.04-3.44 656-3.44L656-3.44Q658.96-3.44 661.42-4.90Q663.88-6.36 665.30-8.90Q666.72-11.44 666.72-14.44L666.72-14.44Q666.72-17.44 665.28-20Q663.84-22.56 661.36-24.04Q658.88-25.52 655.92-25.52L655.92-25.52Q652.96-25.52 650.48-24.02Q648-22.52 646.58-19.96Q645.16-17.40 645.16-14.40L645.16-14.40Z M707.92-2.48Q706.60-1.44 703.78-0.56Q700.96 0.32 698.56 0.32L698.56 0.32Q694.04 0.32 690.60-1.54Q687.16-3.40 685.30-6.64Q683.44-9.88 683.44-13.92L683.44-13.92Q683.44-18.64 685.44-22.10Q687.44-25.56 690.84-27.40Q694.24-29.24 698.28-29.24L698.28-29.24Q700.72-29.24 702.88-28.66Q705.04-28.08 706.76-27.12L706.76-27.12L705.48-23.56Q704.20-24.28 702.26-24.82Q700.32-25.36 698.76-25.36L698.76-25.36Q695.40-25.36 692.82-24Q690.24-22.64 688.84-20.12Q687.44-17.60 687.44-14.24L687.44-14.24Q687.44-11.12 688.84-8.68Q690.24-6.24 692.80-4.90Q695.36-3.56 698.64-3.56L698.64-3.56Q700.16-3.56 701.60-3.86Q703.04-4.16 704.00-4.72L704.00-4.72L704.00-10.44L698.24-10.44L698.24-14.16L707.92-14.16L707.92-2.48Z M723.32-28.92L727.20-28.92L727.20 0L723.32 0L723.32-28.92Z M743.52-28.92L762.32-28.92L762.32-25.20L747.40-25.20L747.40-16.40L760.72-16.40L760.72-12.68L747.40-12.68L747.40-3.76L762.88-3.76L762.88 0L743.52 0L743.52-28.92Z M792.60-23.76Q791.04-24.60 789.28-25.12Q787.52-25.64 785.96-25.64L785.96-25.64Q783.60-25.64 782.22-24.58Q780.84-23.52 780.84-21.68L780.84-21.68Q780.84-19.88 782.46-18.74Q784.08-17.60 787.08-16.48L787.08-16.48Q789.32-15.68 790.86-14.74Q792.40-13.80 793.42-12.14Q794.44-10.48 794.44-7.92L794.44-7.92Q794.44-5.60 793.28-3.72Q792.12-1.84 789.98-0.76Q787.84 0.32 784.96 0.32L784.96 0.32Q782.28 0.32 779.80-0.54Q777.32-1.40 775.44-2.72L775.44-2.72L777.16-5.80Q778.64-4.68 780.72-3.90Q782.80-3.12 784.60-3.12L784.60-3.12Q786.92-3.12 788.66-4.32Q790.40-5.52 790.40-7.88L790.40-7.88Q790.40-9.88 788.94-11.06Q787.48-12.24 784.84-13.28L784.84-13.28Q782.40-14.20 780.78-15.08Q779.16-15.96 778-17.50Q776.84-19.04 776.84-21.36L776.84-21.36Q776.84-24.76 779.22-26.86Q781.60-28.96 785.40-29.08L785.40-29.08Q790.08-29.08 794.08-26.76L794.08-26.76L792.60-23.76Z"/></g>
</svg>
</g><g opacity="1" transform="rotate(0 730.907 653.1195)">
<svg width="30" height="23.7328" x="730.907" y="653.1195" version="1.1" preserveAspectRatio="none" viewBox="25.9679012298584 30.976905822753903 48.06419372558594 38.023284912109375">
  <g transform="matrix(1 0 0 1 0 0)" class="icon1"><title>Artboard 265</title><path d="M32,69H68a2,2,0,0,0,2-1.67l4-24a2,2,0,0,0-3-2.07L58.93,48.17l-7.1-16a2,2,0,0,0-3.66,0l-7.1,16L29,41.26a2,2,0,0,0-3,2.07l4,24A2,2,0,0,0,32,69Zm9-16.26a2,2,0,0,0,1.61.16,2,2,0,0,0,1.21-1.09L50,37.92l6.17,13.89a2,2,0,0,0,1.21,1.09A2,2,0,0,0,59,52.74l10.34-5.91L66.31,65H33.69l-3-18.17Z"></path></g>
</svg>
</g><g opacity="1" transform="rotate(0 532.2736 668.9859)">
<svg width="183.6334" height="2" x="532.2736" y="668.9859" version="1.1" preserveAspectRatio="none" viewBox="0 0 183.6334 2">
  <defs><rect x="0" y="0" width="183.6334" height="2" rx="0px" ry="0px" id="id-sr1BtIxl1705378395870"></rect></defs><use class="icon1 shapeStroke-str" style="stroke-width:0;" xlink:href="#id-sr1BtIxl1705378395870"></use>
</svg>
</g><g opacity="1" transform="rotate(0 775.907 668.9859)">
<svg width="183.6334" height="2" x="775.907" y="668.9859" version="1.1" preserveAspectRatio="none" viewBox="0 0 183.6334 2">
  <defs><rect x="0" y="0" width="183.6334" height="2" rx="0px" ry="0px" id="id-R9TavoXY1705378395870"></rect></defs><use class="icon1 shapeStroke-str" style="stroke-width:0;" xlink:href="#id-R9TavoXY1705378395870"></use>
</svg>
</g><g opacity="1" transform="rotate(0 574.1734 694.9859)">
<svg width="343.4671" height="120" x="574.1734" y="694.9859" version="1.1" preserveAspectRatio="none" viewBox="2.32 -28.76 83.92 29.320000000000004">
  <g transform="matrix(1 0 0 1 0 0)" class="companyName"><path id="id-D6z1nYkh3" d="M2.44-1.64L2.44-1.64Q2.32-2.20 2.32-3.80Q2.32-5.40 2.92-7.20L2.92-7.20L3.28-7.20Q3.24-6.76 3.24-6.32L3.24-6.32Q3.24-3.88 4.72-2.26Q6.20-0.64 8.64-0.64L8.64-0.64Q11.16-0.64 12.78-2.16Q14.40-3.68 14.40-5.98Q14.40-8.28 12.84-9.72L12.84-9.72L5.16-16.84Q3-18.84 3-21.68Q3-24.52 4.90-26.54Q6.80-28.56 10.04-28.56L10.04-28.56Q11.56-28.56 13.48-28.16L13.48-28.16L15.04-28.16L15.04-23.24L14.68-23.24Q14.68-25.12 13.38-26.24Q12.08-27.36 10.04-27.36Q8-27.36 6.62-26Q5.24-24.64 5.24-22.60Q5.24-20.56 6.84-19.08L6.84-19.08L14.72-11.80Q16.72-9.96 16.72-6.76Q16.72-3.56 14.68-1.50Q12.64 0.56 9.24 0.56L9.24 0.56Q7.48 0.56 5.50 0.02Q3.52-0.52 2.44-1.64Z M60.68-28L60.68-27.60L60.36-27.60Q58.88-27.60 57.76-26.52L57.76-26.52Q57.12-25.96 56.84-25.12L56.84-25.12L50.20-3.96Q49.40-1.44 49.32 0.48L49.32 0.48L48.96 0.48L40.80-22.40L34.72-3.96Q33.96-1.48 33.88 0.48L33.88 0.48L33.52 0.48L24.44-25.16Q23.96-26.36 22.96-26.98Q21.96-27.60 20.92-27.60L20.92-27.60L20.60-27.60L20.60-28L29.48-28L29.48-27.60L29.12-27.60Q28.28-27.60 27.86-27.06Q27.44-26.52 27.44-26.04Q27.44-25.56 27.56-25.16L27.56-25.16L33.64-5.68L41.08-28.64L41.44-28.60L49.32-6.48L54.68-25.20Q54.80-25.64 54.80-26.10Q54.80-26.56 54.40-27.08Q54-27.60 53.16-27.60L53.16-27.60L52.80-27.60L52.80-28L60.68-28Z M85.84-23.76L85.84-24.44Q85.84-25.40 85.16-26.10Q84.48-26.80 83.56-26.84L83.56-26.84L75.96-26.84L75.96-2.88Q76-1.84 76.74-1.12Q77.48-0.40 78.52-0.40L78.52-0.40L79.04-0.40L79.04 0L70.28 0L70.28-0.40L70.80-0.40Q71.84-0.40 72.58-1.12Q73.32-1.84 73.36-2.84L73.36-2.84L73.36-26.84L65.76-26.84Q64.80-26.80 64.14-26.10Q63.48-25.40 63.48-24.44L63.48-24.44L63.48-23.76L63.08-23.72L63.08-28.76Q63.68-28.52 65.16-28.28Q66.64-28.04 67.88-28.04L67.88-28.04L81.40-28.04Q83.36-28.04 84.66-28.34Q85.96-28.64 86.24-28.76L86.24-28.76L86.24-23.72L85.84-23.76Z"/></g>
</svg>
</g></svg></svg>