<svg version="1.1" preserveAspectRatio="none" xmlns="http://www.w3.org/2000/svg" width="500" height="500" viewBox="0 0 500 500"><rect width="100%" height="100%" fill="#FFFFFF" fill-opacity="1"/><svg viewBox="472.8547 526.3914 370.5928 350.4763" width="333" height="314.9241105061944" x="83.5px" y="92.5379px" xmlns="http://www.w3.org/2000/svg" xmlns:xlink="http://www.w3.org/1999/xlink" preserveAspectRatio="none"><defs></defs><style>.companyName {fill:#727373;fill-opacity:1;}.icon1 {fill:#F1B4BB;fill-opacity:1;}.icon2 {fill:#727373;fill-opacity:1;}.icon3 {fill:#C0777F;fill-opacity:1;}.icon3-str {stroke:#C0777F;stroke-opacity:1;}.text {fill:#727373;fill-opacity:1;}</style><g opacity="1" transform="rotate(0 574.5117 526.3914)">
<svg width="167.2788" height="161.4763" x="574.5117" y="526.3914" version="1.1" preserveAspectRatio="none" viewBox="4.999375343322754 6.560999870300293 89.99995422363281 86.87806701660156">
  <g transform="matrix(1 0 0 1 0 0)" class="icon1"><path fill-rule="evenodd" clip-rule="evenodd" d="M94.406,40.817c1.143,9.305,0.922,18.194-3.255,26.673  c-5.366,10.893-9.545,13.144-20.917,9.586c-6.299-1.971-12.373-4.812-18.322-7.727c-9.872-4.835-19.529-10.234-30.845-10.708  c-3.873-0.161-7.803,0.269-11.661,0.777c-2.2,0.289-3.095-0.211-3.616-2.407c-1.875-7.915-0.728-10.421,6.856-13.822  c11.532-5.171,23.133-5.013,35.065-1.09c8.05,2.647,16.298,5.112,24.65,6.312C80.416,49.567,88.659,48.817,94.406,40.817z"></path><path fill-rule="evenodd" clip-rule="evenodd" d="M67.818,6.561c9.84,4.273,17.036,11.02,22.212,20.082  c1.813,3.174,0.578,3.842-2.52,4.253c-9.778,1.298-18.507-2.149-27.186-5.717c-15.77-6.482-31.348-7.207-46.795,0.931  c-0.621,0.328-1.313,0.522-1.983,0.75c-0.101,0.034-0.252-0.086-1.668-0.626c3.516-4.132,6.71-7.999,10.024-11.756  C25.642,7.968,33.03,7.32,40.942,8.791c4.256,0.792,8.49,1.7,12.745,2.509C59.229,12.352,64.395,12.124,67.818,6.561z"></path><path fill-rule="evenodd" clip-rule="evenodd" d="M71.58,87.576c-11.521,9.362-37.923,6.849-47.047-2.846  c3.212-0.741,5.853-1.937,8.436-1.826c6.02,0.261,12.024,1.063,18.013,1.812C57.914,85.583,64.824,86.63,71.58,87.576z"></path></g>
</svg>
</g><g opacity="1" transform="rotate(0 472.8547 849.8677)">
<svg width="370.5928" height="27" x="472.8547" y="849.8677" version="1.1" preserveAspectRatio="none" viewBox="1.24 -29.46 504.46 36.76">
  <g transform="matrix(1 0 0 1 0 0)" class="text"><path id="id-6izo4zJp24" d="M15.32-18.22L14.52-16.92Q14.28-16.48 13.78-16.48L13.78-16.48Q13.48-16.48 13.10-16.70Q12.72-16.92 12.17-17.19Q11.62-17.46 10.86-17.69Q10.10-17.92 9.06-17.92L9.06-17.92Q8.16-17.92 7.44-17.69Q6.72-17.46 6.21-17.06Q5.70-16.66 5.43-16.13Q5.16-15.60 5.16-14.98L5.16-14.98Q5.16-14.20 5.61-13.68Q6.06-13.16 6.80-12.78Q7.54-12.40 8.48-12.11Q9.42-11.82 10.41-11.49Q11.40-11.16 12.34-10.76Q13.28-10.36 14.02-9.76Q14.76-9.16 15.21-8.29Q15.66-7.42 15.66-6.20L15.66-6.20Q15.66-4.80 15.16-3.61Q14.66-2.42 13.68-1.55Q12.70-0.68 11.28-0.18Q9.86 0.32 8 0.32L8 0.32Q5.88 0.32 4.16-0.37Q2.44-1.06 1.24-2.14L1.24-2.14L2.08-3.50Q2.24-3.76 2.46-3.90Q2.68-4.04 3.04-4.04L3.04-4.04Q3.40-4.04 3.80-3.76Q4.20-3.48 4.77-3.14Q5.34-2.80 6.15-2.52Q6.96-2.24 8.18-2.24L8.18-2.24Q9.22-2.24 10-2.51Q10.78-2.78 11.30-3.24Q11.82-3.70 12.07-4.30Q12.32-4.90 12.32-5.58L12.32-5.58Q12.32-6.42 11.87-6.97Q11.42-7.52 10.68-7.91Q9.94-8.30 8.99-8.59Q8.04-8.88 7.05-9.20Q6.06-9.52 5.11-9.93Q4.16-10.34 3.42-10.96Q2.68-11.58 2.23-12.49Q1.78-13.40 1.78-14.70L1.78-14.70Q1.78-15.86 2.26-16.93Q2.74-18 3.66-18.81Q4.58-19.62 5.92-20.10Q7.26-20.58 8.98-20.58L8.98-20.58Q10.98-20.58 12.57-19.95Q14.16-19.32 15.32-18.22L15.32-18.22Z M38.24-17.94L37.30-16.66Q37.14-16.44 36.98-16.32Q36.82-16.20 36.52-16.20L36.52-16.20Q36.22-16.20 35.87-16.45Q35.52-16.70 34.98-17Q34.44-17.30 33.67-17.55Q32.90-17.80 31.78-17.80L31.78-17.80Q30.30-17.80 29.16-17.27Q28.02-16.74 27.25-15.74Q26.48-14.74 26.09-13.32Q25.70-11.90 25.70-10.14L25.70-10.14Q25.70-8.30 26.12-6.87Q26.54-5.44 27.30-4.47Q28.06-3.50 29.15-2.99Q30.24-2.48 31.60-2.48L31.60-2.48Q32.90-2.48 33.74-2.79Q34.58-3.10 35.14-3.48Q35.70-3.86 36.06-4.17Q36.42-4.48 36.78-4.48L36.78-4.48Q37.24-4.48 37.46-4.14L37.46-4.14L38.46-2.84Q37.14-1.22 35.16-0.47Q33.18 0.28 30.98 0.28L30.98 0.28Q29.08 0.28 27.45-0.42Q25.82-1.12 24.62-2.45Q23.42-3.78 22.73-5.72Q22.04-7.66 22.04-10.14L22.04-10.14Q22.04-12.40 22.67-14.32Q23.30-16.24 24.51-17.63Q25.72-19.02 27.50-19.80Q29.28-20.58 31.58-20.58L31.58-20.58Q33.70-20.58 35.34-19.89Q36.98-19.20 38.24-17.94L38.24-17.94Z M48.92 0L45.36 0L45.36-20.26L47.40-20.26Q47.98-20.26 48.20-20.04Q48.42-19.82 48.50-19.28L48.50-19.28L48.74-16.12Q49.78-18.24 51.31-19.43Q52.84-20.62 54.90-20.62L54.90-20.62Q55.74-20.62 56.42-20.43Q57.10-20.24 57.68-19.90L57.68-19.90L57.22-17.24Q57.08-16.74 56.60-16.74L56.60-16.74Q56.32-16.74 55.74-16.93Q55.16-17.12 54.12-17.12L54.12-17.12Q52.26-17.12 51.01-16.04Q49.76-14.96 48.92-12.90L48.92-12.90L48.92 0Z M65.08-20.26L68.64-20.26L68.64 0L65.08 0L65.08-20.26ZM69.44-26.62L69.44-26.62Q69.44-26.10 69.23-25.65Q69.02-25.20 68.67-24.85Q68.32-24.50 67.86-24.30Q67.40-24.10 66.88-24.10L66.88-24.10Q66.36-24.10 65.91-24.30Q65.46-24.50 65.11-24.85Q64.76-25.20 64.56-25.65Q64.36-26.10 64.36-26.62L64.36-26.62Q64.36-27.14 64.56-27.61Q64.76-28.08 65.11-28.43Q65.46-28.78 65.91-28.98Q66.36-29.18 66.88-29.18L66.88-29.18Q67.40-29.18 67.86-28.98Q68.32-28.78 68.67-28.43Q69.02-28.08 69.23-27.61Q69.44-27.14 69.44-26.62Z M81.68 6.86L78.12 6.86L78.12-20.26L80.24-20.26Q81-20.26 81.20-19.52L81.20-19.52L81.50-17.12Q82.80-18.70 84.47-19.66Q86.14-20.62 88.32-20.62L88.32-20.62Q90.06-20.62 91.48-19.95Q92.90-19.28 93.90-17.97Q94.90-16.66 95.44-14.72Q95.98-12.78 95.98-10.26L95.98-10.26Q95.98-8.02 95.38-6.09Q94.78-4.16 93.66-2.75Q92.54-1.34 90.91-0.53Q89.28 0.28 87.24 0.28L87.24 0.28Q85.36 0.28 84.03-0.34Q82.70-0.96 81.68-2.10L81.68-2.10L81.68 6.86ZM87.14-17.74L87.14-17.74Q85.40-17.74 84.09-16.94Q82.78-16.14 81.68-14.68L81.68-14.68L81.68-4.88Q82.66-3.56 83.83-3.02Q85-2.48 86.44-2.48L86.44-2.48Q89.26-2.48 90.78-4.50Q92.30-6.52 92.30-10.26L92.30-10.26Q92.30-12.24 91.95-13.66Q91.60-15.08 90.94-15.99Q90.28-16.90 89.32-17.32Q88.36-17.74 87.14-17.74Z M109.54 0.32L109.54 0.32Q107.14 0.32 105.85-1.02Q104.56-2.36 104.56-4.88L104.56-4.88L104.56-17.28L102.12-17.28Q101.80-17.28 101.58-17.47Q101.36-17.66 101.36-18.06L101.36-18.06L101.36-19.48L104.68-19.90L105.50-26.16Q105.54-26.46 105.76-26.65Q105.98-26.84 106.32-26.84L106.32-26.84L108.12-26.84L108.12-19.86L113.92-19.86L113.92-17.28L108.12-17.28L108.12-5.12Q108.12-3.84 108.74-3.22Q109.36-2.60 110.34-2.60L110.34-2.60Q110.90-2.60 111.31-2.75Q111.72-2.90 112.02-3.08Q112.32-3.26 112.53-3.41Q112.74-3.56 112.90-3.56L112.90-3.56Q113.18-3.56 113.40-3.22L113.40-3.22L114.44-1.52Q113.52-0.66 112.22-0.17Q110.92 0.32 109.54 0.32Z M129.72-20.58L129.72-20.58Q131.94-20.58 133.73-19.84Q135.52-19.10 136.77-17.74Q138.02-16.38 138.69-14.45Q139.36-12.52 139.36-10.14L139.36-10.14Q139.36-7.74 138.69-5.82Q138.02-3.90 136.77-2.54Q135.52-1.18 133.73-0.45Q131.94 0.28 129.72 0.28L129.72 0.28Q127.50 0.28 125.71-0.45Q123.92-1.18 122.66-2.54Q121.40-3.90 120.72-5.82Q120.04-7.74 120.04-10.14L120.04-10.14Q120.04-12.52 120.72-14.45Q121.40-16.38 122.66-17.74Q123.92-19.10 125.71-19.84Q127.50-20.58 129.72-20.58ZM129.72-2.50L129.72-2.50Q132.72-2.50 134.20-4.51Q135.68-6.52 135.68-10.12L135.68-10.12Q135.68-13.74 134.20-15.76Q132.72-17.78 129.72-17.78L129.72-17.78Q128.20-17.78 127.08-17.26Q125.96-16.74 125.21-15.76Q124.46-14.78 124.09-13.35Q123.72-11.92 123.72-10.12L123.72-10.12Q123.72-8.32 124.09-6.90Q124.46-5.48 125.21-4.51Q125.96-3.54 127.08-3.02Q128.20-2.50 129.72-2.50Z M161.80 0L155.24-20.26L158.04-20.26Q158.48-20.26 158.76-20.04Q159.04-19.82 159.14-19.52L159.14-19.52L163.02-6.48Q163.18-5.76 163.32-5.09Q163.46-4.42 163.56-3.74L163.56-3.74Q163.72-4.42 163.92-5.09Q164.12-5.76 164.34-6.48L164.34-6.48L168.62-19.60Q168.72-19.90 168.97-20.10Q169.22-20.30 169.60-20.30L169.60-20.30L171.14-20.30Q171.54-20.30 171.80-20.10Q172.06-19.90 172.16-19.60L172.16-19.60L176.34-6.48Q176.56-5.78 176.73-5.10Q176.90-4.42 177.06-3.76L177.06-3.76Q177.16-4.42 177.32-5.14Q177.48-5.86 177.66-6.48L177.66-6.48L181.62-19.52Q181.72-19.84 182.00-20.05Q182.28-20.26 182.66-20.26L182.66-20.26L185.34-20.26L178.78 0L175.96 0Q175.44 0 175.24-0.68L175.24-0.68L170.76-14.42Q170.60-14.88 170.50-15.35Q170.40-15.82 170.30-16.28L170.30-16.28Q170.20-15.82 170.10-15.34Q170.00-14.86 169.84-14.40L169.84-14.40L165.30-0.68Q165.08 0 164.48 0L164.48 0L161.80 0Z M199.74-20.58L199.74-20.58Q201.56-20.58 203.10-19.97Q204.64-19.36 205.76-18.21Q206.88-17.06 207.51-15.37Q208.14-13.68 208.14-11.52L208.14-11.52Q208.14-10.68 207.96-10.40Q207.78-10.12 207.28-10.12L207.28-10.12L193.80-10.12Q193.84-8.20 194.32-6.78Q194.80-5.36 195.64-4.41Q196.48-3.46 197.64-2.99Q198.80-2.52 200.24-2.52L200.24-2.52Q201.58-2.52 202.55-2.83Q203.52-3.14 204.22-3.50Q204.92-3.86 205.39-4.17Q205.86-4.48 206.20-4.48L206.20-4.48Q206.64-4.48 206.88-4.14L206.88-4.14L207.88-2.84Q207.22-2.04 206.30-1.45Q205.38-0.86 204.33-0.48Q203.28-0.10 202.16 0.09Q201.04 0.28 199.94 0.28L199.94 0.28Q197.84 0.28 196.07-0.43Q194.30-1.14 193.01-2.51Q191.72-3.88 191.00-5.90Q190.28-7.92 190.28-10.54L190.28-10.54Q190.28-12.66 190.93-14.50Q191.58-16.34 192.80-17.69Q194.02-19.04 195.78-19.81Q197.54-20.58 199.74-20.58ZM199.82-17.96L199.82-17.96Q197.24-17.96 195.76-16.47Q194.28-14.98 193.92-12.34L193.92-12.34L204.94-12.34Q204.94-13.58 204.60-14.61Q204.26-15.64 203.60-16.39Q202.94-17.14 201.99-17.55Q201.04-17.96 199.82-17.96Z M218.30 0L216.00 0L216.00-29.46L219.58-29.46L219.58-17.34Q220.84-18.80 222.47-19.69Q224.10-20.58 226.20-20.58L226.20-20.58Q227.96-20.58 229.38-19.92Q230.80-19.26 231.80-17.95Q232.80-16.64 233.34-14.71Q233.88-12.78 233.88-10.26L233.88-10.26Q233.88-8.02 233.28-6.09Q232.68-4.16 231.55-2.75Q230.42-1.34 228.79-0.53Q227.16 0.28 225.12 0.28L225.12 0.28Q223.16 0.28 221.79-0.48Q220.42-1.24 219.40-2.60L219.40-2.60L219.22-0.76Q219.06 0 218.30 0L218.30 0ZM225.04-17.74L225.04-17.74Q223.30-17.74 221.99-16.94Q220.68-16.14 219.58-14.68L219.58-14.68L219.58-4.88Q220.54-3.56 221.71-3.02Q222.88-2.48 224.32-2.48L224.32-2.48Q227.16-2.48 228.68-4.50Q230.20-6.52 230.20-10.26L230.20-10.26Q230.20-12.24 229.85-13.66Q229.50-15.08 228.84-15.99Q228.18-16.90 227.22-17.32Q226.26-17.74 225.04-17.74Z M258.50 0.32L258.50 0.32Q256.10 0.32 254.81-1.02Q253.52-2.36 253.52-4.88L253.52-4.88L253.52-17.28L251.08-17.28Q250.76-17.28 250.54-17.47Q250.32-17.66 250.32-18.06L250.32-18.06L250.32-19.48L253.64-19.90L254.46-26.16Q254.50-26.46 254.72-26.65Q254.94-26.84 255.28-26.84L255.28-26.84L257.08-26.84L257.08-19.86L262.88-19.86L262.88-17.28L257.08-17.28L257.08-5.12Q257.08-3.84 257.70-3.22Q258.32-2.60 259.30-2.60L259.30-2.60Q259.86-2.60 260.27-2.75Q260.68-2.90 260.98-3.08Q261.28-3.26 261.49-3.41Q261.70-3.56 261.86-3.56L261.86-3.56Q262.14-3.56 262.36-3.22L262.36-3.22L263.40-1.52Q262.48-0.66 261.18-0.17Q259.88 0.32 258.50 0.32Z M278.50-20.58L278.50-20.58Q280.32-20.58 281.86-19.97Q283.40-19.36 284.52-18.21Q285.64-17.06 286.27-15.37Q286.90-13.68 286.90-11.52L286.90-11.52Q286.90-10.68 286.72-10.40Q286.54-10.12 286.04-10.12L286.04-10.12L272.56-10.12Q272.60-8.20 273.08-6.78Q273.56-5.36 274.40-4.41Q275.24-3.46 276.40-2.99Q277.56-2.52 279.00-2.52L279.00-2.52Q280.34-2.52 281.31-2.83Q282.28-3.14 282.98-3.50Q283.68-3.86 284.15-4.17Q284.62-4.48 284.96-4.48L284.96-4.48Q285.40-4.48 285.64-4.14L285.64-4.14L286.64-2.84Q285.98-2.04 285.06-1.45Q284.14-0.86 283.09-0.48Q282.04-0.10 280.92 0.09Q279.80 0.28 278.70 0.28L278.70 0.28Q276.60 0.28 274.83-0.43Q273.06-1.14 271.77-2.51Q270.48-3.88 269.76-5.90Q269.04-7.92 269.04-10.54L269.04-10.54Q269.04-12.66 269.69-14.50Q270.34-16.34 271.56-17.69Q272.78-19.04 274.54-19.81Q276.30-20.58 278.50-20.58ZM278.58-17.96L278.58-17.96Q276.00-17.96 274.52-16.47Q273.04-14.98 272.68-12.34L272.68-12.34L283.70-12.34Q283.70-13.58 283.36-14.61Q283.02-15.64 282.36-16.39Q281.70-17.14 280.75-17.55Q279.80-17.96 278.58-17.96Z M309.40-17.94L308.46-16.66Q308.30-16.44 308.14-16.32Q307.98-16.20 307.68-16.20L307.68-16.20Q307.38-16.20 307.03-16.45Q306.68-16.70 306.14-17Q305.60-17.30 304.83-17.55Q304.06-17.80 302.94-17.80L302.94-17.80Q301.46-17.80 300.32-17.27Q299.18-16.74 298.41-15.74Q297.64-14.74 297.25-13.32Q296.86-11.90 296.86-10.14L296.86-10.14Q296.86-8.30 297.28-6.87Q297.70-5.44 298.46-4.47Q299.22-3.50 300.31-2.99Q301.40-2.48 302.76-2.48L302.76-2.48Q304.06-2.48 304.90-2.79Q305.74-3.10 306.30-3.48Q306.86-3.86 307.22-4.17Q307.58-4.48 307.94-4.48L307.94-4.48Q308.40-4.48 308.62-4.14L308.62-4.14L309.62-2.84Q308.30-1.22 306.32-0.47Q304.34 0.28 302.14 0.28L302.14 0.28Q300.24 0.28 298.61-0.42Q296.98-1.12 295.78-2.45Q294.58-3.78 293.89-5.72Q293.20-7.66 293.20-10.14L293.20-10.14Q293.20-12.40 293.83-14.32Q294.46-16.24 295.67-17.63Q296.88-19.02 298.66-19.80Q300.44-20.58 302.74-20.58L302.74-20.58Q304.86-20.58 306.50-19.89Q308.14-19.20 309.40-17.94L309.40-17.94Z M320.08 0L316.52 0L316.52-29.46L320.08-29.46L320.08-17.54Q321.38-18.92 322.96-19.75Q324.54-20.58 326.60-20.58L326.60-20.58Q328.26-20.58 329.53-20.03Q330.80-19.48 331.65-18.47Q332.50-17.46 332.94-16.04Q333.38-14.62 333.38-12.90L333.38-12.90L333.38 0L329.82 0L329.82-12.90Q329.82-15.20 328.77-16.47Q327.72-17.74 325.56-17.74L325.56-17.74Q323.98-17.74 322.61-16.98Q321.24-16.22 320.08-14.92L320.08-14.92L320.08 0Z M345.52 0L341.96 0L341.96-20.26L344.08-20.26Q344.84-20.26 345.04-19.52L345.04-19.52L345.32-17.32Q346.64-18.78 348.27-19.68Q349.90-20.58 352.04-20.58L352.04-20.58Q353.70-20.58 354.97-20.03Q356.24-19.48 357.09-18.47Q357.94-17.46 358.38-16.04Q358.82-14.62 358.82-12.90L358.82-12.90L358.82 0L355.26 0L355.26-12.90Q355.26-15.20 354.21-16.47Q353.16-17.74 351.00-17.74L351.00-17.74Q349.42-17.74 348.05-16.98Q346.68-16.22 345.52-14.92L345.52-14.92L345.52 0Z M375.60-20.58L375.60-20.58Q377.82-20.58 379.61-19.84Q381.40-19.10 382.65-17.74Q383.90-16.38 384.57-14.45Q385.24-12.52 385.24-10.14L385.24-10.14Q385.24-7.74 384.57-5.82Q383.90-3.90 382.65-2.54Q381.40-1.18 379.61-0.45Q377.82 0.28 375.60 0.28L375.60 0.28Q373.38 0.28 371.59-0.45Q369.80-1.18 368.54-2.54Q367.28-3.90 366.60-5.82Q365.92-7.74 365.92-10.14L365.92-10.14Q365.92-12.52 366.60-14.45Q367.28-16.38 368.54-17.74Q369.80-19.10 371.59-19.84Q373.38-20.58 375.60-20.58ZM375.60-2.50L375.60-2.50Q378.60-2.50 380.08-4.51Q381.56-6.52 381.56-10.12L381.56-10.12Q381.56-13.74 380.08-15.76Q378.60-17.78 375.60-17.78L375.60-17.78Q374.08-17.78 372.96-17.26Q371.84-16.74 371.09-15.76Q370.34-14.78 369.97-13.35Q369.60-11.92 369.60-10.12L369.60-10.12Q369.60-8.32 369.97-6.90Q370.34-5.48 371.09-4.51Q371.84-3.54 372.96-3.02Q374.08-2.50 375.60-2.50Z M393.24-29.46L396.80-29.46L396.80 0L393.24 0L393.24-29.46Z M414.48-20.58L414.48-20.58Q416.70-20.58 418.49-19.84Q420.28-19.10 421.53-17.74Q422.78-16.38 423.45-14.45Q424.12-12.52 424.12-10.14L424.12-10.14Q424.12-7.74 423.45-5.82Q422.78-3.90 421.53-2.54Q420.28-1.18 418.49-0.45Q416.70 0.28 414.48 0.28L414.48 0.28Q412.26 0.28 410.47-0.45Q408.68-1.18 407.42-2.54Q406.16-3.90 405.48-5.82Q404.80-7.74 404.80-10.14L404.80-10.14Q404.80-12.52 405.48-14.45Q406.16-16.38 407.42-17.74Q408.68-19.10 410.47-19.84Q412.26-20.58 414.48-20.58ZM414.48-2.50L414.48-2.50Q417.48-2.50 418.96-4.51Q420.44-6.52 420.44-10.12L420.44-10.12Q420.44-13.74 418.96-15.76Q417.48-17.78 414.48-17.78L414.48-17.78Q412.96-17.78 411.84-17.26Q410.72-16.74 409.97-15.76Q409.22-14.78 408.85-13.35Q408.48-11.92 408.48-10.12L408.48-10.12Q408.48-8.32 408.85-6.90Q409.22-5.48 409.97-4.51Q410.72-3.54 411.84-3.02Q412.96-2.50 414.48-2.50Z M438.54-20.60L438.54-20.60Q439.86-20.60 441.01-20.31Q442.16-20.02 443.10-19.46L443.10-19.46L448.60-19.46L448.60-18.14Q448.60-17.48 447.76-17.30L447.76-17.30L445.46-16.98Q446.14-15.68 446.14-14.08L446.14-14.08Q446.14-12.60 445.57-11.39Q445.00-10.18 443.99-9.32Q442.98-8.46 441.59-8Q440.20-7.54 438.54-7.54L438.54-7.54Q437.12-7.54 435.86-7.88L435.86-7.88Q435.22-7.48 434.89-7.02Q434.56-6.56 434.56-6.12L434.56-6.12Q434.56-5.40 435.14-5.03Q435.72-4.66 436.68-4.50Q437.64-4.34 438.86-4.30Q440.08-4.26 441.35-4.17Q442.62-4.08 443.84-3.86Q445.06-3.64 446.02-3.14Q446.98-2.64 447.56-1.76Q448.14-0.88 448.14 0.52L448.14 0.52Q448.14 1.82 447.49 3.04Q446.84 4.26 445.62 5.21Q444.40 6.16 442.64 6.73Q440.88 7.30 438.66 7.30L438.66 7.30Q436.44 7.30 434.77 6.86Q433.10 6.42 432.00 5.68Q430.90 4.94 430.35 3.97Q429.80 3 429.80 1.94L429.80 1.94Q429.80 0.44 430.75-0.61Q431.70-1.66 433.36-2.28L433.36-2.28Q432.50-2.68 431.99-3.35Q431.48-4.02 431.48-5.14L431.48-5.14Q431.48-5.58 431.64-6.05Q431.80-6.52 432.13-6.98Q432.46-7.44 432.94-7.86Q433.42-8.28 434.06-8.60L434.06-8.60Q432.56-9.44 431.71-10.83Q430.86-12.22 430.86-14.08L430.86-14.08Q430.86-15.56 431.43-16.77Q432.00-17.98 433.02-18.83Q434.04-19.68 435.45-20.14Q436.86-20.60 438.54-20.60ZM444.86 1.10L444.86 1.10Q444.86 0.34 444.44-0.12Q444.02-0.58 443.30-0.83Q442.58-1.08 441.64-1.20Q440.70-1.32 439.66-1.37Q438.62-1.42 437.54-1.48Q436.46-1.54 435.48-1.70L435.48-1.70Q434.34-1.16 433.63-0.38Q432.92 0.40 432.92 1.48L432.92 1.48Q432.92 2.16 433.27 2.75Q433.62 3.34 434.34 3.77Q435.06 4.20 436.15 4.45Q437.24 4.70 438.72 4.70L438.72 4.70Q440.16 4.70 441.30 4.44Q442.44 4.18 443.23 3.70Q444.02 3.22 444.44 2.56Q444.86 1.90 444.86 1.10ZM438.54-9.90L438.54-9.90Q439.62-9.90 440.45-10.20Q441.28-10.50 441.84-11.04Q442.40-11.58 442.68-12.33Q442.96-13.08 442.96-13.98L442.96-13.98Q442.96-15.84 441.83-16.94Q440.70-18.04 438.54-18.04L438.54-18.04Q436.40-18.04 435.27-16.94Q434.14-15.84 434.14-13.98L434.14-13.98Q434.14-13.08 434.43-12.33Q434.72-11.58 435.28-11.04Q435.84-10.50 436.66-10.20Q437.48-9.90 438.54-9.90Z M455.76-20.26L459.32-20.26L459.32 0L455.76 0L455.76-20.26ZM460.12-26.62L460.12-26.62Q460.12-26.10 459.91-25.65Q459.70-25.20 459.35-24.85Q459.00-24.50 458.54-24.30Q458.08-24.10 457.56-24.10L457.56-24.10Q457.04-24.10 456.59-24.30Q456.14-24.50 455.79-24.85Q455.44-25.20 455.24-25.65Q455.04-26.10 455.04-26.62L455.04-26.62Q455.04-27.14 455.24-27.61Q455.44-28.08 455.79-28.43Q456.14-28.78 456.59-28.98Q457.04-29.18 457.56-29.18L457.56-29.18Q458.08-29.18 458.54-28.98Q459.00-28.78 459.35-28.43Q459.70-28.08 459.91-27.61Q460.12-27.14 460.12-26.62Z M476.82-20.58L476.82-20.58Q478.64-20.58 480.18-19.97Q481.72-19.36 482.84-18.21Q483.96-17.06 484.59-15.37Q485.22-13.68 485.22-11.52L485.22-11.52Q485.22-10.68 485.04-10.40Q484.86-10.12 484.36-10.12L484.36-10.12L470.88-10.12Q470.92-8.20 471.40-6.78Q471.88-5.36 472.72-4.41Q473.56-3.46 474.72-2.99Q475.88-2.52 477.32-2.52L477.32-2.52Q478.66-2.52 479.63-2.83Q480.60-3.14 481.30-3.50Q482.00-3.86 482.47-4.17Q482.94-4.48 483.28-4.48L483.28-4.48Q483.72-4.48 483.96-4.14L483.96-4.14L484.96-2.84Q484.30-2.04 483.38-1.45Q482.46-0.86 481.41-0.48Q480.36-0.10 479.24 0.09Q478.12 0.28 477.02 0.28L477.02 0.28Q474.92 0.28 473.15-0.43Q471.38-1.14 470.09-2.51Q468.80-3.88 468.08-5.90Q467.36-7.92 467.36-10.54L467.36-10.54Q467.36-12.66 468.01-14.50Q468.66-16.34 469.88-17.69Q471.10-19.04 472.86-19.81Q474.62-20.58 476.82-20.58ZM476.90-17.96L476.90-17.96Q474.32-17.96 472.84-16.47Q471.36-14.98 471.00-12.34L471.00-12.34L482.02-12.34Q482.02-13.58 481.68-14.61Q481.34-15.64 480.68-16.39Q480.02-17.14 479.07-17.55Q478.12-17.96 476.90-17.96Z M505.36-18.22L504.56-16.92Q504.32-16.48 503.82-16.48L503.82-16.48Q503.52-16.48 503.14-16.70Q502.76-16.92 502.21-17.19Q501.66-17.46 500.90-17.69Q500.14-17.92 499.10-17.92L499.10-17.92Q498.20-17.92 497.48-17.69Q496.76-17.46 496.25-17.06Q495.74-16.66 495.47-16.13Q495.20-15.60 495.20-14.98L495.20-14.98Q495.20-14.20 495.65-13.68Q496.10-13.16 496.84-12.78Q497.58-12.40 498.52-12.11Q499.46-11.82 500.45-11.49Q501.44-11.16 502.38-10.76Q503.32-10.36 504.06-9.76Q504.80-9.16 505.25-8.29Q505.70-7.42 505.70-6.20L505.70-6.20Q505.70-4.80 505.20-3.61Q504.70-2.42 503.72-1.55Q502.74-0.68 501.32-0.18Q499.90 0.32 498.04 0.32L498.04 0.32Q495.92 0.32 494.20-0.37Q492.48-1.06 491.28-2.14L491.28-2.14L492.12-3.50Q492.28-3.76 492.50-3.90Q492.72-4.04 493.08-4.04L493.08-4.04Q493.44-4.04 493.84-3.76Q494.24-3.48 494.81-3.14Q495.38-2.80 496.19-2.52Q497.00-2.24 498.22-2.24L498.22-2.24Q499.26-2.24 500.04-2.51Q500.82-2.78 501.34-3.24Q501.86-3.70 502.11-4.30Q502.36-4.90 502.36-5.58L502.36-5.58Q502.36-6.42 501.91-6.97Q501.46-7.52 500.72-7.91Q499.98-8.30 499.03-8.59Q498.08-8.88 497.09-9.20Q496.10-9.52 495.15-9.93Q494.20-10.34 493.46-10.96Q492.72-11.58 492.27-12.49Q491.82-13.40 491.82-14.70L491.82-14.70Q491.82-15.86 492.30-16.93Q492.78-18 493.70-18.81Q494.62-19.62 495.96-20.10Q497.30-20.58 499.02-20.58L499.02-20.58Q501.02-20.58 502.61-19.95Q504.20-19.32 505.36-18.22L505.36-18.22Z"/></g>
</svg>
</g><g opacity="1" transform="rotate(0 490.8723 727.8677)">
<svg width="334.5576" height="100" x="490.8723" y="727.8677" version="1.1" preserveAspectRatio="none" viewBox="2.5 -27.4805 92.3946 27.6172">
  <g transform="matrix(1 0 0 1 0 0)" class="companyName"><path id="id-D6z1nYkh3" d="M19.32-22.56L19.32-22.56Q19.32-20.66 18.50-20.66Q17.68-20.66 16.75-22.34Q15.82-24.02 14.48-24.82Q13.14-25.63 11.04-25.63Q8.93-25.63 7.62-24.52Q6.31-23.42 6.31-21.46Q6.31-19.49 8.11-18.01L8.11-18.01Q9.22-17.07 13.02-15.43Q16.82-13.79 18.63-11.90Q20.45-10.02 20.45-6.91Q20.45-3.81 17.89-1.84Q15.33 0.14 11.41 0.14L11.41 0.14L10.68 0.14Q9.24 0.14 7.63-0.23Q6.02-0.61 5.05-0.77Q4.08-0.94 3.63-1.13L3.63-1.13Q2.50-1.66 2.50-4.22L2.50-4.22L2.50-4.88Q2.50-7.50 3.69-7.50L3.69-7.50Q4.22-7.50 5.11-5.72Q6.00-3.95 6.80-3.30L6.80-3.30Q8.81-1.70 11.46-1.70Q14.10-1.70 15.44-2.92Q16.78-4.14 16.78-5.60Q16.78-7.05 16.37-7.95Q15.96-8.85 14.88-9.70Q13.81-10.55 10.06-12.26Q6.31-13.96 4.86-15.35L4.86-15.35Q2.73-17.40 2.73-20.57Q2.73-23.73 5.20-25.61Q7.66-27.48 11.19-27.48L11.19-27.48Q12.66-27.48 14.59-27.10Q16.52-26.72 17.45-26.72Q18.38-26.72 18.85-26.11Q19.32-25.51 19.32-22.56Z M30.48-26.95L30.48-26.95Q33.39-26.95 34.21-26.21Q35.04-25.47 35.04-22.99Q35.04-20.51 38.18-10.90L38.18-10.90Q39.04-8.26 39.96-8.26L39.96-8.26Q40.54-8.26 41.16-9.27Q41.77-10.27 42.71-13.53Q43.65-16.78 43.65-20.41L43.65-20.41Q43.65-21.25 43.32-22.30L43.32-22.30L43.00-23.09L42.75-23.85Q42.75-25.04 43.95-25.76Q45.15-26.48 46.43-26.48Q47.71-26.48 48.67-25.94L48.67-25.94Q50.25-25.02 50.25-24.10L50.25-24.10L50.19-23.34L49.98-22.62L49.86-21.88Q49.86-21.04 51.50-15.68Q53.14-10.33 53.57-9.33Q54-8.32 54.88-8.32L54.88-8.32Q55.60-8.32 56.34-10.61L56.34-10.61Q59.49-20.21 59.49-22.21L59.49-22.21Q59.49-22.91 59.35-23.89L59.35-23.89L59.16-25.25Q59.16-27.07 61.99-27.07L61.99-27.07Q63.36-27.07 63.97-26.65Q64.59-26.23 64.59-25.69Q64.59-25.16 63.90-23.96L63.90-23.96L63.36-23.14Q62.52-21.88 62.28-21.39L62.28-21.39L61.87-20.37Q61.36-19.04 59.39-12.72Q57.42-6.41 56.58-4.51Q55.74-2.62 54.97-1.98Q54.20-1.35 53.63-1.35L53.63-1.35Q52.30-1.35 51.15-4.16L51.15-4.16Q50.68-5.31 49.02-10.62Q47.36-15.92 46.89-17.07L46.89-17.07L46.54-17.79Q46.15-17.79 44.04-11.52Q41.93-5.25 41.17-3.67L41.17-3.67Q40.04-1.31 38.59-1.31L38.59-1.31L37.96-1.50Q37.05-2.01 36.44-3.29Q35.84-4.57 33.84-11.19Q31.85-17.81 31.18-19.62Q30.50-21.43 29.42-23.24Q28.34-25.06 28.34-25.49Q28.34-25.92 28.89-26.44Q29.45-26.95 30.48-26.95Z M77.73-0.90L77.73-0.90Q77.73-1.35 79.04-2.02Q80.34-2.70 80.64-4.23Q80.93-5.76 80.93-14.31Q80.93-22.85 80.61-23.83Q80.29-24.80 78.23-24.80Q76.18-24.80 75.27-24.30Q74.35-23.79 73.72-22.81L73.72-22.81Q72.43-20.82 72.22-20.82L72.22-20.82Q71.30-20.82 71.30-21.95L71.30-21.95L71.30-22.54Q71.30-26.54 72.22-27.01L72.22-27.01Q72.57-27.19 82.41-27.19L82.41-27.19L90.44-27.17Q91.09-27.17 91.75-27.19L91.75-27.19L93.04-27.23Q94.04-27.23 94.37-26.74L94.37-26.74Q94.89-25.94 94.89-22.71L94.89-22.71Q94.89-21.05 94.37-21.05L94.37-21.05Q93.64-21.05 92.82-22.45Q92.00-23.85 91.07-24.37Q90.13-24.88 88.02-24.88Q85.91-24.88 85.53-23.93Q85.15-22.97 85.15-13.94Q85.15-4.90 85.36-3.79Q85.58-2.68 86.28-2.09L86.28-2.09Q86.50-1.91 87.31-1.52Q88.12-1.13 88.12-0.80L88.12-0.80Q88.12 0.04 86.77 0.04L86.77 0.04L85.48 0.04L81.65-0.04Q77.73-0.04 77.73-0.90Z"/></g>
</svg>
</g></svg></svg>